<svg width="38" height="38" viewBox="0 0 38 38" fill="none" xmlns="http://www.w3.org/2000/svg">
<path d="M15.4439 4.18666C15.3396 4.09706 15.3396 3.93405 15.4439 3.84446L19.0346 0.753889C19.179 0.629453 19.3996 0.73315 19.3996 0.924781V2.56858C27.3771 3.55245 33.5998 10.296 33.8997 18.5748H30.7947C30.503 12.0348 25.6591 6.69777 19.3996 5.74169V7.10592C19.3996 7.29755 19.179 7.40125 19.0346 7.27723L15.4439 4.18666ZM13.2931 6.23238C12.505 5.39701 12.2497 4.22855 12.5275 3.17748C5.95584 5.22197 1.12833 11.3073 0.865248 18.5743H3.97108C4.23007 12.7773 8.06499 7.92596 13.2931 6.23238ZM36.954 34.2122L33.3633 31.1216C33.2193 30.9976 32.9988 31.1009 32.9988 31.2929V32.8106H29.0104C27.5035 34.1342 25.7757 35.204 23.892 35.9568H32.9988V37.4745C32.9988 37.6661 33.2193 37.7698 33.3633 37.6458L36.954 34.5552C37.0583 34.4648 37.0583 34.3018 36.954 34.2122ZM33.8997 19.8245H30.7943C30.4715 27.0513 24.5908 32.8102 17.3829 32.8102H0.803058C0.378364 32.8102 0.0322266 33.1611 0.0322266 33.5917V35.1749C0.0322266 35.6055 0.378364 35.9564 0.803058 35.9564H17.3829C26.3051 35.9568 33.5748 28.7897 33.8997 19.8245ZM6.22302 31.5601H11.7563C7.32812 29.4849 4.20388 25.0367 3.97149 19.8245H0.865248C1.033 24.4672 3.06441 28.6275 6.22302 31.5601ZM23.2889 20.6284C23.14 21.2622 22.8924 21.8673 22.5553 22.4219L23.0659 23.5875L21.7108 24.9612L20.5615 24.4436C20.0145 24.7854 19.4172 25.0363 18.792 25.1873L18.3407 26.3765H16.4247L15.973 25.1873C15.3478 25.0363 14.7508 24.7854 14.2038 24.4436L13.0541 24.9612L11.6994 23.5875L12.2101 22.4223C11.8729 21.8677 11.6254 21.2622 11.4765 20.6284L10.3034 20.1709V18.2284L11.4765 17.7705C11.6254 17.1367 11.8729 16.5315 12.2101 15.977L11.6994 14.8114L13.0545 13.4376L14.2042 13.9553C14.7513 13.6139 15.3482 13.3626 15.9734 13.2116L16.4251 12.0224H18.3411L18.7928 13.2116C19.418 13.3626 20.0149 13.6135 20.5619 13.9553L21.7116 13.4376L23.0667 14.8114L22.5561 15.9765C22.8933 16.5311 23.1408 17.1367 23.2897 17.7705L24.4627 18.228V20.1704L23.2889 20.6284ZM20.7244 19.1994C20.7244 17.3283 19.2285 15.8115 17.3825 15.8115C15.5364 15.8115 14.041 17.3283 14.041 19.1994C14.041 21.0705 15.5368 22.5874 17.3829 22.5874C19.229 22.5874 20.7244 21.0705 20.7244 19.1994ZM11.5751 11.9237C14.6367 9.41089 18.9299 9.15455 22.2452 11.2413L22.1572 11.2447C21.818 11.2567 21.5525 11.5454 21.5648 11.8892C21.5766 12.2331 21.8614 12.5023 22.2006 12.4898L23.9726 12.4251C24.3862 12.4401 24.7021 12.0402 24.5871 11.63L24.0888 9.85886C23.9955 9.52703 23.6547 9.33457 23.3278 9.42914C23.0058 9.52205 22.8172 9.85762 22.8994 10.1845C19.1377 7.81479 14.2754 8.1039 10.7997 10.9564C6.76841 14.2647 5.75863 20.0369 8.33666 24.5269C8.50687 24.8252 8.88328 24.9268 9.17746 24.7542C9.47164 24.5817 9.57188 24.2001 9.40167 23.9019C7.12477 19.9382 8.01548 14.845 11.5751 11.9237ZM23.9665 27.4421C27.9974 24.1341 29.008 18.3611 26.4295 13.8715C26.2593 13.5733 25.8829 13.4716 25.5887 13.6442C25.2945 13.8167 25.1943 14.1984 25.3645 14.4966C27.641 18.4603 26.7499 23.5543 23.1907 26.4748C20.1307 28.9859 15.833 29.246 12.5198 27.1571L12.6086 27.1538C12.9477 27.1418 13.2133 26.8531 13.201 26.5092C13.1891 26.1653 12.9044 25.8962 12.5652 25.9086L10.7932 25.9733C10.3795 25.9584 10.0637 26.3582 10.1786 26.7684L10.677 28.5396C10.7703 28.8714 11.1111 29.0639 11.438 28.9693C11.76 28.8764 11.949 28.5404 11.8664 28.214C15.6301 30.5816 20.4887 30.2962 23.9665 27.4421Z" fill="#00B8F1"/>
</svg>
