<svg width="37" height="42" viewBox="0 0 37 42" fill="none" xmlns="http://www.w3.org/2000/svg">
<path fill-rule="evenodd" clip-rule="evenodd" d="M22.2928 34.8179L25.8411 41.8157C25.9597 42.0493 26.3152 42.0642 26.4561 41.8412L29.1414 37.5987L34.406 38.4434C34.6832 38.4879 34.8993 38.2287 34.7806 37.9946L30.5825 29.7154C29.7175 30.1257 28.6713 31.9115 28.1078 32.7025C26.8348 34.4892 24.5277 35.3177 22.2928 34.8179ZM18.992 17.8539L33.3314 2.69387C34.0934 1.98733 35.3366 1.98501 36.1041 2.68599C36.8716 3.3865 36.8736 4.52467 36.1127 5.23028C33.5021 7.6494 23.0073 19.2744 20.3847 21.6824C19.6181 22.3862 18.3745 22.3862 17.6075 21.6824L12.1636 16.6843C11.3971 15.9805 11.3971 14.8382 12.1636 14.1344C12.9301 13.4306 14.1743 13.4306 14.9408 14.1344L18.992 17.8539ZM20.8376 0.725377C24.2707 3.08469 23.7637 2.97018 28.2396 3.19874C29.0066 3.23768 29.7105 3.46949 30.2937 3.84919L25.9618 8.40138C23.9294 6.87425 21.3314 5.95723 18.5007 5.95723C11.9899 5.95723 6.71225 10.8033 6.71225 16.7807C6.71225 22.7585 11.9899 27.6041 18.5007 27.6041C25.0115 27.6041 30.2891 22.758 30.2891 16.7807C30.2891 15.7946 30.1447 14.8395 29.8756 13.9318C31.0526 12.6814 32.2286 11.4302 33.4082 10.1816L35.7592 12.2201C37.0372 13.3282 37.3639 15.0069 36.5712 16.4473C34.507 20.197 34.6605 19.3978 35.2033 23.5693C35.4118 25.1716 34.4817 26.651 32.8659 27.2866C28.6592 28.9407 29.3368 28.4187 26.8318 31.9352C25.8699 33.2857 24.1212 33.8698 22.4388 33.403C18.0584 32.1874 18.9425 32.1874 14.5621 33.403C12.8797 33.8698 11.131 33.2857 10.1691 31.9352C7.66458 28.4187 8.34171 28.9407 4.13502 27.2866C2.51919 26.6514 1.58908 25.1716 1.79763 23.5693L2.14604 20.8934C2.24147 20.1613 2.11625 19.5104 1.7542 18.8526L0.429729 16.4473C-0.363035 15.0069 -0.0398701 13.3249 1.24168 12.2201C4.57836 9.34483 4.13653 10.0477 5.18025 5.95723C5.58118 4.38605 7.00664 3.28775 8.76132 3.19828C13.3306 2.96508 12.4994 3.24232 16.1633 0.724914C17.5701 -0.241715 19.4303 -0.241715 20.8376 0.725377ZM14.7076 34.8179C12.4727 35.3177 10.1656 34.4897 8.89261 32.7025C8.32959 31.912 7.28284 30.1257 6.41787 29.7154L2.21976 37.9946C2.1011 38.2287 2.31721 38.4879 2.59443 38.4434L7.85898 37.5987L10.5443 41.8412C10.6857 42.0642 11.0411 42.0493 11.1593 41.8157L14.7076 34.8179Z" fill="#00B8F1"/>
</svg>
