<svg width="37" height="38" viewBox="0 0 37 38" fill="none" xmlns="http://www.w3.org/2000/svg">
<path d="M21.2032 29.4996C21.6957 29.4996 22.1296 29.0598 22.1296 28.5731C22.1296 27.4825 22.1296 26.386 22.1296 25.2953C22.1296 24.75 21.6899 24.3689 21.2032 24.3689H0.926466C0.433915 24.3689 0 24.75 0 25.2953V28.5731C0 29.0657 0.439778 29.4996 0.926466 29.4996H21.2032ZM21.2032 37.9668C21.6957 37.9668 22.1296 37.527 22.1296 37.0403V33.7039C22.1296 33.2113 21.6899 32.8302 21.2032 32.8302H0.926466C0.433915 32.8302 0 33.2113 0 33.7039V37.0403C0 37.5329 0.439778 37.9668 0.926466 37.9668H21.2032ZM20.822 33.8681C21.426 33.8681 21.426 34.8532 20.822 34.8532H6.06307C5.40634 34.8532 5.40634 33.8681 6.06307 33.8681H20.822ZM20.822 35.891C21.426 35.891 21.426 36.8761 20.822 36.8761H6.06307C5.40634 36.8761 5.40634 35.891 6.06307 35.891H20.822ZM2.94945 33.7625C3.87591 33.7625 4.59128 34.472 4.59128 35.4044C4.59128 36.278 3.88177 36.9876 2.94945 36.9876C2.07575 36.9876 1.36624 36.278 1.36624 35.4044C1.36624 34.472 2.07575 33.7625 2.94945 33.7625ZM2.94945 34.7418C2.62108 34.7418 2.29271 35.0173 2.29271 35.3985C2.29271 35.7269 2.62108 36.0552 2.94945 36.0552C3.33059 36.0552 3.60618 35.7269 3.60618 35.3985C3.60618 35.0173 3.33059 34.7418 2.94945 34.7418ZM2.02298 31.8451H21.209C21.5374 31.8451 21.8658 31.9565 22.1355 32.1207V30.2091C21.8599 30.3733 21.5315 30.4261 21.209 30.4261H2.02298V31.8451ZM23.062 34.1437V36.0025H32.5201C32.7957 36.0025 33.0127 36.2194 33.0127 36.495L33.0655 37.6443L37 35.076L33.0655 32.6191V33.7097C33.0655 33.9853 32.8485 34.2023 32.5729 34.1495H23.062V34.1437ZM5.68193 3.42369L6.71981 5.1183C6.9954 5.55808 6.6084 5.88645 6.33867 5.82781H4.80824V6.75428H27.5477L32.9071 5.55222C33.2883 5.44081 33.5639 5.76917 33.5111 6.09754L32.309 11.6153V31.3467C32.4204 31.1825 32.6902 31.1825 32.8544 31.2939L35.5341 32.9885V5.1183C35.5341 4.19184 34.7659 3.42369 33.8395 3.42369H5.68193ZM4.80824 7.68661V11.1286H25.4133L27.9816 8.5603L27.1079 7.68661H4.80824ZM4.80824 12.0609V15.5029H21.0448L24.4341 12.0609H4.80824ZM4.80824 16.4353V19.4961H17.0517L20.0597 16.4353H4.80824ZM4.80824 20.4754V23.372H13.1171L16.0666 20.4754H4.80824ZM3.87591 23.372V5.33526C3.87591 5.1183 4.09287 4.89548 4.36846 4.89548H5.45911L2.94945 0.966797L0.433915 4.90135L1.5832 4.95412C1.80016 4.95412 2.02298 5.17108 2.02298 5.44667V23.372H3.87591ZM23.062 33.2113H26.7796V14.7934L23.062 18.511V25.2895C23.062 27.9105 23.062 30.5902 23.062 33.2113ZM27.7119 33.2113H31.3181V11.8967L30.4444 11.1286L27.7119 13.8083V33.2113ZM22.1355 23.6476V19.4375L18.1482 23.372H21.209C21.5315 23.372 21.8599 23.4834 22.1355 23.6476ZM16.7761 23.372L30.1101 10.0907C30.2743 9.92654 30.6027 9.92654 30.7669 10.0907L31.4764 10.7475L32.4029 6.64873L28.3041 7.52242L29.0136 8.23193C29.1778 8.39612 29.1778 8.72448 28.9609 8.88867C24.1526 13.7555 19.3385 18.5638 14.4775 23.372H16.7761ZM20.822 25.4536C21.426 25.4536 21.426 26.3801 20.822 26.3801H6.06307C5.40634 26.3801 5.40634 25.4536 6.06307 25.4536H20.822ZM20.822 27.418C21.426 27.418 21.426 28.4031 20.822 28.4031H6.06307C5.40634 28.4031 5.40634 27.418 6.06307 27.418H20.822ZM2.94945 25.2895C3.87591 25.2895 4.59128 25.999 4.59128 26.9313C4.59128 27.805 3.88177 28.5145 2.94945 28.5145C2.07575 28.5145 1.36624 27.805 1.36624 26.9313C1.36624 25.999 2.07575 25.2895 2.94945 25.2895ZM2.94945 26.2746C2.62108 26.2746 2.29271 26.5502 2.29271 26.9313C2.29271 27.2597 2.62108 27.588 2.94945 27.588C3.33059 27.588 3.60618 27.2597 3.60618 26.9313C3.60618 26.5443 3.33059 26.2746 2.94945 26.2746Z" fill="#00B8F1"/>
</svg>
