<svg width="37" height="42" viewBox="0 0 37 42" fill="none" xmlns="http://www.w3.org/2000/svg">
<path fill-rule="evenodd" clip-rule="evenodd" d="M18.4999 22.2622C18.7742 22.2623 19.041 22.3473 19.2599 22.5044C19.4787 22.6614 19.6377 22.882 19.7128 23.1326C19.7879 23.3833 19.7749 23.6504 19.6759 23.8934C19.5768 24.1364 19.3971 24.3421 19.164 24.4794C19.0633 24.5387 18.9871 24.6292 18.9483 24.7356C18.9095 24.842 18.9104 24.9578 18.9508 25.0637L19.633 26.8711H17.3703L18.0525 25.0637C18.0921 24.9577 18.0925 24.8421 18.0536 24.7359C18.0148 24.6297 17.9391 24.5392 17.8389 24.4794C17.6059 24.3423 17.4263 24.1368 17.3272 23.894C17.2281 23.6513 17.2149 23.3845 17.2896 23.134C17.3643 22.8835 17.5228 22.6629 17.7412 22.5056C17.9596 22.3483 18.2259 22.2629 18.4999 22.2622ZM16.6336 27.8557H20.3663C20.4493 27.8556 20.5311 27.8365 20.6048 27.8003C20.6785 27.764 20.7421 27.7115 20.7901 27.6472C20.8382 27.5828 20.8693 27.5085 20.8811 27.4304C20.8928 27.3523 20.8847 27.2727 20.8574 27.1982L20.051 25.0693C20.3924 24.7722 20.6314 24.3841 20.7366 23.9557C20.8419 23.5274 20.8084 23.0788 20.6407 22.6688C20.473 22.2589 20.1789 21.9066 19.7968 21.6582C19.4148 21.4098 18.9626 21.2769 18.4997 21.2769C18.0368 21.2769 17.5846 21.4098 17.2026 21.6582C16.8205 21.9066 16.5264 22.2589 16.3587 22.6688C16.1909 23.0788 16.1575 23.5274 16.2628 23.9557C16.368 24.3841 16.607 24.7722 16.9484 25.0693L16.1459 27.1982C16.1176 27.2723 16.1086 27.3518 16.1195 27.43C16.1305 27.5081 16.1611 27.5826 16.2088 27.6471C16.2568 27.7114 16.3203 27.7638 16.3939 27.8001C16.4675 27.8363 16.5492 27.8554 16.6321 27.8557H16.6336ZM12.0684 20.1748V28.9594C12.0688 29.2214 12.1786 29.4724 12.3736 29.6576C12.5686 29.8427 12.833 29.9468 13.1087 29.9469H23.8912C24.1673 29.9472 24.4322 29.8434 24.6277 29.6583C24.8233 29.4731 24.9334 29.2217 24.9339 28.9594V20.1748C24.9334 19.9131 24.8236 19.6622 24.6285 19.4773C24.4335 19.2924 24.1692 19.1886 23.8937 19.1888H13.1087C12.8332 19.1886 12.5689 19.2924 12.3738 19.4773C12.1788 19.6622 12.0689 19.9131 12.0684 20.1748ZM18.4999 12.0529C19.7292 12.0542 20.9077 12.5184 21.7773 13.344C22.6468 14.1695 23.1365 15.2889 23.1388 16.4569V18.2041H13.8621V16.4569C13.8642 15.289 14.3535 14.1696 15.2229 13.344C16.0924 12.5185 17.2708 12.0542 18.4999 12.0529ZM13.1087 30.9311H23.8912C24.4413 30.9306 24.9687 30.7227 25.3576 30.353C25.7465 29.9833 25.9651 29.4821 25.9653 28.9594V20.1748C25.9649 19.6986 25.7831 19.2386 25.4535 18.8797C25.1239 18.5209 24.6687 18.2876 24.1722 18.2228V16.4569C24.1525 15.0397 23.5462 13.6868 22.4845 12.6912C21.4228 11.6956 19.9911 11.1373 18.4995 11.1373C17.0078 11.1373 15.5761 11.6956 14.5144 12.6912C13.4527 13.6868 12.8464 15.0397 12.8267 16.4569V18.2228C12.3305 18.2881 11.8759 18.5217 11.5465 18.8804C11.2172 19.2391 11.0354 19.6988 11.0346 20.1748V28.9594C11.0353 29.4823 11.2544 29.9836 11.6437 30.3533C12.033 30.7229 12.5608 30.9307 13.1111 30.9311H13.1087ZM3.79117 10.533C3.76072 15.7751 3.76907 22.1796 5.56567 27.1175C7.52485 32.5038 11.6372 36.0383 18.4999 38.234C25.3632 36.0383 29.4765 32.5038 31.4337 27.1175C33.2313 22.1796 33.2392 15.7774 33.2097 10.533C27.8606 9.72982 22.8057 7.67535 18.4999 4.55451C14.1949 7.67585 9.14014 9.73039 3.79117 10.533ZM18.3369 39.2201C18.3893 39.236 18.4439 39.2442 18.499 39.2443C18.5546 39.2441 18.6099 39.2359 18.663 39.2201C25.9535 36.9245 30.3237 33.18 32.4116 27.4399C34.3138 22.2132 34.2779 15.5002 34.2426 10.1079C34.2415 9.9896 34.1957 9.87564 34.1137 9.78667C34.0317 9.6977 33.9189 9.63963 33.7956 9.62299C28.3294 8.87617 23.1652 6.77926 18.8192 3.54184C18.728 3.47425 18.6156 3.43754 18.4999 3.43754C18.3843 3.43754 18.2719 3.47425 18.1807 3.54184C13.8336 6.77941 8.66813 8.87588 3.20082 9.62159C3.07778 9.63819 2.96515 9.69632 2.88352 9.78536C2.8019 9.8744 2.75675 9.98839 2.75633 10.1065C2.72343 15.4988 2.68266 22.21 4.58535 27.4385C6.67419 33.1814 11.0419 36.9245 18.3369 39.2201ZM7.73211 36.6408C10.4511 38.9382 13.9205 40.684 18.3487 41.9776C18.3972 41.9925 18.4479 42 18.499 42C18.5506 42 18.602 41.9924 18.6512 41.9776C23.0764 40.684 26.5488 38.9382 29.2678 36.6408C31.7253 34.5643 33.607 31.945 34.747 29.014C37.0288 23.3599 37.0131 16.6333 36.9974 9.51473C36.9954 8.92641 36.9954 8.3353 36.9974 7.74139C36.997 7.61618 36.9465 7.4958 36.8561 7.40471C36.7657 7.31361 36.6422 7.25862 36.5107 7.25092C29.941 6.85995 23.7093 4.3473 18.8487 0.129554C18.7536 0.0462513 18.629 0 18.4997 0C18.3704 0 18.2458 0.0462513 18.1507 0.129554C13.2904 4.34596 7.05968 6.85774 0.491178 7.24858C0.3597 7.2563 0.236249 7.3113 0.145927 7.40241C0.0556054 7.49351 0.00519469 7.61389 0.00494548 7.73905C0.00494548 8.33452 0.00412686 8.92641 0.00248971 9.51473C-0.0127357 16.6333 -0.0284522 23.3599 2.25095 29.014C3.39179 31.945 5.27418 34.5643 7.73211 36.6408Z" fill="#00B8F1"/>
</svg>
