<svg width="38" height="38" viewBox="0 0 38 38" fill="none" xmlns="http://www.w3.org/2000/svg">
<path d="M27.861 9.80585C27.8141 9.71976 27.8027 9.66857 27.803 9.65169C27.8093 9.19565 27.7904 8.79488 27.7461 8.41387C27.6555 7.50179 27.4357 6.62868 27.0929 5.82363C25.5597 2.21195 22.0115 0.0626215 18.2739 0.472712C14.176 0.916528 11.1016 3.81681 10.4421 7.86067C10.396 8.1521 10.3683 8.45169 10.3574 8.77799C10.3474 8.98393 10.3417 9.18461 10.336 9.38356L10.3272 9.67611C10.3246 9.73429 10.3226 9.78606 10.3183 9.80932C10.3129 9.80993 10.2971 9.81747 10.2702 9.82737C9.55497 10.0676 9.125 10.665 9.125 11.4235V11.4253C9.13044 12.4653 9.19247 13.4693 9.30909 14.4093C9.40688 15.2114 10.0513 15.7553 10.9504 15.7949C10.995 15.7966 11.0519 15.8135 11.0973 15.8373C11.3575 16.661 11.9867 18.1385 13.3961 19.4519C13.9927 20.0034 14.6849 20.4838 15.4553 20.8811C16.0731 21.8915 18.2224 23.0933 18.9674 23.3236C19.0878 23.3626 19.2173 23.3888 19.3591 23.4021C19.4205 23.408 19.4826 23.4115 19.5444 23.4115C19.8328 23.4115 20.121 23.3446 20.3863 23.2143C20.876 22.9723 21.2479 22.5302 21.408 22.0014C21.5621 21.4925 21.5121 20.9532 21.2668 20.4833C21.0213 20.0127 20.6093 19.6677 20.1073 19.5118C19.3963 19.2949 17.3776 19.1204 16.2438 19.4135C13.8046 18.1809 12.9315 16.273 12.6271 15.237C12.6179 15.1317 12.5839 14.9735 12.5539 14.8357C12.5316 14.7333 12.5099 14.646 12.5079 14.592C12.4553 13.2302 12.3678 11.8551 12.2903 10.6737C12.276 10.4951 12.2125 10.3398 12.1562 10.202C12.1342 10.1479 12.1119 10.0938 12.0939 10.0397L12.053 9.92685C12.0244 9.85063 11.9947 9.77269 11.9927 9.7215C11.8558 5.83934 14.3898 2.73489 18.1558 2.17298C20.0086 1.89202 21.9584 2.46033 23.5007 3.72955C25.037 4.99413 25.9856 6.8055 26.1028 8.6983C26.1094 8.8193 26.1209 8.93912 26.1323 9.05955L26.1489 9.23986C26.1572 9.37597 26.1629 9.51442 26.1491 9.65225C26.1223 9.90299 26.0597 10.0659 25.947 10.2124C25.8338 10.3608 25.833 10.5399 25.8324 10.6708C25.8324 10.7005 25.8327 10.7301 25.8304 10.7581L25.7558 12.1128C25.7083 12.9667 25.6609 13.82 25.6177 14.6757C25.6048 14.9735 25.6283 15.3906 25.979 15.6C26.0803 15.6739 26.2312 15.7245 26.4339 15.7472C26.4556 15.7524 26.5039 15.7565 26.5531 15.7594L26.7049 15.7693C27.2272 15.8018 27.821 15.8385 28.3176 15.3388C28.6921 14.9636 28.8922 14.5059 28.9291 13.9399L29.006 12.4508C29.0243 12.1919 29.0432 11.9244 29.0357 11.6515C29.0169 10.7319 28.6218 10.1106 27.861 9.80585Z" fill="#00B8F1"/>
<path d="M32.5448 26.8637C32.5448 26.8637 28.6714 25.4874 26.9667 24.8838C26.4412 24.6978 25.8636 24.9495 25.6324 25.4643L20.2305 35.1672C19.6747 36.1483 18.2824 36.1468 17.7287 35.1645L12.5156 25.4643C12.2844 24.9495 11.7069 24.6978 11.1814 24.8838C9.47662 25.4874 5.60329 26.8637 5.60329 26.8637C3.00717 27.6778 1.43478 31.1035 0.607153 35.6224C0.436151 36.5561 1.12657 37.4229 2.06015 37.4229H36.1019C37.0372 37.4229 37.7283 36.553 37.5541 35.6181C36.7123 31.1013 35.1401 27.6776 32.5448 26.8637Z" fill="#00B8F1"/>
<path d="M20.9601 25.3284L17.0614 25.3035C16.7119 25.2935 16.4444 25.5878 16.5099 25.9021L17.0833 28.5013C17.1378 28.7308 17.3508 28.8955 17.602 28.9054L20.354 28.9254C20.6052 28.9204 20.8236 28.7607 20.8782 28.5263L21.4953 25.9421C21.5717 25.6278 21.3096 25.3284 20.9601 25.3284Z" fill="#00B8F1"/>
<path d="M17.2304 29.5811L16.8496 31.6687L18.5499 34.7198C18.6385 34.888 18.8156 34.9781 19.0045 34.9841C19.1934 34.9781 19.3705 34.888 19.4591 34.7198L21.1594 31.6687L20.7786 29.5811H17.2304Z" fill="#00B8F1"/>
</svg>
