<svg width="37" height="37" viewBox="0 0 37 37" fill="none" xmlns="http://www.w3.org/2000/svg">
<path fill-rule="evenodd" clip-rule="evenodd" d="M21.5354 15.0601V34.228C21.5354 35.7529 20.0924 37 18.3196 37H3.21589C1.44303 37 0 35.7529 0 34.228V15.0601C0 14.4631 0.192403 13.9489 0.590953 13.4583L8.14279 4.30879C8.45888 3.93051 8.84369 3.64089 9.29034 3.44585V5.0476C8.93989 5.36086 8.72687 5.78642 8.72687 6.25927C8.72687 7.22859 9.64079 8.0147 10.7677 8.0147C11.8947 8.0147 12.8154 7.22859 12.8154 6.25927C12.8154 5.78642 12.5956 5.36086 12.252 5.0476V3.44585C12.6918 3.64089 13.0834 3.93051 13.3927 4.30879L20.9445 13.4583C21.3499 13.9489 21.5354 14.4631 21.5354 15.0601ZM12.0733 15.1487C12.8292 15.326 13.4957 15.6748 14.018 16.1949C14.6708 16.845 14.9937 17.6843 15.0075 18.5355C15.0075 18.6182 15.0075 18.701 15.0006 18.7778V18.7837L12.4032 18.701V18.6714C12.4032 18.6359 12.4032 18.6005 12.4032 18.565C12.4032 18.2399 12.2932 17.903 12.039 17.6489C11.7641 17.3711 11.3518 17.2647 10.9395 17.247C10.8845 17.247 10.8296 17.247 10.7746 17.247C10.3623 17.247 9.95688 17.3534 9.64766 17.6016C9.46213 17.7553 9.3247 17.9562 9.25598 18.1749C9.18727 18.37 9.18039 18.5827 9.24224 18.7778C9.29034 18.9374 9.39341 19.0851 9.55146 19.1738L11.3518 20.0308L13.2209 20.8819L13.269 20.9056C14.0386 21.3016 14.5814 21.9163 14.8151 22.661C15.0006 23.2462 14.98 23.8727 14.7945 24.4578C14.5952 25.0607 14.2104 25.6163 13.6813 26.0478C13.2209 26.426 12.678 26.6979 12.0733 26.8575V28.5006H9.46213V26.8812C8.70626 26.7038 8.03972 26.3551 7.51748 25.835C6.87155 25.1848 6.54172 24.3455 6.52797 23.4944C6.52797 23.4176 6.52797 23.3407 6.53485 23.2698L9.14604 23.1812L9.13229 23.3526C9.13229 23.3939 9.13229 23.4294 9.13229 23.4649C9.13916 23.7899 9.24224 24.1268 9.49649 24.3751C9.77135 24.6529 10.1836 24.7652 10.5959 24.777C10.6509 24.7829 10.7059 24.7829 10.7609 24.7829C11.18 24.777 11.5854 24.6765 11.8878 24.4283C12.0802 24.2687 12.2107 24.0677 12.2863 23.855C12.3482 23.6599 12.3619 23.4471 12.3001 23.2462C12.2451 23.0866 12.142 22.9447 11.984 22.8502L10.1287 22.005L10.1081 21.999L8.28709 21.1361L8.26648 21.1184C7.48999 20.7283 6.95401 20.1077 6.72038 19.3689C6.53485 18.7837 6.55546 18.1513 6.74786 17.572C6.94027 16.9692 7.32507 16.4136 7.85418 15.9821C8.31458 15.6038 8.8643 15.3319 9.46213 15.1724V13.5292H12.0733V15.1487ZM6.06071 31.5387H15.4747V33.1877H6.06071V31.5387ZM25.2598 9.12588L36.5567 25.6518C37.4568 26.9639 36.9415 28.6661 35.416 29.4404L23.4251 35.5046C23.5626 35.1027 23.6313 34.6712 23.6313 34.228V15.0601C23.6313 14.0907 23.3083 13.2101 22.6555 12.4181L16.7735 5.28994L23.8031 8.00879C24.4421 8.25112 24.9094 8.61166 25.2598 9.12588ZM10.7677 0C11.2625 0 11.6679 0.348722 11.6679 0.774281V5.46725C11.6679 5.89281 11.2625 6.24153 10.7677 6.24153C10.273 6.24153 9.86755 5.89281 9.86755 5.46725V0.774281C9.86755 0.348722 10.273 0 10.7677 0Z" fill="#00B8F1"/>
</svg>
