<svg width="34" height="32" viewBox="0 0 34 32" fill="none" xmlns="http://www.w3.org/2000/svg">
<path d="M33.2456 13.6855L30.9334 11.2122C30.4914 10.7425 30.1344 9.86592 30.1344 9.23976V6.57859C30.1344 4.91926 28.6553 3.55737 26.8532 3.55737H23.963C23.2999 3.55737 22.3309 3.22863 21.8209 2.82163L19.1347 0.692689C17.9616 -0.230896 16.0405 -0.230896 14.8504 0.692689L12.1813 2.83728C11.6712 3.22863 10.7022 3.55737 10.0391 3.55737H7.09794C5.29583 3.55737 3.81674 4.91926 3.81674 6.57859V9.25542C3.81674 9.86592 3.45971 10.7425 3.03469 11.2122L0.739546 13.7011C-0.246515 14.7813 -0.246515 16.5345 0.739546 17.6146L3.03469 20.1036C3.45971 20.5732 3.81674 21.4499 3.81674 22.0604V24.7372C3.81674 26.3965 5.29583 27.7584 7.09794 27.7584H10.0391C10.7022 27.7584 11.6712 28.0872 12.1813 28.4942L14.8674 30.6231C16.0405 31.5467 17.9616 31.5467 19.1517 30.6231L21.8379 28.4942C22.3479 28.0872 23.2999 27.7584 23.98 27.7584H26.8702C28.6723 27.7584 30.1514 26.3965 30.1514 24.7372V22.076C30.1514 21.4655 30.5084 20.5732 30.9504 20.1036L33.2626 17.6303C34.2486 16.5502 34.2486 14.7656 33.2456 13.6855ZM24.9491 15.6579L22.9599 21.2307C22.7049 22.1543 21.6338 22.9057 20.5458 22.9057H17.4006C16.8565 22.9057 16.0915 22.7335 15.7515 22.4204L13.2523 20.6202C13.2013 21.6221 12.7083 22.0447 11.5012 22.0447H10.6852C9.42709 22.0447 8.91705 21.5908 8.91705 20.495V13.0124C8.91705 11.9166 9.42709 11.4626 10.6852 11.4626H11.5182C12.7763 11.4626 13.2863 11.9166 13.2863 13.0124V13.5759L16.5845 9.06757C16.9246 8.58229 17.7916 8.23791 18.5226 8.50403C19.3217 8.75449 19.8317 9.5685 19.6617 10.2886L19.2537 12.7306C19.2197 12.9498 19.2707 13.1533 19.4237 13.3098C19.5597 13.4507 19.7637 13.5446 19.9847 13.5446H23.2999C23.946 13.5446 24.49 13.7794 24.813 14.2021C25.1021 14.6091 25.1531 15.1257 24.9491 15.6579Z" fill="#00B8F1"/>
</svg>
