<svg width="82" height="14" viewBox="0 0 82 14" fill="none" xmlns="http://www.w3.org/2000/svg">
<path d="M24.0164 0.0498047L26.1609 4.11446L30.6893 4.89799L27.4863 8.19361L28.1405 12.7425L24.0164 10.7147L19.8922 12.7425L20.5464 8.19361L17.3434 4.89799L21.8718 4.11446L24.0164 0.0498047Z" fill="#00B8F1"/>
<path d="M41.0164 0.0498047L43.1609 4.11446L47.6893 4.89799L44.4863 8.19361L45.1405 12.7425L41.0164 10.7147L36.8922 12.7425L37.5464 8.19361L34.3434 4.89799L38.8718 4.11446L41.0164 0.0498047Z" fill="#00B8F1"/>
<path d="M58.0164 0.0498047L60.1609 4.11446L64.6893 4.89799L61.4863 8.19361L62.1405 12.7425L58.0164 10.7147L53.8922 12.7425L54.5464 8.19361L51.3434 4.89799L55.8718 4.11446L58.0164 0.0498047Z" fill="#00B8F1"/>
<path d="M75.0164 0.0498047L77.1609 4.11446L81.6893 4.89799L78.4863 8.19361L79.1405 12.7425L75.0164 10.7147L70.8922 12.7425L71.5464 8.19361L68.3434 4.89799L72.8718 4.11446L75.0164 0.0498047Z" fill="#00B8F1"/>
<path d="M7.01636 0.0498047L9.1609 4.11446L13.6893 4.89799L10.4863 8.19361L11.1405 12.7425L7.01636 10.7147L2.89225 12.7425L3.54642 8.19361L0.343405 4.89799L4.87182 4.11446L7.01636 0.0498047Z" fill="#00B8F1"/>
</svg>
