<svg width="1440" height="878" viewBox="0 0 1440 878" fill="none" xmlns="http://www.w3.org/2000/svg">
<g clip-path="url(#clip0_46_92)">
<rect width="1440" height="878" fill="#FCFCFC"/>
<path d="M360.875 1.1958V150.826C360.62 151.065 360.364 151.304 360.108 151.567V1.1958H360.875Z" stroke="#6DDCFF" stroke-opacity="0.1" stroke-miterlimit="10"/>
<path d="M360.875 285.962V439.012H360.108V285.22C360.364 285.483 360.62 285.722 360.875 285.962Z" stroke="#6DDCFF" stroke-opacity="0.1" stroke-miterlimit="10"/>
<path d="M360.875 439.012V585.054C360.62 584.815 360.364 584.576 360.108 584.36V439.012H360.875Z" stroke="#6DDCFF" stroke-opacity="0.1" stroke-miterlimit="10"/>
<path d="M360.108 720.884C360.364 720.669 360.62 720.429 360.875 720.166V876.804H360.108V720.884Z" stroke="#6DDCFF" stroke-opacity="0.1" stroke-miterlimit="10"/>
<path d="M360.875 1.1958V150.826C360.62 151.065 360.364 151.304 360.108 151.567V1.1958H360.875Z" stroke="#6DDCFF" stroke-opacity="0.1" stroke-miterlimit="10"/>
<path d="M360.108 285.22C360.364 285.483 360.62 285.722 360.875 285.962V439.012H360.108V285.22Z" stroke="#6DDCFF" stroke-opacity="0.1" stroke-miterlimit="10"/>
<path d="M360.108 439.012H360.875V585.054C360.62 584.815 360.364 584.576 360.108 584.36V439.012Z" stroke="#6DDCFF" stroke-opacity="0.1" stroke-miterlimit="10"/>
<path d="M360.108 720.884C360.364 720.669 360.62 720.429 360.875 720.166V876.804H360.108V720.884Z" stroke="#6DDCFF" stroke-opacity="0.1" stroke-miterlimit="10"/>
<path d="M247.098 652.622C247.098 699.932 278.634 738.32 317.543 738.32C333.527 738.32 348.292 731.838 360.109 720.884V876.804H0.983398V439.012H127.226C117.828 424.446 112.225 406.077 112.225 386.13C112.225 338.796 143.761 300.432 182.669 300.432C221.578 300.432 253.114 338.796 253.114 386.13C253.114 406.077 247.511 424.446 238.113 439.012H360.109V584.361C348.292 573.406 333.527 566.925 317.543 566.925C278.634 566.925 247.098 605.289 247.098 652.622Z" stroke="#6DDCFF" stroke-opacity="0.1" stroke-miterlimit="10"/>
<path d="M720 439.012H595.744C604.414 453.267 609.526 470.87 609.526 489.933C609.526 537.266 577.99 575.631 539.081 575.631C500.172 575.631 468.636 537.266 468.636 489.933C468.636 470.87 473.748 453.267 482.418 439.012H360.875V285.962C372.829 297.323 387.869 304.091 404.208 304.091C443.116 304.091 474.652 265.727 474.652 218.394C474.652 171.06 443.116 132.696 404.208 132.696C387.869 132.696 372.829 139.465 360.875 150.826V1.1958H720V439.012Z" stroke="#6DDCFF" stroke-opacity="0.1" stroke-miterlimit="10"/>
<path d="M720 439.012V876.804H360.875V720.166C360.619 720.429 360.364 720.668 360.108 720.883C348.292 731.838 333.527 738.32 317.542 738.32C278.634 738.32 247.098 699.931 247.098 652.622C247.098 605.312 278.634 566.924 317.542 566.924C333.527 566.924 348.292 573.406 360.108 584.36C360.364 584.576 360.619 584.815 360.875 585.054V439.012H482.418C473.748 453.267 468.636 470.87 468.636 489.933C468.636 537.266 500.172 575.63 539.081 575.63C577.99 575.63 609.526 537.266 609.526 489.933C609.526 470.87 604.414 453.267 595.744 439.012H720Z" stroke="#6DDCFF" stroke-opacity="0.1" stroke-miterlimit="10"/>
<path d="M474.653 218.394C474.653 265.727 443.117 304.091 404.208 304.091C387.87 304.091 372.829 297.323 360.875 285.962C360.62 285.722 360.364 285.483 360.108 285.22V439.012H238.113C247.511 424.446 253.114 406.077 253.114 386.13C253.114 338.796 221.578 300.432 182.669 300.432C143.76 300.432 112.224 338.796 112.224 386.13C112.224 406.077 117.828 424.446 127.226 439.012H0.983398V1.1958H360.108V151.567C360.364 151.304 360.62 151.065 360.875 150.826C372.829 139.465 387.87 132.696 404.208 132.696C443.117 132.696 474.653 171.06 474.653 218.394Z" stroke="#6DDCFF" stroke-opacity="0.1" stroke-miterlimit="10"/>
<path d="M1079.89 1.1958V150.826C1079.64 151.065 1079.38 151.304 1079.12 151.567V1.1958H1079.89Z" stroke="#6DDCFF" stroke-opacity="0.1" stroke-miterlimit="10"/>
<path d="M1079.89 285.962V439.012H1079.12V285.22C1079.38 285.483 1079.64 285.722 1079.89 285.962Z" stroke="#6DDCFF" stroke-opacity="0.1" stroke-miterlimit="10"/>
<path d="M1079.89 439.012V585.054C1079.64 584.815 1079.38 584.576 1079.12 584.36V439.012H1079.89Z" stroke="#6DDCFF" stroke-opacity="0.1" stroke-miterlimit="10"/>
<path d="M1079.12 720.884C1079.38 720.669 1079.64 720.429 1079.89 720.166V876.804H1079.12V720.884Z" stroke="#6DDCFF" stroke-opacity="0.1" stroke-miterlimit="10"/>
<path d="M1079.89 1.1958V150.826C1079.64 151.065 1079.38 151.304 1079.12 151.567V1.1958H1079.89Z" stroke="#6DDCFF" stroke-opacity="0.1" stroke-miterlimit="10"/>
<path d="M1079.12 285.22C1079.38 285.483 1079.64 285.722 1079.89 285.962V439.012H1079.12V285.22Z" stroke="#6DDCFF" stroke-opacity="0.1" stroke-miterlimit="10"/>
<path d="M1079.12 439.012H1079.89V585.054C1079.64 584.815 1079.38 584.576 1079.12 584.36V439.012Z" stroke="#6DDCFF" stroke-opacity="0.1" stroke-miterlimit="10"/>
<path d="M1079.12 720.884C1079.38 720.669 1079.64 720.429 1079.89 720.166V876.804H1079.12V720.884Z" stroke="#6DDCFF" stroke-opacity="0.1" stroke-miterlimit="10"/>
<path d="M966.115 652.622C966.115 699.932 997.651 738.32 1036.56 738.32C1052.54 738.32 1067.31 731.838 1079.13 720.884V876.804H720V439.012H846.242C836.844 424.446 831.241 406.077 831.241 386.13C831.241 338.796 862.777 300.432 901.686 300.432C940.595 300.432 972.131 338.796 972.131 386.13C972.131 406.077 966.527 424.446 957.13 439.012H1079.13V584.361C1067.31 573.406 1052.54 566.925 1036.56 566.925C997.651 566.925 966.115 605.289 966.115 652.622Z" stroke="#6DDCFF" stroke-opacity="0.1" stroke-miterlimit="10"/>
<path d="M1439.02 439.012H1314.76C1323.43 453.267 1328.54 470.87 1328.54 489.933C1328.54 537.266 1297.01 575.631 1258.1 575.631C1219.19 575.631 1187.65 537.266 1187.65 489.933C1187.65 470.87 1192.76 453.267 1201.44 439.012H1079.89V285.962C1091.85 297.323 1106.89 304.091 1123.22 304.091C1162.13 304.091 1193.67 265.727 1193.67 218.394C1193.67 171.06 1162.13 132.696 1123.22 132.696C1106.89 132.696 1091.85 139.465 1079.89 150.826V1.1958H1439.02V439.012Z" stroke="#6DDCFF" stroke-opacity="0.1" stroke-miterlimit="10"/>
<path d="M1439.02 439.012V876.804H1079.89V720.166C1079.64 720.429 1079.38 720.668 1079.12 720.883C1067.31 731.838 1052.54 738.32 1036.56 738.32C997.65 738.32 966.114 699.931 966.114 652.622C966.114 605.312 997.65 566.924 1036.56 566.924C1052.54 566.924 1067.31 573.406 1079.12 584.36C1079.38 584.576 1079.64 584.815 1079.89 585.054V439.012H1201.43C1192.76 453.267 1187.65 470.87 1187.65 489.933C1187.65 537.266 1219.19 575.63 1258.1 575.63C1297.01 575.63 1328.54 537.266 1328.54 489.933C1328.54 470.87 1323.43 453.267 1314.76 439.012H1439.02Z" stroke="#6DDCFF" stroke-opacity="0.1" stroke-miterlimit="10"/>
<path d="M1193.67 218.394C1193.67 265.727 1162.13 304.091 1123.22 304.091C1106.89 304.091 1091.85 297.323 1079.89 285.962C1079.64 285.722 1079.38 285.483 1079.13 285.22V439.012H957.13C966.527 424.446 972.131 406.077 972.131 386.13C972.131 338.796 940.595 300.432 901.686 300.432C862.777 300.432 831.241 338.796 831.241 386.13C831.241 406.077 836.844 424.446 846.242 439.012H720V1.1958H1079.13V151.567C1079.38 151.304 1079.64 151.065 1079.89 150.826C1091.85 139.465 1106.89 132.696 1123.22 132.696C1162.13 132.696 1193.67 171.06 1193.67 218.394Z" stroke="#6DDCFF" stroke-opacity="0.1" stroke-miterlimit="10"/>
</g>
<defs>
<clipPath id="clip0_46_92">
<rect width="1440" height="878" fill="white"/>
</clipPath>
</defs>
</svg>
