<svg width="12" height="13" viewBox="0 0 12 13" fill="none" xmlns="http://www.w3.org/2000/svg">
<path d="M2.47504 11.8075L9.17702 4.53746L9.1857 10.4353C9.18667 11.1347 9.75455 11.7009 10.454 11.6999C10.8037 11.6993 11.1201 11.5571 11.349 11.3276C11.5779 11.098 11.7191 10.7812 11.7185 10.4315L11.7054 1.47623C11.7044 0.776828 11.1365 0.210616 10.437 0.211646L1.48179 0.22483C0.782448 0.22586 0.216236 0.793741 0.217206 1.49315C0.218176 2.19255 0.786058 2.75876 1.48552 2.75773L7.38333 2.74905L0.681352 10.0191C0.187512 10.5144 0.188693 11.3163 0.68399 11.8102C1.17929 12.304 1.9812 12.3028 2.47504 11.8075Z" fill="#232323"/>
</svg>
