<svg width="106" height="111" viewBox="0 0 106 111" fill="none" xmlns="http://www.w3.org/2000/svg">
<path d="M4.56286 41.1857C8.32286 45.8457 14.4328 48.2057 18.0028 53.0057C22.0628 58.4657 22.0329 65.7957 22.9829 72.5357C24.4429 82.8657 28.6429 92.8057 35.0429 101.046C38.1529 105.056 41.9928 108.806 46.8728 110.206C53.1428 112.006 59.8829 109.566 65.4229 106.116C84.5529 94.1757 97.7129 76.8757 103.303 55.0257C111.063 24.6757 99.0529 12.6457 89.5429 11.6857C82.7729 11.0057 76.1729 13.0857 69.4029 13.8357C52.2229 15.7457 40.4529 -4.05432 23.6729 0.755682C9.22286 4.89568 -6.24714 27.7857 4.56286 41.1857Z" fill="url(#paint0_linear_0_9)"/>
<defs>
<linearGradient id="paint0_linear_0_9" x1="15.5329" y1="72.4346" x2="98.9587" y2="15.9746" gradientUnits="userSpaceOnUse">
<stop offset="0.00360327" stop-color="#F8EC3B"/>
<stop offset="1" stop-color="#F4855C"/>
</linearGradient>
</defs>
</svg>
