<svg width="98" height="119" viewBox="0 0 98 119" fill="none" xmlns="http://www.w3.org/2000/svg">
<path d="M4.97881 53.0817C10.4488 60.4117 19.9988 64.5517 24.6488 72.3817C28.5188 78.9017 28.3488 86.8817 28.7988 94.4417C29.2488 102.002 30.7888 110.172 36.8688 114.952C41.6788 118.732 48.6288 119.642 54.9988 118.452C62.9588 116.962 70.1788 112.482 75.7088 106.782C81.2288 101.082 85.1788 94.2117 88.2788 87.1617C97.0088 67.3317 101.269 43.8217 91.2288 25.3717C73.7188 -6.80831 40.4388 -3.34831 15.6588 12.9017C1.84882 21.9517 -3.49119 41.7217 4.97881 53.0817Z" fill="url(#paint0_linear_0_6)"/>
<defs>
<linearGradient id="paint0_linear_0_6" x1="9.59664" y1="71.99" x2="98.1485" y2="44.8437" gradientUnits="userSpaceOnUse">
<stop offset="0.00360327" stop-color="#EC2C91"/>
<stop offset="1" stop-color="#F4855C"/>
</linearGradient>
</defs>
</svg>
