<svg width="103" height="112" viewBox="0 0 103 112" fill="none" xmlns="http://www.w3.org/2000/svg">
<path d="M63.0833 2.20614C56.6933 4.93614 51.1433 9.26614 45.1633 12.8061C35.6233 18.4661 24.9433 22.1361 15.8433 28.4961C6.75329 34.8461 -0.886713 45.0161 0.0832869 56.0661C0.873287 65.1261 7.20329 72.7061 13.8933 78.8661C24.4533 88.5761 36.6133 96.3861 49.1333 103.396C54.5533 106.436 60.1533 109.366 66.2433 110.616C72.3333 111.866 79.0633 111.236 84.1133 107.626C88.9333 104.186 91.6433 98.5561 93.8433 93.0561C102.823 70.6861 106.673 45.1061 98.2533 22.5161C92.5033 7.05614 80.2133 -5.11386 63.0833 2.20614Z" fill="url(#paint0_linear_0_3)"/>
<defs>
<linearGradient id="paint0_linear_0_3" x1="0.00358688" y1="55.612" x2="102.947" y2="55.612" gradientUnits="userSpaceOnUse">
<stop offset="0.00330012" stop-color="#00E9E6"/>
<stop offset="0.1297" stop-color="#02E3E6"/>
<stop offset="0.2967" stop-color="#0AD3E8"/>
<stop offset="0.4863" stop-color="#15B7E9"/>
<stop offset="0.6926" stop-color="#2591EC"/>
<stop offset="0.91" stop-color="#3A60F0"/>
<stop offset="0.9967" stop-color="#434BF1"/>
</linearGradient>
</defs>
</svg>
