<svg width="48" height="45" viewBox="0 0 48 45" fill="none" xmlns="http://www.w3.org/2000/svg">
<g id="gitlab" clip-path="url(#clip0_54_1984)">
<path id="Vector" d="M24.014 44.264L32.846 17.082H15.182L24.014 44.264Z" fill="#E24329"/>
<path id="Vector_2" d="M24.014 44.264L15.182 17.082H2.8042L24.014 44.264Z" fill="#FC6D26"/>
<path id="Vector_3" d="M2.80428 17.082L0.120393 25.3424C-0.124407 26.0957 0.143707 26.9211 0.784621 27.3867L24.0141 44.264L2.80428 17.082Z" fill="#FCA326"/>
<path id="Vector_4" d="M2.8042 17.0821H15.182L9.86248 0.710657C9.58888 -0.131857 8.39711 -0.131628 8.12351 0.710657L2.8042 17.0821Z" fill="#E24329"/>
<path id="Vector_5" d="M24.014 44.264L32.846 17.082H45.2239L24.014 44.264Z" fill="#FC6D26"/>
<path id="Vector_6" d="M45.2239 17.082L47.9078 25.3424C48.1526 26.0957 47.8844 26.9211 47.2435 27.3867L24.014 44.264L45.2239 17.082Z" fill="#FCA326"/>
<path id="Vector_7" d="M45.2239 17.0821H32.8461L38.1656 0.710657C38.4392 -0.131857 39.631 -0.131628 39.9046 0.710657L45.2239 17.0821Z" fill="#E24329"/>
</g>
<defs>
<clipPath id="clip0_54_1984">
<rect width="48" height="44.25" fill="white"/>
</clipPath>
</defs>
</svg>
