<svg width="60" height="32" viewBox="0 0 60 32" fill="none" xmlns="http://www.w3.org/2000/svg">
<path d="M30 31.5643C46.5685 31.5643 60 24.4984 60 15.7821C60 7.06591 46.5685 0 30 0C13.4315 0 0 7.06591 0 15.7821C0 24.4984 13.4315 31.5643 30 31.5643Z" fill="url(#paint0_radial_983_182)"/>
<path d="M29.9997 30.3919C45.9209 30.3919 58.8276 23.8508 58.8276 15.7819C58.8276 7.71299 45.9209 1.17188 29.9997 1.17188C14.0785 1.17188 1.17188 7.71299 1.17188 15.7819C1.17188 23.8508 14.0785 30.3919 29.9997 30.3919Z" fill="#6280B6"/>
<path d="M35.8397 20.4965L37.269 13.138C37.4726 12.5082 37.5061 11.8358 37.3661 11.1889C37.2262 10.542 36.9176 9.94363 36.4719 9.45439C35.2276 8.57084 33.704 8.1709 32.1861 8.32939H29.7154L30.4247 4.68654C30.4376 4.61871 30.4354 4.54886 30.4183 4.48198C30.4011 4.4151 30.3694 4.35283 30.3254 4.29962C30.2814 4.24641 30.2262 4.20356 30.1637 4.17414C30.1012 4.14471 30.0331 4.12943 29.964 4.12939H26.5354C26.4266 4.12936 26.3211 4.16718 26.237 4.23637C26.153 4.30557 26.0956 4.40183 26.0747 4.50868L24.5554 12.3215C24.4385 11.4862 24.0837 10.7021 23.5333 10.063C22.9205 9.44927 22.1812 8.97661 21.367 8.67795C20.5528 8.37928 19.6833 8.2618 18.819 8.33368H12.2147C12.1059 8.33365 12.0004 8.37147 11.9163 8.44066C11.8323 8.50986 11.7749 8.60612 11.754 8.71297L8.68115 24.5272C8.66822 24.5951 8.67042 24.6649 8.68759 24.7318C8.70476 24.7987 8.73648 24.861 8.78048 24.9142C8.82449 24.9674 8.87969 25.0102 8.94216 25.0396C9.00462 25.0691 9.07281 25.0844 9.14186 25.0844H12.5769C12.6857 25.0844 12.7912 25.0466 12.8753 24.9774C12.9593 24.9082 13.0167 24.812 13.0376 24.7051L13.7811 20.8801H16.3526C17.4879 20.9104 18.6212 20.7659 19.7126 20.4515C20.6328 20.1471 21.4743 19.6429 22.1769 18.9751C22.7526 18.4507 23.2441 17.8407 23.634 17.1665L23.019 20.3273C23.0061 20.3951 23.0083 20.4649 23.0255 20.5318C23.0426 20.5987 23.0743 20.661 23.1183 20.7142C23.1623 20.7674 23.2175 20.8102 23.28 20.8397C23.3425 20.8691 23.4107 20.8844 23.4797 20.8844H26.9083C27.0172 20.8844 27.1227 20.8466 27.2067 20.7774C27.2908 20.7082 27.3481 20.612 27.369 20.5051L29.0554 11.8244H31.3997C32.3983 11.8244 32.6854 12.0237 32.7711 12.1094C32.8569 12.1951 32.9854 12.463 32.8247 13.3287L31.464 20.3251C31.4511 20.3929 31.4533 20.4628 31.4704 20.5297C31.4876 20.5965 31.5193 20.6588 31.5633 20.712C31.6073 20.7652 31.6625 20.8081 31.725 20.8375C31.7875 20.8669 31.8557 20.8822 31.9247 20.8822H35.3961C35.503 20.8781 35.6051 20.8376 35.6858 20.7674C35.7665 20.6973 35.8208 20.6017 35.8397 20.4965ZM19.9933 14.4237C19.8885 15.3233 19.4614 16.1546 18.7911 16.7637C17.9492 17.2874 16.9619 17.5284 15.9733 17.4515H14.4476L15.5511 11.7708H17.5247C18.9754 11.7708 19.5583 12.0815 19.794 12.3408C19.9738 12.6537 20.0846 13.0015 20.119 13.3607C20.1534 13.7199 20.1105 14.0824 19.9933 14.4237Z" fill="white"/>
<path d="M50.4554 10.065C49.8426 9.4513 49.1034 8.97864 48.2891 8.67998C47.4749 8.38131 46.6054 8.26382 45.7411 8.33571H39.1175C39.0087 8.33567 38.9032 8.37349 38.8191 8.44269C38.7351 8.51188 38.6777 8.60815 38.6568 8.71499L35.584 24.5293C35.5711 24.5971 35.5733 24.667 35.5904 24.7338C35.6076 24.8007 35.6393 24.863 35.6833 24.9162C35.7273 24.9694 35.7825 25.0123 35.845 25.0417C35.9075 25.0711 35.9756 25.0864 36.0447 25.0864H39.4904C39.5993 25.0865 39.7048 25.0486 39.7888 24.9794C39.8729 24.9102 39.9302 24.814 39.9511 24.7071L40.6947 20.8821H43.2661C44.4015 20.9125 45.5347 20.7679 46.6261 20.4536C47.5463 20.1491 48.3879 19.6449 49.0904 18.9771C50.2936 17.8928 51.1042 16.441 51.3961 14.8479C51.6267 14.0328 51.6616 13.1749 51.4982 12.3438C51.3347 11.5128 50.9774 10.732 50.4554 10.065ZM46.8833 14.4236C46.7785 15.3232 46.3514 16.1544 45.6811 16.7636C44.8371 17.2879 43.8473 17.5282 42.8568 17.4493H41.3354L42.439 11.7686H44.4125C45.8633 11.7686 46.4461 12.0793 46.6818 12.3386C46.8623 12.6516 46.9737 12.9996 47.0084 13.3592C47.0431 13.7189 47.0005 14.0818 46.8833 14.4236Z" fill="white"/>
<path d="M17.5249 11.299C17.9873 11.2408 18.4566 11.2748 18.9057 11.3992C19.3548 11.5235 19.7748 11.7356 20.1413 12.0233C20.3779 12.3875 20.5288 12.8006 20.5826 13.2315C20.6364 13.6624 20.5918 14.1 20.4521 14.5111C20.3296 15.5236 19.8401 16.456 19.0763 17.1319C18.1552 17.7252 17.0663 18.0034 15.9735 17.9247H13.8778L15.1635 11.3054L17.5249 11.299ZM9.13135 24.619H12.5771L13.3935 20.4147H16.3442C17.4303 20.4444 18.5145 20.3063 19.5585 20.0054C20.4153 19.7225 21.1985 19.2526 21.8513 18.6297C22.9814 17.6132 23.7425 16.2507 24.0156 14.7554C24.2319 14.0119 24.2699 13.2278 24.1265 12.4668C23.9832 11.7059 23.6626 10.9894 23.1906 10.3754C22.6216 9.81257 21.9366 9.38063 21.1834 9.10972C20.4303 8.8388 19.6271 8.73545 18.8299 8.80686H12.2149L9.13135 24.619Z" fill="#000004"/>
<path d="M26.544 4.60059H29.9726L29.1433 8.80487H32.1883C33.5868 8.6585 34.9919 9.01394 36.1526 9.80773C36.5368 10.2444 36.7994 10.7744 36.9141 11.3446C37.0288 11.9147 36.9916 12.505 36.8062 13.0563L35.3769 20.4149H31.9076L33.2683 13.4184C33.3631 13.1514 33.3969 12.8665 33.3672 12.5847C33.3375 12.3029 33.2452 12.0313 33.0969 11.7899C32.6007 11.4344 31.9877 11.2812 31.3826 11.3613H28.6504L26.889 20.4213H23.4604L26.544 4.60059Z" fill="#000004"/>
<path d="M44.4151 11.299C44.8774 11.2408 45.3467 11.2748 45.7958 11.3992C46.2449 11.5235 46.6649 11.7356 47.0315 12.0233C47.268 12.3875 47.4189 12.8006 47.4727 13.2315C47.5265 13.6624 47.4819 14.1 47.3422 14.5111C47.2197 15.5236 46.7302 16.456 45.9665 17.1319C45.0435 17.7265 43.9522 18.0048 42.8572 17.9247H40.7615L42.0472 11.3054L44.4151 11.299ZM36.0215 24.619H39.4672L40.2836 20.4147H43.2343C44.3204 20.4444 45.4046 20.3063 46.4486 20.0054C47.3055 19.7225 48.0886 19.2526 48.7415 18.6297C49.8715 17.6132 50.6327 16.2507 50.9058 14.7554C51.122 14.0119 51.16 13.2278 51.0167 12.4668C50.8733 11.7059 50.5527 10.9894 50.0808 10.3754C49.5117 9.81257 48.8267 9.38063 48.0736 9.10972C47.3204 8.8388 46.5173 8.73545 45.7201 8.80686H39.0943L36.0215 24.619Z" fill="#000004"/>
<defs>
<radialGradient id="paint0_radial_983_182" cx="0" cy="0" r="1" gradientUnits="userSpaceOnUse" gradientTransform="translate(18.0129 5.55) scale(39.3943)">
<stop stop-color="white"/>
<stop offset="0.5" stop-color="#4C6B96"/>
<stop offset="1" stop-color="#231F20"/>
</radialGradient>
</defs>
</svg>
