<svg width="48" height="29" viewBox="0 0 48 29" fill="none" xmlns="http://www.w3.org/2000/svg">
<g id="nextjs" clip-path="url(#clip0_54_1961)">
<path id="Vector" d="M11.326 7.55262H20.3792V8.27219H12.1559V13.6879H19.8888V14.4074H12.1559V20.3533H20.4735V21.0728H11.326V7.55262ZM21.1902 7.55262H22.1521L26.4147 13.4985L30.7716 7.55262L36.6976 0L26.9617 14.1234L31.9787 21.0728H30.9791L26.4147 14.7483L21.8315 21.0728H20.8507L25.9055 14.1234L21.1902 7.55262ZM32.337 8.27219V7.55262H42.654V8.27219H37.901V21.0728H37.0711V8.27219H32.337ZM0 7.55262H1.03735L15.3418 28.9579L9.43046 21.0728L0.867602 8.57516L0.82988 21.0728H0L0 7.55262ZM42.5703 20.1361C42.4008 20.1361 42.2736 20.0048 42.2736 19.835C42.2736 19.6652 42.4008 19.5339 42.5703 19.5339C42.7419 19.5339 42.8671 19.6652 42.8671 19.835C42.8671 20.0048 42.7419 20.1361 42.5703 20.1361ZM43.3858 19.3439H43.8299C43.8359 19.5844 44.0115 19.7461 44.2699 19.7461C44.5585 19.7461 44.722 19.5723 44.722 19.2469V17.1853H45.1742V19.2489C45.1742 19.835 44.8351 20.1725 44.2739 20.1725C43.7471 20.1725 43.3858 19.8451 43.3858 19.3439ZM45.7656 19.3176H46.2137C46.252 19.5945 46.5225 19.7703 46.912 19.7703C47.2754 19.7703 47.5418 19.5824 47.5418 19.3237C47.5418 19.1013 47.3723 18.9679 46.9867 18.877L46.6113 18.7861C46.0845 18.6628 45.8443 18.4081 45.8443 17.9796C45.8443 17.4602 46.2682 17.1146 46.904 17.1146C47.4954 17.1146 47.9273 17.4602 47.9536 17.9513H47.5135C47.4712 17.6825 47.237 17.5148 46.8979 17.5148C46.5407 17.5148 46.3025 17.6866 46.3025 17.9493C46.3025 18.1575 46.4559 18.2767 46.8354 18.3657L47.1563 18.4445C47.7537 18.5839 48 18.8265 48 19.265C48 19.8229 47.5681 20.1725 46.8777 20.1725C46.2318 20.1725 45.7979 19.839 45.7656 19.3176Z" fill="black"/>
</g>
<defs>
<clipPath id="clip0_54_1961">
<rect width="48" height="28.9688" fill="white"/>
</clipPath>
</defs>
</svg>
