<svg width="48" height="48" viewBox="0 0 48 48" fill="none" xmlns="http://www.w3.org/2000/svg">
<g id="icons8-kubernetes">
<path id="Vector" d="M25.875 24.208C25.977 24.339 26.02 24.528 25.991 24.703L25.715 25.911C25.686 26.1 25.555 26.246 25.396 26.333L24.278 26.857C24.118 26.944 23.915 26.944 23.755 26.857L22.637 26.333C22.477 26.246 22.347 26.1 22.318 25.911L22.042 24.703C22.013 24.528 22.057 24.339 22.158 24.208L22.942 23.233C23.043 23.087 23.218 23 23.406 23H24.626C24.815 23 24.989 23.087 25.091 23.233L25.875 24.208Z" fill="#0277BD"/>
<path id="Vector_2" d="M25.3119 15.33L25.3599 15.705C25.4939 16.742 25.5899 17.79 25.6859 18.827C25.7239 19.24 25.7629 19.644 25.7909 20.057C25.8099 20.374 26.1649 20.537 26.4239 20.355C26.7499 20.115 27.0859 19.875 27.4309 19.644C28.2939 19.058 29.1469 18.472 30.0289 17.905L30.3549 17.703C28.9839 16.454 27.2389 15.599 25.3119 15.33ZM25.3119 15.33L25.3599 15.705C25.4939 16.742 25.5899 17.79 25.6859 18.827C25.7239 19.24 25.7629 19.644 25.7909 20.057C25.8099 20.374 26.1649 20.537 26.4239 20.355C26.7499 20.115 27.0859 19.875 27.4309 19.644C28.2939 19.058 29.1469 18.472 30.0289 17.905L30.3549 17.703C28.9839 16.454 27.2389 15.599 25.3119 15.33ZM25.3119 15.33L25.3599 15.705C25.4939 16.742 25.5899 17.79 25.6859 18.827C25.7239 19.24 25.7629 19.644 25.7909 20.057C25.8099 20.374 26.1649 20.537 26.4239 20.355C26.7499 20.115 27.0859 19.875 27.4309 19.644C28.2939 19.058 29.1469 18.472 30.0289 17.905L30.3549 17.703C28.9839 16.454 27.2389 15.599 25.3119 15.33ZM25.3119 15.33L25.3599 15.705C25.4939 16.742 25.5899 17.79 25.6859 18.827C25.7239 19.24 25.7629 19.644 25.7909 20.057C25.8099 20.374 26.1649 20.537 26.4239 20.355C26.7499 20.115 27.0859 19.875 27.4309 19.644C28.2939 19.058 29.1469 18.472 30.0289 17.905L30.3549 17.703C28.9839 16.454 27.2389 15.599 25.3119 15.33ZM25.3119 15.33L25.3599 15.705C25.4939 16.742 25.5899 17.79 25.6859 18.827C25.7239 19.24 25.7629 19.644 25.7909 20.057C25.8099 20.374 26.1649 20.537 26.4239 20.355C26.7499 20.115 27.0859 19.875 27.4309 19.644C28.2939 19.058 29.1469 18.472 30.0289 17.905L30.3549 17.703C28.9839 16.454 27.2389 15.599 25.3119 15.33ZM32.1189 19.835L31.8599 20.114C31.1409 20.883 30.4029 21.622 29.6639 22.362C29.1939 22.842 28.6859 23.303 28.1969 23.774C28.8489 23.937 29.5009 24.11 30.1529 24.302C31.1599 24.59 32.1569 24.869 33.1539 25.195L33.5089 25.31C33.5189 25.156 33.5189 24.993 33.5189 24.83C33.5189 22.996 33.0109 21.286 32.1189 19.835ZM32.1189 19.835L31.8599 20.114C31.1409 20.883 30.4029 21.622 29.6639 22.362C29.1939 22.842 28.6859 23.303 28.1969 23.774C28.8489 23.937 29.5009 24.11 30.1529 24.302C31.1599 24.59 32.1569 24.869 33.1539 25.195L33.5089 25.31C33.5189 25.156 33.5189 24.993 33.5189 24.83C33.5189 22.996 33.0109 21.286 32.1189 19.835ZM25.3119 15.33L25.3599 15.705C25.4939 16.742 25.5899 17.79 25.6859 18.827C25.7239 19.24 25.7629 19.644 25.7909 20.057C25.8099 20.374 26.1649 20.537 26.4239 20.355C26.7499 20.115 27.0859 19.875 27.4309 19.644C28.2939 19.058 29.1469 18.472 30.0289 17.905L30.3549 17.703C28.9839 16.454 27.2389 15.599 25.3119 15.33ZM25.3119 15.33L25.3599 15.705C25.4939 16.742 25.5899 17.79 25.6859 18.827C25.7239 19.24 25.7629 19.644 25.7909 20.057C25.8099 20.374 26.1649 20.537 26.4239 20.355C26.7499 20.115 27.0859 19.875 27.4309 19.644C28.2939 19.058 29.1469 18.472 30.0289 17.905L30.3549 17.703C28.9839 16.454 27.2389 15.599 25.3119 15.33ZM32.6269 28.02C31.5819 27.953 30.5459 27.857 29.5009 27.761C29.0499 27.723 28.6089 27.675 28.1589 27.626C27.8709 27.588 27.6409 27.876 27.7469 28.154C27.9099 28.586 28.0629 29.019 28.2169 29.461C28.5529 30.441 28.8979 31.43 29.2139 32.429L29.3189 32.775C30.9869 31.632 32.2819 29.98 32.9619 28.039L32.6269 28.02ZM32.1189 19.835L31.8599 20.114C31.1409 20.883 30.4029 21.622 29.6639 22.362C29.1939 22.842 28.6859 23.303 28.1969 23.774C28.8489 23.937 29.5009 24.11 30.1529 24.302C31.1599 24.59 32.1569 24.869 33.1539 25.195L33.5089 25.31C33.5189 25.156 33.5189 24.993 33.5189 24.83C33.5189 22.996 33.0109 21.286 32.1189 19.835ZM32.1189 19.835L31.8599 20.114C31.1409 20.883 30.4029 21.622 29.6639 22.362C29.1939 22.842 28.6859 23.303 28.1969 23.774C28.8489 23.937 29.5009 24.11 30.1529 24.302C31.1599 24.59 32.1569 24.869 33.1539 25.195L33.5089 25.31C33.5189 25.156 33.5189 24.993 33.5189 24.83C33.5189 22.996 33.0109 21.286 32.1189 19.835ZM32.6269 28.02C31.5819 27.953 30.5459 27.857 29.5009 27.761C29.0499 27.723 28.6089 27.675 28.1589 27.626C27.8709 27.588 27.6409 27.876 27.7469 28.154C27.9099 28.586 28.0629 29.019 28.2169 29.461C28.5529 30.441 28.8979 31.43 29.2139 32.429L29.3189 32.775C30.9869 31.632 32.2819 29.98 32.9619 28.039L32.6269 28.02ZM25.3119 15.33L25.3599 15.705C25.4939 16.742 25.5899 17.79 25.6859 18.827C25.7239 19.24 25.7629 19.644 25.7909 20.057C25.8099 20.374 26.1649 20.537 26.4239 20.355C26.7499 20.115 27.0859 19.875 27.4309 19.644C28.2939 19.058 29.1469 18.472 30.0289 17.905L30.3549 17.703C28.9839 16.454 27.2389 15.599 25.3119 15.33ZM25.3119 15.33L25.3599 15.705C25.4939 16.742 25.5899 17.79 25.6859 18.827C25.7239 19.24 25.7629 19.644 25.7909 20.057C25.8099 20.374 26.1649 20.537 26.4239 20.355C26.7499 20.115 27.0859 19.875 27.4309 19.644C28.2939 19.058 29.1469 18.472 30.0289 17.905L30.3549 17.703C28.9839 16.454 27.2389 15.599 25.3119 15.33ZM32.6269 28.02C31.5819 27.953 30.5459 27.857 29.5009 27.761C29.0499 27.723 28.6089 27.675 28.1589 27.626C27.8709 27.588 27.6409 27.876 27.7469 28.154C27.9099 28.586 28.0629 29.019 28.2169 29.461C28.5529 30.441 28.8979 31.43 29.2139 32.429L29.3189 32.775C30.9869 31.632 32.2819 29.98 32.9619 28.039L32.6269 28.02ZM32.1189 19.835L31.8599 20.114C31.1409 20.883 30.4029 21.622 29.6639 22.362C29.1939 22.842 28.6859 23.303 28.1969 23.774C28.8489 23.937 29.5009 24.11 30.1529 24.302C31.1599 24.59 32.1569 24.869 33.1539 25.195L33.5089 25.31C33.5189 25.156 33.5189 24.993 33.5189 24.83C33.5189 22.996 33.0109 21.286 32.1189 19.835ZM32.1189 19.835L31.8599 20.114C31.1409 20.883 30.4029 21.622 29.6639 22.362C29.1939 22.842 28.6859 23.303 28.1969 23.774C28.8489 23.937 29.5009 24.11 30.1529 24.302C31.1599 24.59 32.1569 24.869 33.1539 25.195L33.5089 25.31C33.5189 25.156 33.5189 24.993 33.5189 24.83C33.5189 22.996 33.0109 21.286 32.1189 19.835ZM32.6269 28.02C31.5819 27.953 30.5459 27.857 29.5009 27.761C29.0499 27.723 28.6089 27.675 28.1589 27.626C27.8709 27.588 27.6409 27.876 27.7469 28.154C27.9099 28.586 28.0629 29.019 28.2169 29.461C28.5529 30.441 28.8979 31.43 29.2139 32.429L29.3189 32.775C30.9869 31.632 32.2819 29.98 32.9619 28.039L32.6269 28.02ZM25.3119 15.33L25.3599 15.705C25.4939 16.742 25.5899 17.79 25.6859 18.827C25.7239 19.24 25.7629 19.644 25.7909 20.057C25.8099 20.374 26.1649 20.537 26.4239 20.355C26.7499 20.115 27.0859 19.875 27.4309 19.644C28.2939 19.058 29.1469 18.472 30.0289 17.905L30.3549 17.703C28.9839 16.454 27.2389 15.599 25.3119 15.33ZM26.6059 33.62C26.0499 32.736 25.5319 31.824 25.0139 30.921C24.7839 30.527 24.5629 30.133 24.3519 29.73C24.1989 29.451 23.8049 29.451 23.6519 29.73C23.4309 30.143 23.2009 30.547 22.9619 30.94C22.4349 31.843 21.9069 32.746 21.3509 33.63L21.1109 34.014C22.0029 34.293 22.9519 34.437 23.9299 34.437C24.9369 34.437 25.9149 34.283 26.8259 33.985L26.6059 33.62ZM25.3119 15.33L25.3599 15.705C25.4939 16.742 25.5899 17.79 25.6859 18.827C25.7239 19.24 25.7629 19.644 25.7909 20.057C25.8099 20.374 26.1649 20.537 26.4239 20.355C26.7499 20.115 27.0859 19.875 27.4309 19.644C28.2939 19.058 29.1469 18.472 30.0289 17.905L30.3549 17.703C28.9839 16.454 27.2389 15.599 25.3119 15.33ZM32.6269 28.02C31.5819 27.953 30.5459 27.857 29.5009 27.761C29.0499 27.723 28.6089 27.675 28.1589 27.626C27.8709 27.588 27.6409 27.876 27.7469 28.154C27.9099 28.586 28.0629 29.019 28.2169 29.461C28.5529 30.441 28.8979 31.43 29.2139 32.429L29.3189 32.775C30.9869 31.632 32.2819 29.98 32.9619 28.039L32.6269 28.02ZM32.1189 19.835L31.8599 20.114C31.1409 20.883 30.4029 21.622 29.6639 22.362C29.1939 22.842 28.6859 23.303 28.1969 23.774C28.8489 23.937 29.5009 24.11 30.1529 24.302C31.1599 24.59 32.1569 24.869 33.1539 25.195L33.5089 25.31C33.5189 25.156 33.5189 24.993 33.5189 24.83C33.5189 22.996 33.0109 21.286 32.1189 19.835ZM32.1189 19.835L31.8599 20.114C31.1409 20.883 30.4029 21.622 29.6639 22.362C29.1939 22.842 28.6859 23.303 28.1969 23.774C28.8489 23.937 29.5009 24.11 30.1529 24.302C31.1599 24.59 32.1569 24.869 33.1539 25.195L33.5089 25.31C33.5189 25.156 33.5189 24.993 33.5189 24.83C33.5189 22.996 33.0109 21.286 32.1189 19.835ZM32.6269 28.02C31.5819 27.953 30.5459 27.857 29.5009 27.761C29.0499 27.723 28.6089 27.675 28.1589 27.626C27.8709 27.588 27.6409 27.876 27.7469 28.154C27.9099 28.586 28.0629 29.019 28.2169 29.461C28.5529 30.441 28.8979 31.43 29.2139 32.429L29.3189 32.775C30.9869 31.632 32.2819 29.98 32.9619 28.039L32.6269 28.02ZM25.3119 15.33L25.3599 15.705C25.4939 16.742 25.5899 17.79 25.6859 18.827C25.7239 19.24 25.7629 19.644 25.7909 20.057C25.8099 20.374 26.1649 20.537 26.4239 20.355C26.7499 20.115 27.0859 19.875 27.4309 19.644C28.2939 19.058 29.1469 18.472 30.0289 17.905L30.3549 17.703C28.9839 16.454 27.2389 15.599 25.3119 15.33ZM26.6059 33.62C26.0499 32.736 25.5319 31.824 25.0139 30.921C24.7839 30.527 24.5629 30.133 24.3519 29.73C24.1989 29.451 23.8049 29.451 23.6519 29.73C23.4309 30.143 23.2009 30.547 22.9619 30.94C22.4349 31.843 21.9069 32.746 21.3509 33.63L21.1109 34.014C22.0029 34.293 22.9519 34.437 23.9299 34.437C24.9369 34.437 25.9149 34.283 26.8259 33.985L26.6059 33.62ZM19.8749 27.492C19.4239 27.55 18.9829 27.617 18.5329 27.665C17.4879 27.79 16.4619 27.915 15.4169 28.011L14.8989 28.059C15.5989 30.019 16.9219 31.69 18.6189 32.824L18.7529 32.42C19.0789 31.421 19.4239 30.441 19.7789 29.452C19.9419 28.972 20.1149 28.501 20.2969 28.021C20.4119 27.741 20.1719 27.444 19.8749 27.492ZM26.6059 33.62C26.0499 32.736 25.5319 31.824 25.0139 30.921C24.7839 30.527 24.5629 30.133 24.3519 29.73C24.1989 29.451 23.8049 29.451 23.6519 29.73C23.4309 30.143 23.2009 30.547 22.9619 30.94C22.4349 31.843 21.9069 32.746 21.3509 33.63L21.1109 34.014C22.0029 34.293 22.9519 34.437 23.9299 34.437C24.9369 34.437 25.9149 34.283 26.8259 33.985L26.6059 33.62ZM25.3119 15.33L25.3599 15.705C25.4939 16.742 25.5899 17.79 25.6859 18.827C25.7239 19.24 25.7629 19.644 25.7909 20.057C25.8099 20.374 26.1649 20.537 26.4239 20.355C26.7499 20.115 27.0859 19.875 27.4309 19.644C28.2939 19.058 29.1469 18.472 30.0289 17.905L30.3549 17.703C28.9839 16.454 27.2389 15.599 25.3119 15.33ZM32.6269 28.02C31.5819 27.953 30.5459 27.857 29.5009 27.761C29.0499 27.723 28.6089 27.675 28.1589 27.626C27.8709 27.588 27.6409 27.876 27.7469 28.154C27.9099 28.586 28.0629 29.019 28.2169 29.461C28.5529 30.441 28.8979 31.43 29.2139 32.429L29.3189 32.775C30.9869 31.632 32.2819 29.98 32.9619 28.039L32.6269 28.02ZM32.1189 19.835L31.8599 20.114C31.1409 20.883 30.4029 21.622 29.6639 22.362C29.1939 22.842 28.6859 23.303 28.1969 23.774C28.8489 23.937 29.5009 24.11 30.1529 24.302C31.1599 24.59 32.1569 24.869 33.1539 25.195L33.5089 25.31C33.5189 25.156 33.5189 24.993 33.5189 24.83C33.5189 22.996 33.0109 21.286 32.1189 19.835ZM32.1189 19.835L31.8599 20.114C31.1409 20.883 30.4029 21.622 29.6639 22.362C29.1939 22.842 28.6859 23.303 28.1969 23.774C28.8489 23.937 29.5009 24.11 30.1529 24.302C31.1599 24.59 32.1569 24.869 33.1539 25.195L33.5089 25.31C33.5189 25.156 33.5189 24.993 33.5189 24.83C33.5189 22.996 33.0109 21.286 32.1189 19.835ZM32.6269 28.02C31.5819 27.953 30.5459 27.857 29.5009 27.761C29.0499 27.723 28.6089 27.675 28.1589 27.626C27.8709 27.588 27.6409 27.876 27.7469 28.154C27.9099 28.586 28.0629 29.019 28.2169 29.461C28.5529 30.441 28.8979 31.43 29.2139 32.429L29.3189 32.775C30.9869 31.632 32.2819 29.98 32.9619 28.039L32.6269 28.02ZM25.3119 15.33L25.3599 15.705C25.4939 16.742 25.5899 17.79 25.6859 18.827C25.7239 19.24 25.7629 19.644 25.7909 20.057C25.8099 20.374 26.1649 20.537 26.4239 20.355C26.7499 20.115 27.0859 19.875 27.4309 19.644C28.2939 19.058 29.1469 18.472 30.0289 17.905L30.3549 17.703C28.9839 16.454 27.2389 15.599 25.3119 15.33ZM26.6059 33.62C26.0499 32.736 25.5319 31.824 25.0139 30.921C24.7839 30.527 24.5629 30.133 24.3519 29.73C24.1989 29.451 23.8049 29.451 23.6519 29.73C23.4309 30.143 23.2009 30.547 22.9619 30.94C22.4349 31.843 21.9069 32.746 21.3509 33.63L21.1109 34.014C22.0029 34.293 22.9519 34.437 23.9299 34.437C24.9369 34.437 25.9149 34.283 26.8259 33.985L26.6059 33.62ZM19.8749 27.492C19.4239 27.55 18.9829 27.617 18.5329 27.665C17.4879 27.79 16.4619 27.915 15.4169 28.011L14.8989 28.059C15.5989 30.019 16.9219 31.69 18.6189 32.824L18.7529 32.42C19.0789 31.421 19.4239 30.441 19.7789 29.452C19.9419 28.972 20.1149 28.501 20.2969 28.021C20.4119 27.741 20.1719 27.444 19.8749 27.492ZM19.8749 27.492C19.4239 27.55 18.9829 27.617 18.5329 27.665C17.4879 27.79 16.4619 27.915 15.4169 28.011L14.8989 28.059C15.5989 30.019 16.9219 31.69 18.6189 32.824L18.7529 32.42C19.0789 31.421 19.4239 30.441 19.7789 29.452C19.9419 28.972 20.1149 28.501 20.2969 28.021C20.4119 27.741 20.1719 27.444 19.8749 27.492ZM26.6059 33.62C26.0499 32.736 25.5319 31.824 25.0139 30.921C24.7839 30.527 24.5629 30.133 24.3519 29.73C24.1989 29.451 23.8049 29.451 23.6519 29.73C23.4309 30.143 23.2009 30.547 22.9619 30.94C22.4349 31.843 21.9069 32.746 21.3509 33.63L21.1109 34.014C22.0029 34.293 22.9519 34.437 23.9299 34.437C24.9369 34.437 25.9149 34.283 26.8259 33.985L26.6059 33.62ZM25.3119 15.33L25.3599 15.705C25.4939 16.742 25.5899 17.79 25.6859 18.827C25.7239 19.24 25.7629 19.644 25.7909 20.057C25.8099 20.374 26.1649 20.537 26.4239 20.355C26.7499 20.115 27.0859 19.875 27.4309 19.644C28.2939 19.058 29.1469 18.472 30.0289 17.905L30.3549 17.703C28.9839 16.454 27.2389 15.599 25.3119 15.33ZM32.6269 28.02C31.5819 27.953 30.5459 27.857 29.5009 27.761C29.0499 27.723 28.6089 27.675 28.1589 27.626C27.8709 27.588 27.6409 27.876 27.7469 28.154C27.9099 28.586 28.0629 29.019 28.2169 29.461C28.5529 30.441 28.8979 31.43 29.2139 32.429L29.3189 32.775C30.9869 31.632 32.2819 29.98 32.9619 28.039L32.6269 28.02ZM32.1189 19.835L31.8599 20.114C31.1409 20.883 30.4029 21.622 29.6639 22.362C29.1939 22.842 28.6859 23.303 28.1969 23.774C28.8489 23.937 29.5009 24.11 30.1529 24.302C31.1599 24.59 32.1569 24.869 33.1539 25.195L33.5089 25.31C33.5189 25.156 33.5189 24.993 33.5189 24.83C33.5189 22.996 33.0109 21.286 32.1189 19.835ZM32.1189 19.835L31.8599 20.114C31.1409 20.883 30.4029 21.622 29.6639 22.362C29.1939 22.842 28.6859 23.303 28.1969 23.774C28.8489 23.937 29.5009 24.11 30.1529 24.302C31.1599 24.59 32.1569 24.869 33.1539 25.195L33.5089 25.31C33.5189 25.156 33.5189 24.993 33.5189 24.83C33.5189 22.996 33.0109 21.286 32.1189 19.835ZM32.6269 28.02C31.5819 27.953 30.5459 27.857 29.5009 27.761C29.0499 27.723 28.6089 27.675 28.1589 27.626C27.8709 27.588 27.6409 27.876 27.7469 28.154C27.9099 28.586 28.0629 29.019 28.2169 29.461C28.5529 30.441 28.8979 31.43 29.2139 32.429L29.3189 32.775C30.9869 31.632 32.2819 29.98 32.9619 28.039L32.6269 28.02ZM25.3119 15.33L25.3599 15.705C25.4939 16.742 25.5899 17.79 25.6859 18.827C25.7239 19.24 25.7629 19.644 25.7909 20.057C25.8099 20.374 26.1649 20.537 26.4239 20.355C26.7499 20.115 27.0859 19.875 27.4309 19.644C28.2939 19.058 29.1469 18.472 30.0289 17.905L30.3549 17.703C28.9839 16.454 27.2389 15.599 25.3119 15.33ZM26.6059 33.62C26.0499 32.736 25.5319 31.824 25.0139 30.921C24.7839 30.527 24.5629 30.133 24.3519 29.73C24.1989 29.451 23.8049 29.451 23.6519 29.73C23.4309 30.143 23.2009 30.547 22.9619 30.94C22.4349 31.843 21.9069 32.746 21.3509 33.63L21.1109 34.014C22.0029 34.293 22.9519 34.437 23.9299 34.437C24.9369 34.437 25.9149 34.283 26.8259 33.985L26.6059 33.62ZM19.8749 27.492C19.4239 27.55 18.9829 27.617 18.5329 27.665C17.4879 27.79 16.4619 27.915 15.4169 28.011L14.8989 28.059C15.5989 30.019 16.9219 31.69 18.6189 32.824L18.7529 32.42C19.0789 31.421 19.4239 30.441 19.7789 29.452C19.9419 28.972 20.1149 28.501 20.2969 28.021C20.4119 27.741 20.1719 27.444 19.8749 27.492ZM19.3379 23.111C19.0119 22.813 18.6959 22.515 18.3789 22.198C17.6309 21.458 16.8929 20.728 16.1639 19.969L15.8569 19.652C14.8979 21.141 14.3419 22.918 14.3419 24.83C14.3419 25.013 14.3519 25.185 14.3519 25.358L14.8029 25.204C15.7909 24.849 16.7879 24.541 17.7749 24.215C18.2449 24.061 18.7149 23.927 19.1839 23.783C19.4819 23.697 19.5679 23.322 19.3379 23.111ZM19.8749 27.492C19.4239 27.55 18.9829 27.617 18.5329 27.665C17.4879 27.79 16.4619 27.915 15.4169 28.011L14.8989 28.059C15.5989 30.019 16.9219 31.69 18.6189 32.824L18.7529 32.42C19.0789 31.421 19.4239 30.441 19.7789 29.452C19.9419 28.972 20.1149 28.501 20.2969 28.021C20.4119 27.741 20.1719 27.444 19.8749 27.492ZM26.6059 33.62C26.0499 32.736 25.5319 31.824 25.0139 30.921C24.7839 30.527 24.5629 30.133 24.3519 29.73C24.1989 29.451 23.8049 29.451 23.6519 29.73C23.4309 30.143 23.2009 30.547 22.9619 30.94C22.4349 31.843 21.9069 32.746 21.3509 33.63L21.1109 34.014C22.0029 34.293 22.9519 34.437 23.9299 34.437C24.9369 34.437 25.9149 34.283 26.8259 33.985L26.6059 33.62ZM25.3119 15.33L25.3599 15.705C25.4939 16.742 25.5899 17.79 25.6859 18.827C25.7239 19.24 25.7629 19.644 25.7909 20.057C25.8099 20.374 26.1649 20.537 26.4239 20.355C26.7499 20.115 27.0859 19.875 27.4309 19.644C28.2939 19.058 29.1469 18.472 30.0289 17.905L30.3549 17.703C28.9839 16.454 27.2389 15.599 25.3119 15.33ZM32.6269 28.02C31.5819 27.953 30.5459 27.857 29.5009 27.761C29.0499 27.723 28.6089 27.675 28.1589 27.626C27.8709 27.588 27.6409 27.876 27.7469 28.154C27.9099 28.586 28.0629 29.019 28.2169 29.461C28.5529 30.441 28.8979 31.43 29.2139 32.429L29.3189 32.775C30.9869 31.632 32.2819 29.98 32.9619 28.039L32.6269 28.02ZM32.1189 19.835L31.8599 20.114C31.1409 20.883 30.4029 21.622 29.6639 22.362C29.1939 22.842 28.6859 23.303 28.1969 23.774C28.8489 23.937 29.5009 24.11 30.1529 24.302C31.1599 24.59 32.1569 24.869 33.1539 25.195L33.5089 25.31C33.5189 25.156 33.5189 24.993 33.5189 24.83C33.5189 22.996 33.0109 21.286 32.1189 19.835ZM32.1189 19.835L31.8599 20.114C31.1409 20.883 30.4029 21.622 29.6639 22.362C29.1939 22.842 28.6859 23.303 28.1969 23.774C28.8489 23.937 29.5009 24.11 30.1529 24.302C31.1599 24.59 32.1569 24.869 33.1539 25.195L33.5089 25.31C33.5189 25.156 33.5189 24.993 33.5189 24.83C33.5189 22.996 33.0109 21.286 32.1189 19.835ZM29.5009 27.761C29.0499 27.723 28.6089 27.675 28.1589 27.626C27.8709 27.588 27.6409 27.876 27.7469 28.154C27.9099 28.586 28.0629 29.019 28.2169 29.461C28.5529 30.441 28.8979 31.43 29.2139 32.429L29.3189 32.775C30.9869 31.632 32.2819 29.98 32.9619 28.039L32.6269 28.02C31.5829 27.953 30.5469 27.857 29.5009 27.761ZM30.3549 17.703C28.9839 16.454 27.2389 15.599 25.3119 15.33L25.3599 15.705C25.4939 16.742 25.5899 17.79 25.6859 18.827C25.7239 19.24 25.7629 19.644 25.7909 20.057C25.8099 20.374 26.1649 20.537 26.4239 20.355C26.7499 20.115 27.0859 19.875 27.4309 19.644C28.2939 19.058 29.1469 18.472 30.0289 17.905L30.3549 17.703ZM25.0139 30.921C24.7839 30.527 24.5629 30.133 24.3519 29.73C24.1989 29.451 23.8049 29.451 23.6519 29.73C23.4309 30.143 23.2009 30.547 22.9619 30.94C22.4349 31.843 21.9069 32.746 21.3509 33.63L21.1109 34.014C22.0029 34.293 22.9519 34.437 23.9299 34.437C24.9369 34.437 25.9149 34.283 26.8259 33.985L26.6049 33.62C26.0499 32.737 25.5319 31.824 25.0139 30.921ZM19.8749 27.492C19.4239 27.55 18.9829 27.617 18.5329 27.665C17.4879 27.79 16.4619 27.915 15.4169 28.011L14.8989 28.059C15.5989 30.019 16.9219 31.69 18.6189 32.824L18.7529 32.42C19.0789 31.421 19.4239 30.441 19.7789 29.452C19.9419 28.972 20.1149 28.501 20.2969 28.021C20.4119 27.741 20.1719 27.444 19.8749 27.492ZM19.1839 23.783C19.4809 23.697 19.5689 23.322 19.3379 23.111C19.0119 22.813 18.6959 22.515 18.3789 22.198C17.6309 21.458 16.8929 20.728 16.1639 19.969L15.8569 19.652C14.8979 21.141 14.3419 22.918 14.3419 24.83C14.3419 25.013 14.3519 25.185 14.3519 25.358L14.8029 25.204C15.7909 24.849 16.7879 24.541 17.7749 24.215C18.2449 24.062 18.7139 23.928 19.1839 23.783ZM44.7659 28.174L41.1029 12.054C40.9399 11.334 40.4609 10.738 39.7989 10.411L24.9759 3.24501C24.3139 2.91801 23.5469 2.91801 22.8859 3.24501L8.06294 10.411C7.40094 10.738 6.92194 11.333 6.75894 12.054L3.09594 28.174C2.93294 28.894 3.10594 29.644 3.55594 30.211L13.8149 43.141C14.2749 43.717 14.9749 44.054 15.7039 44.054H32.1569C32.8859 44.054 33.5859 43.718 34.0459 43.141L44.3049 30.211C44.7559 29.643 44.9289 28.894 44.7659 28.174ZM39.6459 28.846C39.3579 28.913 39.0709 28.846 38.8409 28.702C38.3709 28.385 37.8729 28.212 37.3739 28.068C37.1249 28.001 36.8659 27.943 36.6169 27.905C36.3679 27.828 36.0799 27.905 35.7919 28.039C35.5039 28.202 35.2449 28.174 34.9769 28.154H34.9479C34.1229 30.892 32.3109 33.207 29.9139 34.677V34.687C29.9909 34.937 30.0769 35.177 29.9999 35.504C29.9329 35.821 29.9229 36.109 30.0579 36.34C30.1629 36.571 30.2789 36.811 30.4029 37.032C30.6619 37.483 30.9499 37.935 31.3709 38.31C31.7929 38.704 31.8219 39.357 31.4379 39.789C31.0449 40.212 30.3929 40.24 29.9609 39.856C29.7399 39.654 29.6249 39.385 29.6249 39.107C29.6059 38.54 29.4619 38.041 29.2889 37.541C29.2029 37.301 29.1069 37.061 28.9919 36.821C28.9059 36.571 28.6759 36.398 28.3969 36.235C28.1289 36.091 27.9939 35.889 27.8599 35.668C26.6329 36.12 25.3099 36.36 23.9289 36.36C22.5679 36.36 21.2639 36.12 20.0549 35.688C19.9399 35.899 19.8059 36.091 19.5369 36.236C19.2589 36.39 19.0289 36.572 18.9429 36.822C18.8279 37.053 18.7219 37.293 18.6359 37.533C18.4629 38.033 18.3099 38.532 18.2999 39.099C18.2809 39.675 17.7919 40.127 17.2169 40.108C16.6419 40.089 16.1909 39.609 16.2099 39.032C16.2199 38.734 16.3539 38.475 16.5549 38.292C16.9769 37.908 17.2649 37.466 17.5329 37.024C17.6579 36.793 17.7729 36.563 17.8779 36.323C18.0119 36.102 18.0029 35.804 17.9449 35.487C17.8779 35.189 17.9449 34.949 18.0219 34.728C15.6149 33.277 13.7739 30.972 12.9309 28.234C12.7099 28.253 12.4999 28.253 12.2499 28.128C11.9529 28.003 11.6749 27.926 11.4249 28.013C11.1659 28.061 10.9169 28.128 10.6679 28.205C10.1689 28.368 9.67994 28.551 9.21994 28.877C8.74994 29.213 8.09794 29.098 7.76294 28.627C7.43694 28.156 7.54194 27.503 8.01194 27.176C8.25194 27.003 8.54894 26.945 8.81694 26.993C9.36394 27.108 9.89094 27.07 10.4089 27.003C10.6679 26.974 10.9269 26.926 11.1759 26.859C11.4349 26.84 11.6649 26.648 11.8759 26.408C12.0579 26.197 12.2689 26.11 12.4799 26.033C12.4419 25.639 12.4219 25.236 12.4219 24.832C12.4219 22.373 13.1889 20.096 14.5029 18.223C14.3299 18.05 14.1669 17.877 14.0999 17.57C14.0139 17.263 13.8989 16.994 13.6779 16.85C13.4769 16.677 13.2749 16.523 13.0639 16.379C12.6229 16.091 12.1719 15.822 11.6349 15.659C11.0789 15.505 10.7529 14.919 10.9159 14.372C11.0789 13.815 11.6539 13.498 12.2099 13.652C12.4879 13.738 12.7179 13.931 12.8429 14.171C13.1019 14.671 13.4569 15.064 13.8309 15.429C14.0129 15.612 14.2149 15.784 14.4159 15.938C14.5979 16.13 14.8859 16.188 15.2019 16.207C15.5379 16.217 15.7479 16.361 15.9689 16.505L15.9789 16.515C17.7819 14.767 20.1589 13.614 22.7959 13.364C22.8249 13.105 22.8439 12.845 23.0449 12.586C23.2369 12.327 23.3709 12.067 23.3419 11.808C23.3519 11.549 23.3419 11.289 23.3229 11.02C23.2649 10.501 23.1889 9.98201 22.9679 9.46401C22.7379 8.93601 22.9869 8.32101 23.5149 8.09001C24.0419 7.86901 24.6559 8.10901 24.8859 8.63801C25.0009 8.91701 24.9909 9.21401 24.8859 9.46401C24.6649 9.98301 24.5889 10.501 24.5309 11.02C24.5119 11.289 24.5019 11.548 24.5119 11.808C24.4829 12.067 24.6169 12.327 24.8089 12.586C25.0099 12.845 25.0299 13.105 25.0579 13.364C27.7619 13.623 30.1969 14.824 32.0189 16.649C32.2399 16.505 32.4499 16.351 32.7859 16.342C33.1019 16.323 33.3899 16.265 33.5719 16.073C33.7729 15.91 33.9649 15.737 34.1569 15.554C34.5209 15.189 34.8759 14.795 35.1349 14.296C35.3939 13.777 36.0269 13.576 36.5349 13.845C37.0529 14.104 37.2539 14.738 36.9859 15.248C36.8519 15.517 36.6219 15.7 36.3529 15.776C35.8159 15.93 35.3649 16.208 34.9339 16.496C34.7229 16.65 34.5119 16.803 34.3199 16.976C34.0989 17.12 33.9839 17.389 33.8979 17.696C33.8309 18.023 33.6489 18.205 33.4669 18.397C34.7129 20.232 35.4329 22.451 35.4329 24.833C35.4329 25.198 35.4139 25.563 35.3849 25.919H35.3949C35.6439 25.996 35.8939 26.063 36.1139 26.322C36.3349 26.553 36.5649 26.725 36.8239 26.745C37.0829 26.803 37.3319 26.841 37.5909 26.87C38.1179 26.918 38.6359 26.937 39.1919 26.812C39.7579 26.687 40.3139 27.043 40.4379 27.609C40.5659 28.164 40.2109 28.721 39.6459 28.846ZM31.8599 20.114C31.1409 20.883 30.4029 21.622 29.6639 22.362C29.1939 22.842 28.6859 23.303 28.1969 23.774C28.8489 23.937 29.5009 24.11 30.1529 24.302C31.1599 24.59 32.1569 24.869 33.1539 25.195L33.5089 25.31C33.5189 25.156 33.5189 24.993 33.5189 24.83C33.5189 22.995 33.0109 21.285 32.1189 19.835L31.8599 20.114ZM29.5009 27.761C29.0499 27.723 28.6089 27.675 28.1589 27.626C27.8709 27.588 27.6409 27.876 27.7469 28.154C27.9099 28.586 28.0629 29.019 28.2169 29.461C28.5529 30.441 28.8979 31.43 29.2139 32.429L29.3189 32.775C30.9869 31.632 32.2819 29.98 32.9619 28.039L32.6269 28.02C31.5829 27.953 30.5469 27.857 29.5009 27.761ZM30.3549 17.703C28.9839 16.454 27.2389 15.599 25.3119 15.33L25.3599 15.705C25.4939 16.742 25.5899 17.79 25.6859 18.827C25.7239 19.24 25.7629 19.644 25.7909 20.057C25.8099 20.374 26.1649 20.537 26.4239 20.355C26.7499 20.115 27.0859 19.875 27.4309 19.644C28.2939 19.058 29.1469 18.472 30.0289 17.905L30.3549 17.703ZM25.0139 30.921C24.7839 30.527 24.5629 30.133 24.3519 29.73C24.1989 29.451 23.8049 29.451 23.6519 29.73C23.4309 30.143 23.2009 30.547 22.9619 30.94C22.4349 31.843 21.9069 32.746 21.3509 33.63L21.1109 34.014C22.0029 34.293 22.9519 34.437 23.9299 34.437C24.9369 34.437 25.9149 34.283 26.8259 33.985L26.6049 33.62C26.0499 32.737 25.5319 31.824 25.0139 30.921ZM22.1759 18.827C22.2719 17.789 22.3679 16.742 22.5019 15.705L22.5499 15.33C20.6999 15.589 19.0219 16.387 17.6789 17.559L17.9759 17.742C18.8679 18.299 19.7309 18.885 20.5939 19.471C21.0929 19.788 21.5619 20.143 22.0319 20.48C22.0709 19.931 22.1189 19.374 22.1759 18.827ZM19.8749 27.492C19.4239 27.55 18.9829 27.617 18.5329 27.665C17.4879 27.79 16.4619 27.915 15.4169 28.011L14.8989 28.059C15.5989 30.019 16.9219 31.69 18.6189 32.824L18.7529 32.42C19.0789 31.421 19.4239 30.441 19.7789 29.452C19.9419 28.972 20.1149 28.501 20.2969 28.021C20.4119 27.741 20.1719 27.444 19.8749 27.492ZM19.1839 23.783C19.4809 23.697 19.5689 23.322 19.3379 23.111C19.0119 22.813 18.6959 22.515 18.3789 22.198C17.6309 21.458 16.8929 20.728 16.1639 19.969L15.8569 19.652C14.8979 21.141 14.3419 22.918 14.3419 24.83C14.3419 25.013 14.3519 25.185 14.3519 25.358L14.8029 25.204C15.7909 24.849 16.7879 24.541 17.7749 24.215C18.2449 24.062 18.7139 23.928 19.1839 23.783ZM19.3379 23.111C19.0119 22.813 18.6959 22.515 18.3789 22.198C17.6309 21.458 16.8929 20.728 16.1639 19.969L15.8569 19.652C14.8979 21.141 14.3419 22.918 14.3419 24.83C14.3419 25.013 14.3519 25.185 14.3519 25.358L14.8029 25.204C15.7909 24.849 16.7879 24.541 17.7749 24.215C18.2449 24.061 18.7149 23.927 19.1839 23.783C19.4819 23.697 19.5679 23.322 19.3379 23.111ZM19.8749 27.492C19.4239 27.55 18.9829 27.617 18.5329 27.665C17.4879 27.79 16.4619 27.915 15.4169 28.011L14.8989 28.059C15.5989 30.019 16.9219 31.69 18.6189 32.824L18.7529 32.42C19.0789 31.421 19.4239 30.441 19.7789 29.452C19.9419 28.972 20.1149 28.501 20.2969 28.021C20.4119 27.741 20.1719 27.444 19.8749 27.492ZM26.6059 33.62C26.0499 32.736 25.5319 31.824 25.0139 30.921C24.7839 30.527 24.5629 30.133 24.3519 29.73C24.1989 29.451 23.8049 29.451 23.6519 29.73C23.4309 30.143 23.2009 30.547 22.9619 30.94C22.4349 31.843 21.9069 32.746 21.3509 33.63L21.1109 34.014C22.0029 34.293 22.9519 34.437 23.9299 34.437C24.9369 34.437 25.9149 34.283 26.8259 33.985L26.6059 33.62ZM25.3119 15.33L25.3599 15.705C25.4939 16.742 25.5899 17.79 25.6859 18.827C25.7239 19.24 25.7629 19.644 25.7909 20.057C25.8099 20.374 26.1649 20.537 26.4239 20.355C26.7499 20.115 27.0859 19.875 27.4309 19.644C28.2939 19.058 29.1469 18.472 30.0289 17.905L30.3549 17.703C28.9839 16.454 27.2389 15.599 25.3119 15.33ZM32.6269 28.02C31.5819 27.953 30.5459 27.857 29.5009 27.761C29.0499 27.723 28.6089 27.675 28.1589 27.626C27.8709 27.588 27.6409 27.876 27.7469 28.154C27.9099 28.586 28.0629 29.019 28.2169 29.461C28.5529 30.441 28.8979 31.43 29.2139 32.429L29.3189 32.775C30.9869 31.632 32.2819 29.98 32.9619 28.039L32.6269 28.02ZM32.1189 19.835L31.8599 20.114C31.1409 20.883 30.4029 21.622 29.6639 22.362C29.1939 22.842 28.6859 23.303 28.1969 23.774C28.8489 23.937 29.5009 24.11 30.1529 24.302C31.1599 24.59 32.1569 24.869 33.1539 25.195L33.5089 25.31C33.5189 25.156 33.5189 24.993 33.5189 24.83C33.5189 22.996 33.0109 21.286 32.1189 19.835ZM32.1189 19.835L31.8599 20.114C31.1409 20.883 30.4029 21.622 29.6639 22.362C29.1939 22.842 28.6859 23.303 28.1969 23.774C28.8489 23.937 29.5009 24.11 30.1529 24.302C31.1599 24.59 32.1569 24.869 33.1539 25.195L33.5089 25.31C33.5189 25.156 33.5189 24.993 33.5189 24.83C33.5189 22.996 33.0109 21.286 32.1189 19.835ZM32.6269 28.02C31.5819 27.953 30.5459 27.857 29.5009 27.761C29.0499 27.723 28.6089 27.675 28.1589 27.626C27.8709 27.588 27.6409 27.876 27.7469 28.154C27.9099 28.586 28.0629 29.019 28.2169 29.461C28.5529 30.441 28.8979 31.43 29.2139 32.429L29.3189 32.775C30.9869 31.632 32.2819 29.98 32.9619 28.039L32.6269 28.02ZM25.3119 15.33L25.3599 15.705C25.4939 16.742 25.5899 17.79 25.6859 18.827C25.7239 19.24 25.7629 19.644 25.7909 20.057C25.8099 20.374 26.1649 20.537 26.4239 20.355C26.7499 20.115 27.0859 19.875 27.4309 19.644C28.2939 19.058 29.1469 18.472 30.0289 17.905L30.3549 17.703C28.9839 16.454 27.2389 15.599 25.3119 15.33ZM26.6059 33.62C26.0499 32.736 25.5319 31.824 25.0139 30.921C24.7839 30.527 24.5629 30.133 24.3519 29.73C24.1989 29.451 23.8049 29.451 23.6519 29.73C23.4309 30.143 23.2009 30.547 22.9619 30.94C22.4349 31.843 21.9069 32.746 21.3509 33.63L21.1109 34.014C22.0029 34.293 22.9519 34.437 23.9299 34.437C24.9369 34.437 25.9149 34.283 26.8259 33.985L26.6059 33.62ZM19.8749 27.492C19.4239 27.55 18.9829 27.617 18.5329 27.665C17.4879 27.79 16.4619 27.915 15.4169 28.011L14.8989 28.059C15.5989 30.019 16.9219 31.69 18.6189 32.824L18.7529 32.42C19.0789 31.421 19.4239 30.441 19.7789 29.452C19.9419 28.972 20.1149 28.501 20.2969 28.021C20.4119 27.741 20.1719 27.444 19.8749 27.492ZM19.3379 23.111C19.0119 22.813 18.6959 22.515 18.3789 22.198C17.6309 21.458 16.8929 20.728 16.1639 19.969L15.8569 19.652C14.8979 21.141 14.3419 22.918 14.3419 24.83C14.3419 25.013 14.3519 25.185 14.3519 25.358L14.8029 25.204C15.7909 24.849 16.7879 24.541 17.7749 24.215C18.2449 24.061 18.7149 23.927 19.1839 23.783C19.4819 23.697 19.5679 23.322 19.3379 23.111ZM19.8749 27.492C19.4239 27.55 18.9829 27.617 18.5329 27.665C17.4879 27.79 16.4619 27.915 15.4169 28.011L14.8989 28.059C15.5989 30.019 16.9219 31.69 18.6189 32.824L18.7529 32.42C19.0789 31.421 19.4239 30.441 19.7789 29.452C19.9419 28.972 20.1149 28.501 20.2969 28.021C20.4119 27.741 20.1719 27.444 19.8749 27.492ZM26.6059 33.62C26.0499 32.736 25.5319 31.824 25.0139 30.921C24.7839 30.527 24.5629 30.133 24.3519 29.73C24.1989 29.451 23.8049 29.451 23.6519 29.73C23.4309 30.143 23.2009 30.547 22.9619 30.94C22.4349 31.843 21.9069 32.746 21.3509 33.63L21.1109 34.014C22.0029 34.293 22.9519 34.437 23.9299 34.437C24.9369 34.437 25.9149 34.283 26.8259 33.985L26.6059 33.62ZM25.3119 15.33L25.3599 15.705C25.4939 16.742 25.5899 17.79 25.6859 18.827C25.7239 19.24 25.7629 19.644 25.7909 20.057C25.8099 20.374 26.1649 20.537 26.4239 20.355C26.7499 20.115 27.0859 19.875 27.4309 19.644C28.2939 19.058 29.1469 18.472 30.0289 17.905L30.3549 17.703C28.9839 16.454 27.2389 15.599 25.3119 15.33ZM32.6269 28.02C31.5819 27.953 30.5459 27.857 29.5009 27.761C29.0499 27.723 28.6089 27.675 28.1589 27.626C27.8709 27.588 27.6409 27.876 27.7469 28.154C27.9099 28.586 28.0629 29.019 28.2169 29.461C28.5529 30.441 28.8979 31.43 29.2139 32.429L29.3189 32.775C30.9869 31.632 32.2819 29.98 32.9619 28.039L32.6269 28.02ZM32.1189 19.835L31.8599 20.114C31.1409 20.883 30.4029 21.622 29.6639 22.362C29.1939 22.842 28.6859 23.303 28.1969 23.774C28.8489 23.937 29.5009 24.11 30.1529 24.302C31.1599 24.59 32.1569 24.869 33.1539 25.195L33.5089 25.31C33.5189 25.156 33.5189 24.993 33.5189 24.83C33.5189 22.996 33.0109 21.286 32.1189 19.835ZM32.1189 19.835L31.8599 20.114C31.1409 20.883 30.4029 21.622 29.6639 22.362C29.1939 22.842 28.6859 23.303 28.1969 23.774C28.8489 23.937 29.5009 24.11 30.1529 24.302C31.1599 24.59 32.1569 24.869 33.1539 25.195L33.5089 25.31C33.5189 25.156 33.5189 24.993 33.5189 24.83C33.5189 22.996 33.0109 21.286 32.1189 19.835ZM32.6269 28.02C31.5819 27.953 30.5459 27.857 29.5009 27.761C29.0499 27.723 28.6089 27.675 28.1589 27.626C27.8709 27.588 27.6409 27.876 27.7469 28.154C27.9099 28.586 28.0629 29.019 28.2169 29.461C28.5529 30.441 28.8979 31.43 29.2139 32.429L29.3189 32.775C30.9869 31.632 32.2819 29.98 32.9619 28.039L32.6269 28.02ZM25.3119 15.33L25.3599 15.705C25.4939 16.742 25.5899 17.79 25.6859 18.827C25.7239 19.24 25.7629 19.644 25.7909 20.057C25.8099 20.374 26.1649 20.537 26.4239 20.355C26.7499 20.115 27.0859 19.875 27.4309 19.644C28.2939 19.058 29.1469 18.472 30.0289 17.905L30.3549 17.703C28.9839 16.454 27.2389 15.599 25.3119 15.33ZM26.6059 33.62C26.0499 32.736 25.5319 31.824 25.0139 30.921C24.7839 30.527 24.5629 30.133 24.3519 29.73C24.1989 29.451 23.8049 29.451 23.6519 29.73C23.4309 30.143 23.2009 30.547 22.9619 30.94C22.4349 31.843 21.9069 32.746 21.3509 33.63L21.1109 34.014C22.0029 34.293 22.9519 34.437 23.9299 34.437C24.9369 34.437 25.9149 34.283 26.8259 33.985L26.6059 33.62ZM19.8749 27.492C19.4239 27.55 18.9829 27.617 18.5329 27.665C17.4879 27.79 16.4619 27.915 15.4169 28.011L14.8989 28.059C15.5989 30.019 16.9219 31.69 18.6189 32.824L18.7529 32.42C19.0789 31.421 19.4239 30.441 19.7789 29.452C19.9419 28.972 20.1149 28.501 20.2969 28.021C20.4119 27.741 20.1719 27.444 19.8749 27.492ZM26.6059 33.62C26.0499 32.736 25.5319 31.824 25.0139 30.921C24.7839 30.527 24.5629 30.133 24.3519 29.73C24.1989 29.451 23.8049 29.451 23.6519 29.73C23.4309 30.143 23.2009 30.547 22.9619 30.94C22.4349 31.843 21.9069 32.746 21.3509 33.63L21.1109 34.014C22.0029 34.293 22.9519 34.437 23.9299 34.437C24.9369 34.437 25.9149 34.283 26.8259 33.985L26.6059 33.62ZM25.3119 15.33L25.3599 15.705C25.4939 16.742 25.5899 17.79 25.6859 18.827C25.7239 19.24 25.7629 19.644 25.7909 20.057C25.8099 20.374 26.1649 20.537 26.4239 20.355C26.7499 20.115 27.0859 19.875 27.4309 19.644C28.2939 19.058 29.1469 18.472 30.0289 17.905L30.3549 17.703C28.9839 16.454 27.2389 15.599 25.3119 15.33ZM32.6269 28.02C31.5819 27.953 30.5459 27.857 29.5009 27.761C29.0499 27.723 28.6089 27.675 28.1589 27.626C27.8709 27.588 27.6409 27.876 27.7469 28.154C27.9099 28.586 28.0629 29.019 28.2169 29.461C28.5529 30.441 28.8979 31.43 29.2139 32.429L29.3189 32.775C30.9869 31.632 32.2819 29.98 32.9619 28.039L32.6269 28.02ZM32.1189 19.835L31.8599 20.114C31.1409 20.883 30.4029 21.622 29.6639 22.362C29.1939 22.842 28.6859 23.303 28.1969 23.774C28.8489 23.937 29.5009 24.11 30.1529 24.302C31.1599 24.59 32.1569 24.869 33.1539 25.195L33.5089 25.31C33.5189 25.156 33.5189 24.993 33.5189 24.83C33.5189 22.996 33.0109 21.286 32.1189 19.835ZM32.1189 19.835L31.8599 20.114C31.1409 20.883 30.4029 21.622 29.6639 22.362C29.1939 22.842 28.6859 23.303 28.1969 23.774C28.8489 23.937 29.5009 24.11 30.1529 24.302C31.1599 24.59 32.1569 24.869 33.1539 25.195L33.5089 25.31C33.5189 25.156 33.5189 24.993 33.5189 24.83C33.5189 22.996 33.0109 21.286 32.1189 19.835ZM32.6269 28.02C31.5819 27.953 30.5459 27.857 29.5009 27.761C29.0499 27.723 28.6089 27.675 28.1589 27.626C27.8709 27.588 27.6409 27.876 27.7469 28.154C27.9099 28.586 28.0629 29.019 28.2169 29.461C28.5529 30.441 28.8979 31.43 29.2139 32.429L29.3189 32.775C30.9869 31.632 32.2819 29.98 32.9619 28.039L32.6269 28.02ZM25.3119 15.33L25.3599 15.705C25.4939 16.742 25.5899 17.79 25.6859 18.827C25.7239 19.24 25.7629 19.644 25.7909 20.057C25.8099 20.374 26.1649 20.537 26.4239 20.355C26.7499 20.115 27.0859 19.875 27.4309 19.644C28.2939 19.058 29.1469 18.472 30.0289 17.905L30.3549 17.703C28.9839 16.454 27.2389 15.599 25.3119 15.33ZM26.6059 33.62C26.0499 32.736 25.5319 31.824 25.0139 30.921C24.7839 30.527 24.5629 30.133 24.3519 29.73C24.1989 29.451 23.8049 29.451 23.6519 29.73C23.4309 30.143 23.2009 30.547 22.9619 30.94C22.4349 31.843 21.9069 32.746 21.3509 33.63L21.1109 34.014C22.0029 34.293 22.9519 34.437 23.9299 34.437C24.9369 34.437 25.9149 34.283 26.8259 33.985L26.6059 33.62ZM26.6059 33.62C26.0499 32.736 25.5319 31.824 25.0139 30.921C24.7839 30.527 24.5629 30.133 24.3519 29.73C24.1989 29.451 23.8049 29.451 23.6519 29.73C23.4309 30.143 23.2009 30.547 22.9619 30.94C22.4349 31.843 21.9069 32.746 21.3509 33.63L21.1109 34.014C22.0029 34.293 22.9519 34.437 23.9299 34.437C24.9369 34.437 25.9149 34.283 26.8259 33.985L26.6059 33.62ZM25.3119 15.33L25.3599 15.705C25.4939 16.742 25.5899 17.79 25.6859 18.827C25.7239 19.24 25.7629 19.644 25.7909 20.057C25.8099 20.374 26.1649 20.537 26.4239 20.355C26.7499 20.115 27.0859 19.875 27.4309 19.644C28.2939 19.058 29.1469 18.472 30.0289 17.905L30.3549 17.703C28.9839 16.454 27.2389 15.599 25.3119 15.33ZM32.6269 28.02C31.5819 27.953 30.5459 27.857 29.5009 27.761C29.0499 27.723 28.6089 27.675 28.1589 27.626C27.8709 27.588 27.6409 27.876 27.7469 28.154C27.9099 28.586 28.0629 29.019 28.2169 29.461C28.5529 30.441 28.8979 31.43 29.2139 32.429L29.3189 32.775C30.9869 31.632 32.2819 29.98 32.9619 28.039L32.6269 28.02ZM32.1189 19.835L31.8599 20.114C31.1409 20.883 30.4029 21.622 29.6639 22.362C29.1939 22.842 28.6859 23.303 28.1969 23.774C28.8489 23.937 29.5009 24.11 30.1529 24.302C31.1599 24.59 32.1569 24.869 33.1539 25.195L33.5089 25.31C33.5189 25.156 33.5189 24.993 33.5189 24.83C33.5189 22.996 33.0109 21.286 32.1189 19.835ZM32.1189 19.835L31.8599 20.114C31.1409 20.883 30.4029 21.622 29.6639 22.362C29.1939 22.842 28.6859 23.303 28.1969 23.774C28.8489 23.937 29.5009 24.11 30.1529 24.302C31.1599 24.59 32.1569 24.869 33.1539 25.195L33.5089 25.31C33.5189 25.156 33.5189 24.993 33.5189 24.83C33.5189 22.996 33.0109 21.286 32.1189 19.835ZM32.6269 28.02C31.5819 27.953 30.5459 27.857 29.5009 27.761C29.0499 27.723 28.6089 27.675 28.1589 27.626C27.8709 27.588 27.6409 27.876 27.7469 28.154C27.9099 28.586 28.0629 29.019 28.2169 29.461C28.5529 30.441 28.8979 31.43 29.2139 32.429L29.3189 32.775C30.9869 31.632 32.2819 29.98 32.9619 28.039L32.6269 28.02ZM25.3119 15.33L25.3599 15.705C25.4939 16.742 25.5899 17.79 25.6859 18.827C25.7239 19.24 25.7629 19.644 25.7909 20.057C25.8099 20.374 26.1649 20.537 26.4239 20.355C26.7499 20.115 27.0859 19.875 27.4309 19.644C28.2939 19.058 29.1469 18.472 30.0289 17.905L30.3549 17.703C28.9839 16.454 27.2389 15.599 25.3119 15.33ZM26.6059 33.62C26.0499 32.736 25.5319 31.824 25.0139 30.921C24.7839 30.527 24.5629 30.133 24.3519 29.73C24.1989 29.451 23.8049 29.451 23.6519 29.73C23.4309 30.143 23.2009 30.547 22.9619 30.94C22.4349 31.843 21.9069 32.746 21.3509 33.63L21.1109 34.014C22.0029 34.293 22.9519 34.437 23.9299 34.437C24.9369 34.437 25.9149 34.283 26.8259 33.985L26.6059 33.62ZM25.3119 15.33L25.3599 15.705C25.4939 16.742 25.5899 17.79 25.6859 18.827C25.7239 19.24 25.7629 19.644 25.7909 20.057C25.8099 20.374 26.1649 20.537 26.4239 20.355C26.7499 20.115 27.0859 19.875 27.4309 19.644C28.2939 19.058 29.1469 18.472 30.0289 17.905L30.3549 17.703C28.9839 16.454 27.2389 15.599 25.3119 15.33ZM32.6269 28.02C31.5819 27.953 30.5459 27.857 29.5009 27.761C29.0499 27.723 28.6089 27.675 28.1589 27.626C27.8709 27.588 27.6409 27.876 27.7469 28.154C27.9099 28.586 28.0629 29.019 28.2169 29.461C28.5529 30.441 28.8979 31.43 29.2139 32.429L29.3189 32.775C30.9869 31.632 32.2819 29.98 32.9619 28.039L32.6269 28.02ZM32.1189 19.835L31.8599 20.114C31.1409 20.883 30.4029 21.622 29.6639 22.362C29.1939 22.842 28.6859 23.303 28.1969 23.774C28.8489 23.937 29.5009 24.11 30.1529 24.302C31.1599 24.59 32.1569 24.869 33.1539 25.195L33.5089 25.31C33.5189 25.156 33.5189 24.993 33.5189 24.83C33.5189 22.996 33.0109 21.286 32.1189 19.835ZM32.1189 19.835L31.8599 20.114C31.1409 20.883 30.4029 21.622 29.6639 22.362C29.1939 22.842 28.6859 23.303 28.1969 23.774C28.8489 23.937 29.5009 24.11 30.1529 24.302C31.1599 24.59 32.1569 24.869 33.1539 25.195L33.5089 25.31C33.5189 25.156 33.5189 24.993 33.5189 24.83C33.5189 22.996 33.0109 21.286 32.1189 19.835ZM32.6269 28.02C31.5819 27.953 30.5459 27.857 29.5009 27.761C29.0499 27.723 28.6089 27.675 28.1589 27.626C27.8709 27.588 27.6409 27.876 27.7469 28.154C27.9099 28.586 28.0629 29.019 28.2169 29.461C28.5529 30.441 28.8979 31.43 29.2139 32.429L29.3189 32.775C30.9869 31.632 32.2819 29.98 32.9619 28.039L32.6269 28.02ZM25.3119 15.33L25.3599 15.705C25.4939 16.742 25.5899 17.79 25.6859 18.827C25.7239 19.24 25.7629 19.644 25.7909 20.057C25.8099 20.374 26.1649 20.537 26.4239 20.355C26.7499 20.115 27.0859 19.875 27.4309 19.644C28.2939 19.058 29.1469 18.472 30.0289 17.905L30.3549 17.703C28.9839 16.454 27.2389 15.599 25.3119 15.33ZM25.3119 15.33L25.3599 15.705C25.4939 16.742 25.5899 17.79 25.6859 18.827C25.7239 19.24 25.7629 19.644 25.7909 20.057C25.8099 20.374 26.1649 20.537 26.4239 20.355C26.7499 20.115 27.0859 19.875 27.4309 19.644C28.2939 19.058 29.1469 18.472 30.0289 17.905L30.3549 17.703C28.9839 16.454 27.2389 15.599 25.3119 15.33ZM32.1189 19.835L31.8599 20.114C31.1409 20.883 30.4029 21.622 29.6639 22.362C29.1939 22.842 28.6859 23.303 28.1969 23.774C28.8489 23.937 29.5009 24.11 30.1529 24.302C31.1599 24.59 32.1569 24.869 33.1539 25.195L33.5089 25.31C33.5189 25.156 33.5189 24.993 33.5189 24.83C33.5189 22.996 33.0109 21.286 32.1189 19.835ZM32.1189 19.835L31.8599 20.114C31.1409 20.883 30.4029 21.622 29.6639 22.362C29.1939 22.842 28.6859 23.303 28.1969 23.774C28.8489 23.937 29.5009 24.11 30.1529 24.302C31.1599 24.59 32.1569 24.869 33.1539 25.195L33.5089 25.31C33.5189 25.156 33.5189 24.993 33.5189 24.83C33.5189 22.996 33.0109 21.286 32.1189 19.835ZM25.3119 15.33L25.3599 15.705C25.4939 16.742 25.5899 17.79 25.6859 18.827C25.7239 19.24 25.7629 19.644 25.7909 20.057C25.8099 20.374 26.1649 20.537 26.4239 20.355C26.7499 20.115 27.0859 19.875 27.4309 19.644C28.2939 19.058 29.1469 18.472 30.0289 17.905L30.3549 17.703C28.9839 16.454 27.2389 15.599 25.3119 15.33ZM25.3119 15.33L25.3599 15.705C25.4939 16.742 25.5899 17.79 25.6859 18.827C25.7239 19.24 25.7629 19.644 25.7909 20.057C25.8099 20.374 26.1649 20.537 26.4239 20.355C26.7499 20.115 27.0859 19.875 27.4309 19.644C28.2939 19.058 29.1469 18.472 30.0289 17.905L30.3549 17.703C28.9839 16.454 27.2389 15.599 25.3119 15.33ZM32.1189 19.835L31.8599 20.114C31.1409 20.883 30.4029 21.622 29.6639 22.362C29.1939 22.842 28.6859 23.303 28.1969 23.774C28.8489 23.937 29.5009 24.11 30.1529 24.302C31.1599 24.59 32.1569 24.869 33.1539 25.195L33.5089 25.31C33.5189 25.156 33.5189 24.993 33.5189 24.83C33.5189 22.996 33.0109 21.286 32.1189 19.835ZM32.1189 19.835L31.8599 20.114C31.1409 20.883 30.4029 21.622 29.6639 22.362C29.1939 22.842 28.6859 23.303 28.1969 23.774C28.8489 23.937 29.5009 24.11 30.1529 24.302C31.1599 24.59 32.1569 24.869 33.1539 25.195L33.5089 25.31C33.5189 25.156 33.5189 24.993 33.5189 24.83C33.5189 22.996 33.0109 21.286 32.1189 19.835ZM25.3119 15.33L25.3599 15.705C25.4939 16.742 25.5899 17.79 25.6859 18.827C25.7239 19.24 25.7629 19.644 25.7909 20.057C25.8099 20.374 26.1649 20.537 26.4239 20.355C26.7499 20.115 27.0859 19.875 27.4309 19.644C28.2939 19.058 29.1469 18.472 30.0289 17.905L30.3549 17.703C28.9839 16.454 27.2389 15.599 25.3119 15.33ZM25.3119 15.33L25.3599 15.705C25.4939 16.742 25.5899 17.79 25.6859 18.827C25.7239 19.24 25.7629 19.644 25.7909 20.057C25.8099 20.374 26.1649 20.537 26.4239 20.355C26.7499 20.115 27.0859 19.875 27.4309 19.644C28.2939 19.058 29.1469 18.472 30.0289 17.905L30.3549 17.703C28.9839 16.454 27.2389 15.599 25.3119 15.33ZM25.3119 15.33L25.3599 15.705C25.4939 16.742 25.5899 17.79 25.6859 18.827C25.7239 19.24 25.7629 19.644 25.7909 20.057C25.8099 20.374 26.1649 20.537 26.4239 20.355C26.7499 20.115 27.0859 19.875 27.4309 19.644C28.2939 19.058 29.1469 18.472 30.0289 17.905L30.3549 17.703C28.9839 16.454 27.2389 15.599 25.3119 15.33Z" fill="#0277BD"/>
</g>
</svg>
