<svg width="48" height="48" viewBox="0 0 48 48" fill="none" xmlns="http://www.w3.org/2000/svg">
<g id="mongodb-original">
<g id="Group">
<path id="Vector" fill-rule="evenodd" clip-rule="evenodd" d="M33.0143 16.0544C33.6162 17.7956 34.0497 19.5731 34.1922 21.4154C34.3692 23.7011 34.2882 25.9706 33.8063 28.2187C33.7932 28.2806 33.7654 28.3387 33.7448 28.3987C33.5937 28.3991 33.4396 28.3803 33.2918 28.4032C32.0434 28.5993 30.7962 28.8026 29.5489 29.0047C28.2597 29.2136 26.9686 29.4142 25.6816 29.6373C25.2256 29.7161 24.6612 29.6219 24.4771 30.2527C24.4718 30.2699 24.4193 30.2729 24.3889 30.2827L24.4512 26.5136C24.4298 23.4821 24.4088 20.4506 24.3878 17.4191L24.9886 17.3159C25.9711 17.1551 26.9536 16.9919 27.9368 16.8356C29.1102 16.6492 30.2847 16.4681 31.4588 16.2862C31.9767 16.2056 32.4953 16.1317 33.0143 16.0544Z" fill="#439934"/>
<path id="Vector_2" fill-rule="evenodd" clip-rule="evenodd" d="M23.1484 41.2702C22.5147 40.7253 21.8588 40.2044 21.2513 39.6314C17.9824 36.5482 15.5914 32.9193 14.4139 28.5442C14.0895 27.34 13.8732 26.1164 13.8038 24.8722C13.755 24.0014 13.6845 23.1228 13.746 22.2565C13.9099 19.9525 14.2429 17.6707 14.9187 15.4514L14.9558 15.3997C15.0214 15.487 15.1159 15.5643 15.1493 15.6629C15.8089 17.6054 16.4637 19.5494 17.115 21.4945C19.1618 27.607 21.2059 33.721 23.256 39.832C23.2962 39.9513 23.4 40.0492 23.4747 40.1568L23.1484 41.2702Z" fill="#45A538"/>
<path id="Vector_3" fill-rule="evenodd" clip-rule="evenodd" d="M33.0143 16.0545C32.4953 16.1318 31.9763 16.2056 31.4584 16.2855C30.2843 16.4674 29.1098 16.6485 27.9364 16.8349C26.9531 16.9913 25.9706 17.1544 24.9881 17.3153L24.3874 17.4184L24.3829 17.0265C24.363 16.7044 24.3289 16.3826 24.3251 16.0605C24.2993 14.0063 24.2831 11.952 24.2576 9.89775C24.2419 8.61188 24.2183 7.32638 24.192 6.04088C24.1759 5.24213 24.1586 4.443 24.1226 3.64538C24.1031 3.21675 24.0341 2.79038 24.006 2.36175C23.9903 2.11538 24.012 1.86713 24.0169 1.61963C24.3233 2.21325 24.6229 2.81138 24.9379 3.4005C25.4355 4.332 26.2283 5.01825 26.9419 5.76713C29.763 8.72663 31.7659 12.1676 33.0143 16.0545Z" fill="#46A037"/>
<path id="Vector_4" fill-rule="evenodd" clip-rule="evenodd" d="M24.3885 30.2822C24.4189 30.2724 24.4718 30.2694 24.4767 30.2522C24.6608 29.6214 25.2252 29.7155 25.6812 29.6368C26.9682 29.414 28.2593 29.213 29.5485 29.0042C30.7958 28.802 32.043 28.5988 33.2914 28.4027C33.4392 28.3794 33.5933 28.3985 33.7444 28.3982C33.5112 29.2307 33.3274 30.0812 33.0315 30.8908C32.6955 31.8092 32.289 32.7054 31.8574 33.584C31.2124 34.8977 30.4088 36.1228 29.475 37.2452C28.7554 38.1107 27.9533 38.9105 27.1493 39.7007C26.7049 40.1375 26.181 40.4934 25.6935 40.886L25.5672 40.7998L25.1119 40.4105L24.6409 39.3782C24.3165 38.1695 24.1463 36.9392 24.1182 35.6889L24.1268 35.4785L24.1909 34.5688C24.2123 34.2583 24.2408 33.9482 24.2539 33.6369C24.3023 32.5187 24.3443 31.4004 24.3885 30.2822Z" fill="#409433"/>
<path id="Vector_5" fill-rule="evenodd" clip-rule="evenodd" d="M24.3885 30.2824C24.3442 31.4006 24.3022 32.5189 24.2546 33.6375C24.2415 33.9487 24.213 34.2589 24.1916 34.5694L23.9047 34.6777C23.2676 32.802 22.6301 30.9461 22.0065 29.0854C20.9752 26.007 19.9564 22.9237 18.9266 19.8446C18.0952 17.3591 17.2571 14.8762 16.4141 12.3945C16.3747 12.2782 16.2615 12.1875 16.1827 12.0847L18.0187 8.70898C18.0817 8.81848 18.165 8.92086 18.2047 9.03861C19.0541 11.5522 19.902 14.0662 20.7427 16.5829C21.8362 19.8566 22.923 23.133 24.0157 26.4071C24.0592 26.538 24.1312 26.6587 24.1999 26.8054L24.4511 26.5129C24.4301 27.7695 24.4091 29.0257 24.3885 30.2824Z" fill="#4FAA41"/>
<path id="Vector_6" fill-rule="evenodd" clip-rule="evenodd" d="M16.1832 12.085C16.2619 12.1877 16.3748 12.2785 16.4146 12.3947C17.2576 14.8765 18.0957 17.3593 18.9271 19.8448C19.9568 22.924 20.9757 26.0072 22.0069 29.0856C22.6302 30.946 23.2677 32.8022 23.9052 34.678L24.1921 34.5696L24.1279 35.4793L24.0698 35.689C23.9701 36.685 23.8861 37.6832 23.7646 38.677C23.7034 39.175 23.5737 39.664 23.4751 40.1571C23.4008 40.0495 23.2966 39.9516 23.2564 39.8323C21.2063 33.721 19.1622 27.6073 17.1154 21.4948C16.4641 19.5497 15.8093 17.6057 15.1497 15.6632C15.1163 15.5646 15.0222 15.4873 14.9562 15.4C15.3649 14.2948 15.7741 13.1897 16.1832 12.085Z" fill="#4AA73C"/>
<path id="Vector_7" fill-rule="evenodd" clip-rule="evenodd" d="M24.4508 26.5132L24.1996 26.8057C24.1309 26.659 24.0589 26.5379 24.0154 26.4074C22.9231 23.1333 21.8359 19.8569 20.7424 16.5832C19.9017 14.0665 19.0538 11.5525 18.2044 9.03891C18.1651 8.92116 18.0818 8.81841 18.0184 8.70929L20.2891 5.72241C20.3607 5.81804 20.4627 5.90316 20.4998 6.01079C21.1302 7.85616 21.7549 9.70379 22.3759 11.5525C22.9561 13.279 23.5276 15.0082 24.1144 16.7324C24.1538 16.8479 24.2907 16.9297 24.3822 17.0272L24.3867 17.419C24.4084 20.4498 24.4298 23.4817 24.4508 26.5132Z" fill="#57AE47"/>
<path id="Vector_8" fill-rule="evenodd" clip-rule="evenodd" d="M24.3829 17.0264C24.2914 16.9289 24.1545 16.8471 24.1152 16.7316C23.5283 15.0074 22.9568 13.2783 22.3767 11.5518C21.7557 9.70302 21.1309 7.85577 20.5005 6.01002C20.4634 5.90239 20.3614 5.81727 20.2898 5.72164C21.0282 4.99864 21.7437 4.24977 22.5117 3.56014C23.1945 2.94739 23.7435 2.29039 23.7687 1.32214C23.7698 1.28202 23.7908 1.24189 23.823 1.12939L24.0177 1.61914C24.0128 1.86702 23.9907 2.11489 24.0068 2.36127C24.0349 2.78989 24.1039 3.21627 24.1234 3.64489C24.1594 4.44252 24.1767 5.24164 24.1928 6.04039C24.2187 7.32589 24.2423 8.61139 24.2584 9.89727C24.2835 11.9515 24.3 14.0058 24.3259 16.06C24.3289 16.3829 24.3627 16.7043 24.3829 17.0264Z" fill="#60B24F"/>
<path id="Vector_9" fill-rule="evenodd" clip-rule="evenodd" d="M23.4743 40.1567C23.5729 39.6636 23.7027 39.1742 23.7638 38.6766C23.8857 37.6832 23.9693 36.6846 24.0691 35.6886L24.0938 35.6848L24.1186 35.6889C24.1467 36.9392 24.3169 38.1696 24.6413 39.3782C24.5753 39.4652 24.4819 39.5428 24.4471 39.6411C24.1744 40.4098 23.9176 41.1846 23.6434 41.9533C23.6059 42.0583 23.5017 42.1401 23.4282 42.2323L23.1481 41.2701L23.4743 40.1567Z" fill="#A9AA88"/>
<path id="Vector_10" fill-rule="evenodd" clip-rule="evenodd" d="M23.4286 42.2328C23.5021 42.1405 23.6067 42.0588 23.6438 41.9538C23.918 41.185 24.1752 40.4107 24.4475 39.6415C24.4823 39.5433 24.5753 39.4657 24.6417 39.3787L25.1123 40.4114C25.0193 40.5434 24.8911 40.6623 24.8393 40.8093L23.9378 43.4564C23.9007 43.5625 23.774 43.6375 23.6892 43.7272L23.4286 42.2328Z" fill="#B6B598"/>
<path id="Vector_11" fill-rule="evenodd" clip-rule="evenodd" d="M23.6892 43.7269C23.7743 43.6376 23.9007 43.5623 23.9378 43.4561L24.8393 40.809C24.8907 40.6624 25.0193 40.5431 25.1123 40.4111L25.568 40.8C25.3478 41.0175 25.2256 41.2688 25.2991 41.5864L25.1607 42.0394C25.0977 42.117 25.0066 42.1845 24.9755 42.2734C24.6608 43.1745 24.3605 44.0805 24.0436 44.9816C24.0035 45.096 23.8921 45.1856 23.8133 45.2861C23.7725 44.766 23.7308 44.247 23.6892 43.7269Z" fill="#C2C1A7"/>
<path id="Vector_12" fill-rule="evenodd" clip-rule="evenodd" d="M23.8137 45.2861C23.892 45.1852 24.0034 45.0956 24.0439 44.9816C24.3608 44.0808 24.6612 43.1748 24.9758 42.2733C25.0069 42.1848 25.0977 42.1169 25.161 42.0393L24.9702 44.1187C24.9192 44.1776 24.8453 44.2289 24.8209 44.2976C24.6053 44.9028 24.402 45.5126 24.1857 46.1178C24.141 46.2427 24.0555 46.3529 23.9888 46.4696C23.9295 46.3919 23.8234 46.3169 23.8185 46.2359C23.7994 45.9206 23.8125 45.6029 23.8137 45.2861Z" fill="#CECDB7"/>
<path id="Vector_13" fill-rule="evenodd" clip-rule="evenodd" d="M23.9884 46.4695C24.0552 46.3525 24.1407 46.2423 24.1853 46.1178C24.402 45.5129 24.6049 44.9032 24.8205 44.2975C24.8449 44.2289 24.9192 44.1779 24.9698 44.1187L24.9743 45.4837L24.5175 46.6552L23.9884 46.4695Z" fill="#DBDAC7"/>
<path id="Vector_14" fill-rule="evenodd" clip-rule="evenodd" d="M24.5176 46.6556L24.9743 45.4841L25.0685 46.8701L24.5176 46.6556Z" fill="#EBE9DC"/>
<path id="Vector_15" fill-rule="evenodd" clip-rule="evenodd" d="M25.299 41.5867C25.2255 41.269 25.3474 41.0174 25.5679 40.8003L25.6943 40.8865L25.299 41.5867Z" fill="#CECDB7"/>
<path id="Vector_16" fill-rule="evenodd" clip-rule="evenodd" d="M24.1186 35.6895L24.0938 35.6854L24.0691 35.6891L24.1272 35.4795L24.1186 35.6895Z" fill="#4FAA41"/>
</g>
</g>
</svg>
