<svg width="48" height="54" viewBox="0 0 48 54" fill="none" xmlns="http://www.w3.org/2000/svg">
<g id="c-sharp-c" clip-path="url(#clip0_54_1994)">
<path id="Vector" d="M47.9192 15.8348C47.9188 14.9292 47.7251 14.1289 47.3334 13.4421C46.9487 12.7668 46.3725 12.2007 45.5996 11.7531C39.2199 8.07457 32.8341 4.40726 26.4564 0.724946C24.7371 -0.26768 23.07 -0.231492 21.3634 0.775383C18.8241 2.27295 6.11062 9.55676 2.32219 11.7511C0.762 12.6543 0.0028125 14.0365 0.0024375 15.8331C0 23.2309 0.0024375 30.6286 0 38.0266C0 38.9123 0.185812 39.697 0.56025 40.3735C0.945187 41.0693 1.52944 41.6509 2.32012 42.1086C6.10875 44.3029 18.8239 51.5862 21.3626 53.0841C23.07 54.0916 24.7371 54.1276 26.457 53.1346C32.8348 49.4521 39.2211 45.7849 45.6017 42.1064C46.3924 41.6489 46.9766 41.0669 47.3616 40.3716C47.7354 39.6951 47.9216 38.9104 47.9216 38.0245C47.9216 38.0245 47.9216 23.2328 47.9192 15.8348Z" fill="#A179DC"/>
<path id="Vector_2" d="M24.0342 26.8577L0.560303 40.3734C0.94524 41.0692 1.52949 41.6509 2.32018 42.1085C6.1088 44.3029 18.8239 51.5861 21.3627 53.084C23.0701 54.0915 24.7371 54.1275 26.4571 53.1345C32.8349 49.452 39.2211 45.7849 45.6017 42.1063C46.3924 41.6488 46.9767 41.0668 47.3616 40.3715L24.0342 26.8577Z" fill="#280068"/>
<path id="Vector_3" d="M47.9192 15.8348C47.9189 14.9292 47.7252 14.129 47.3335 13.4421L24.0342 26.8578L47.3616 40.3716C47.7355 39.6951 47.9213 38.9105 47.9217 38.0245C47.9217 38.0245 47.9217 23.2328 47.9192 15.8348Z" fill="#390091"/>
<g id="Group">
<path id="Vector_4" d="M37.8549 21.8052V24.3315H40.3812V21.8052H41.6444V24.3315H44.1707V25.5946H41.6444V28.121H44.1707V29.3841H41.6444V31.9104H40.3812V29.3841H37.8549V31.9104H36.5917V29.3841H34.0654V28.121H36.5917V25.5946H34.0654V24.3315H36.5917V21.8052H37.8549ZM40.3812 25.5946H37.8549V28.121H40.3812V25.5946Z" fill="white"/>
<path id="Vector_5" d="M24.0857 9.11743C30.6751 9.11743 36.4283 12.6961 39.5098 18.0154L39.4797 17.9642L31.7268 22.4283C30.1993 19.842 27.3991 18.0967 24.1869 18.0607L24.0857 18.0601C19.1871 18.0601 15.2158 22.0313 15.2158 26.9298C15.2158 28.5318 15.6429 30.0334 16.3856 31.3304C17.9145 33.9995 20.7886 35.7997 24.0857 35.7997C27.4031 35.7997 30.2936 33.9766 31.8147 31.2789L31.7778 31.3437L39.519 35.8283C36.4713 41.1026 30.797 44.6702 24.2841 44.7413L24.0857 44.7424C17.4754 44.7424 11.7059 41.1417 8.6322 35.7943C7.13164 33.1837 6.27307 30.1572 6.27307 26.9298C6.27307 17.0924 14.2479 9.11743 24.0857 9.11743Z" fill="white"/>
</g>
</g>
<defs>
<clipPath id="clip0_54_1994">
<rect width="48" height="54" fill="white"/>
</clipPath>
</defs>
</svg>
