<svg width="48" height="48" viewBox="0 0 48 48" fill="none" xmlns="http://www.w3.org/2000/svg">
<g id="android-os">
<g id="Group">
<path id="Vector" d="M12 29.001C12 30.105 11.104 31.001 10 31.001C8.896 31.001 8 30.105 8 29.001V20.001C8 18.897 8.896 18.001 10 18.001C11.104 18.001 12 18.897 12 20.001V29.001Z" fill="#7CB342"/>
<path id="Vector_2" d="M40 29.001C40 30.105 39.104 31.001 38 31.001C36.896 31.001 36 30.105 36 29.001V20.001C36 18.897 36.896 18.001 38 18.001C39.104 18.001 40 18.897 40 20.001V29.001Z" fill="#7CB342"/>
<path id="Vector_3" d="M22 40C22 41.104 21.104 42 20 42C18.896 42 18 41.104 18 40V31C18 29.896 18.896 29 20 29C21.104 29 22 29.896 22 31V40Z" fill="#7CB342"/>
<path id="Vector_4" d="M30 40C30 41.104 29.104 42 28 42C26.896 42 26 41.104 26 40V31C26 29.896 26.896 29 28 29C29.104 29 30 29.896 30 31V40Z" fill="#7CB342"/>
<path id="Vector_5" d="M14 18.001V33C14 34.104 14.896 35 16 35H32C33.104 35 34 34.104 34 33V18.001H14Z" fill="#7CB342"/>
<path id="Vector_6" d="M24 8C18 8 14.345 11.645 14 16H34C33.654 11.645 30 8 24 8ZM20 13.598C19.448 13.598 19 13.15 19 12.598C19 12.046 19.448 11.598 20 11.598C20.552 11.598 21 12.046 21 12.598C21 13.15 20.552 13.598 20 13.598ZM28 13.598C27.447 13.598 27 13.15 27 12.598C27 12.046 27.447 11.598 28 11.598C28.553 11.598 29 12.046 29 12.598C29 13.15 28.553 13.598 28 13.598Z" fill="#7CB342"/>
</g>
<path id="Vector_7" d="M30 7L28.334 9.499" stroke="#7CB342" stroke-width="2" stroke-linecap="round"/>
<path id="Vector_8" d="M18 7L19.333 9.082" stroke="#7CB342" stroke-width="2" stroke-linecap="round"/>
</g>
</svg>
