<svg width="48" height="48" viewBox="0 0 48 48" fill="none" xmlns="http://www.w3.org/2000/svg">
<g id="wordpress" clip-path="url(#clip0_54_2003)">
<path id="Vector" d="M3.41145 23.9992C3.41145 32.149 8.14743 39.1913 15.015 42.5291L5.19395 15.6203C4.01663 18.2566 3.40922 21.1119 3.41145 23.9992ZM37.8989 22.9603C37.8989 24.7228 37.2215 26.7682 36.331 29.6159L34.2778 36.4783L26.8375 14.3463C28.0763 14.2812 29.194 14.15 29.194 14.15C30.303 14.0187 30.1726 12.3886 29.0619 12.4541C29.0619 12.4541 25.7281 12.7154 23.5749 12.7154C21.5519 12.7154 18.1518 12.4541 18.1518 12.4541C17.0423 12.3886 16.9123 14.0849 18.0217 14.15C18.0217 14.15 19.0721 14.2812 20.1807 14.3463L23.3889 23.1346L18.8828 36.6476L11.3853 14.3466C12.6264 14.2816 13.7422 14.1504 13.7422 14.1504C14.8504 14.0191 14.7196 12.389 13.6097 12.4544C13.6097 12.4544 10.2763 12.7157 8.12275 12.7157C7.73648 12.7157 7.28086 12.706 6.79782 12.6915C10.4792 7.10182 16.8073 3.41145 24 3.41145C29.3601 3.41145 34.2402 5.46035 37.9036 8.81617C37.8142 8.81107 37.7277 8.79971 37.6364 8.79971C35.6145 8.79971 34.1795 10.5615 34.1795 12.4541C34.1795 14.15 35.1573 15.5862 36.201 17.2821C36.9849 18.6537 37.8989 20.4158 37.8989 22.9603ZM24.3612 25.8001L30.6905 43.1383C30.7305 43.2371 30.7796 43.332 30.837 43.4219C28.6968 44.1741 26.3976 44.5889 24 44.5889C22.0311 44.589 20.0725 44.3064 18.1839 43.7498L24.3612 25.8001ZM42.0656 14.1214C43.7257 17.1487 44.5933 20.5466 44.5878 23.9992C44.5878 31.5951 40.4708 38.2264 34.3499 41.7957L40.6388 23.6129C41.8141 20.6763 42.2043 18.3277 42.2043 16.2385C42.2043 15.4816 42.1542 14.7772 42.0656 14.1214ZM24 0C37.2329 0 48.0008 10.766 48.0012 23.9992C48.0012 37.2344 37.2329 48 24 48C10.7663 48 0 37.234 0 23.9992C0 10.766 10.7667 0 24 0ZM24 46.8995C36.6256 46.8995 46.8984 36.6264 46.8984 23.9992C46.8984 11.3732 36.626 1.10085 24 1.10085C11.3732 1.10085 1.10045 11.3732 1.10045 23.9992C1.10045 36.6264 11.3736 46.8995 24 46.8995Z" fill="#00749A"/>
</g>
<defs>
<clipPath id="clip0_54_2003">
<rect width="48" height="48" fill="white"/>
</clipPath>
</defs>
</svg>
