<svg width="48" height="48" viewBox="0 0 48 48" fill="none" xmlns="http://www.w3.org/2000/svg">
<g id="swift" clip-path="url(#clip0_54_1955)">
<path id="Vector" d="M10.6687 0H37.2562C38.55 0 39.8062 0.20625 41.025 0.6375C42.7875 1.275 44.3812 2.4 45.5812 3.8625C46.8 5.325 47.6062 7.125 47.8875 9C48 9.69375 48.0187 10.3875 48.0187 11.0812V35.1937V37.0125C48.0187 37.8375 47.9812 38.6813 47.8125 39.4875C47.4375 41.3438 46.5562 43.0875 45.2812 44.4938C44.025 45.9 42.375 46.95 40.5937 47.5125C39.5062 47.85 38.3812 48 37.2375 48C36.7312 48 10.5937 48 10.2 47.9812C8.28746 47.8875 6.39371 47.2687 4.79996 46.2C3.24371 45.15 1.96871 43.6875 1.14371 42C0.431208 40.5563 0.0749584 38.9438 0.0749584 37.3313C0.0749584 36.9563 0.0749584 11.0438 0.0749584 10.6688C0.0374584 9.075 0.374958 7.5 1.06871 6.075C1.87496 4.3875 3.13121 2.90625 4.68746 1.85625C6.28121 0.76875 8.15621 0.13125 10.0687 0.0375C10.2562 0 10.4625 0 10.6687 0Z" fill="url(#paint0_linear_54_1955)"/>
<path id="Vector_2" d="M40.5 39.2625C40.3312 39 40.1437 38.7375 39.9375 38.4938C39.4688 37.9313 38.925 37.4438 38.325 37.0313C37.575 36.525 36.6937 36.2063 35.7937 36.1688C35.1562 36.1313 34.5187 36.2438 33.9187 36.4688C33.3187 36.675 32.7375 36.975 32.175 37.275C31.5188 37.6125 30.8625 37.95 30.1687 38.2313C29.3437 38.5688 28.4812 38.8313 27.6 39.0188C26.4937 39.225 25.3687 39.3 24.2625 39.2813C22.2562 39.2438 20.25 38.9438 18.3375 38.3813C16.65 37.875 15.0375 37.1813 13.5187 36.3C12.1875 35.5313 10.95 34.65 9.7875 33.6563C8.83125 32.8313 7.95 31.95 7.125 31.0125C6.5625 30.3563 6.01875 29.6625 5.5125 28.95C5.30625 28.6688 5.11875 28.3688 4.95 28.0688L0 22.725V10.6313C0 4.7625 4.74375 0 10.6125 0H20.0812L27.0938 7.125C42.9188 17.8875 37.8 29.7563 37.8 29.7563C37.8 29.7563 42.3 34.8188 40.5 39.2625Z" fill="url(#paint1_linear_54_1955)"/>
<path id="Vector_3" d="M27.1312 7.125C42.9562 17.8875 37.8375 29.7562 37.8375 29.7562C37.8375 29.7562 42.3375 34.8375 40.5187 39.2812C40.5187 39.2812 38.6625 36.1687 35.55 36.1687C32.55 36.1687 30.7875 39.2812 24.75 39.2812C11.3062 39.2812 4.94995 28.05 4.94995 28.05C17.0625 36.0188 25.3312 30.375 25.3312 30.375C19.875 27.2062 8.2687 12.0563 8.2687 12.0563C18.375 20.6625 22.7437 22.9313 22.7437 22.9313C20.1375 20.775 12.825 10.2375 12.825 10.2375C18.675 16.1625 30.3 24.4313 30.3 24.4313C33.6 15.2813 27.1312 7.125 27.1312 7.125Z" fill="white"/>
</g>
<defs>
<linearGradient id="paint0_linear_54_1955" x1="28.5543" y1="-1.71278" x2="19.4856" y2="49.7187" gradientUnits="userSpaceOnUse">
<stop stop-color="#FAAE42"/>
<stop offset="1" stop-color="#EF3E31"/>
</linearGradient>
<linearGradient id="paint1_linear_54_1955" x1="24.4897" y1="0.775556" x2="17.8524" y2="38.4174" gradientUnits="userSpaceOnUse">
<stop stop-color="#E39F3A"/>
<stop offset="1" stop-color="#D33929"/>
</linearGradient>
<clipPath id="clip0_54_1955">
<rect width="48" height="48" fill="white"/>
</clipPath>
</defs>
</svg>
