<svg width="48" height="48" viewBox="0 0 48 48" fill="none" xmlns="http://www.w3.org/2000/svg">
<g id="file-type-firebase">
<path id="Vector" d="M8.69995 36.8999L8.95495 36.5444L20.985 13.7234L21.0105 13.4819L15.708 3.52191C15.6109 3.33978 15.459 3.19278 15.2738 3.10171C15.0886 3.01064 14.8794 2.98011 14.6759 3.01444C14.4724 3.04878 14.2848 3.14623 14.1397 3.29302C13.9947 3.43982 13.8994 3.62851 13.8675 3.83241L8.69995 36.8999Z" fill="#FFC24A"/>
<path id="Vector_2" d="M8.84998 36.63L9.04198 36.255L20.9475 13.671L15.6585 3.67203C15.5713 3.49814 15.43 3.35719 15.256 3.2703C15.0819 3.18341 14.8844 3.15525 14.693 3.19006C14.5016 3.22486 14.3266 3.32074 14.1943 3.46333C14.062 3.60593 13.9794 3.78757 13.959 3.98103L8.84998 36.63Z" fill="#FFA712"/>
<path id="Vector_3" d="M24.8761 21.0151L28.8241 16.9651L24.8746 9.43357C24.7876 9.27148 24.6584 9.13599 24.5005 9.04155C24.3427 8.9471 24.1622 8.89722 23.9783 8.89722C23.7944 8.89722 23.6139 8.9471 23.4561 9.04155C23.2982 9.13599 23.169 9.27148 23.0821 9.43357L20.9716 13.4566V13.8001L24.8761 21.0151Z" fill="#F4BD62"/>
<path id="Vector_4" d="M24.8055 20.8501L28.644 16.9201L24.8055 9.60009C24.7427 9.44164 24.6354 9.30475 24.4965 9.20592C24.3576 9.10708 24.1931 9.05053 24.0228 9.04308C23.8525 9.03563 23.6837 9.07759 23.5368 9.16392C23.3898 9.25024 23.2709 9.37723 23.1945 9.52959L21.0735 13.6231L21.0105 13.8316L24.8055 20.8501Z" fill="#FFA50E"/>
<path id="Vector_5" d="M8.703 36.9016L8.8185 36.7846L9.237 36.6151L24.627 21.2821L24.822 20.7511L20.9835 13.4341L8.703 36.9016Z" fill="#F6820C"/>
<path id="Vector_6" d="M25.368 44.634L39.3 36.8655L35.3189 12.369C35.2904 12.1963 35.2148 12.0348 35.1005 11.9023C34.9862 11.7697 34.8376 11.6712 34.671 11.6176C34.5044 11.564 34.3262 11.5573 34.1561 11.5983C33.9859 11.6393 33.8304 11.7264 33.7065 11.85L8.69995 36.9L22.5495 44.6325C22.98 44.8727 23.4649 44.9989 23.958 44.9989C24.451 44.9989 24.9359 44.8727 25.3664 44.6325" fill="#FDE068"/>
<path id="Vector_7" d="M39.1725 36.801L35.2245 12.489C35.2175 12.3238 35.1617 12.1644 35.0641 12.031C34.9665 11.8976 34.8315 11.7961 34.6762 11.7394C34.5209 11.6827 34.3523 11.6733 34.1917 11.7125C34.0311 11.7517 33.8857 11.8377 33.774 11.9595L8.84998 36.8535L22.5465 44.5035C22.9736 44.7418 23.4546 44.8669 23.9437 44.8669C24.4328 44.8669 24.9138 44.7418 25.341 44.5035L39.1725 36.801Z" fill="#FCCA3F"/>
<path id="Vector_8" d="M25.368 44.4C24.9374 44.6403 24.4525 44.7664 23.9594 44.7664C23.4664 44.7664 22.9815 44.6403 22.551 44.4L8.81395 36.783L8.69995 36.9L22.5495 44.6325C22.98 44.8728 23.4649 44.9989 23.958 44.9989C24.451 44.9989 24.9359 44.8728 25.3664 44.6325L39.3 36.8655L39.2654 36.6555L25.368 44.4Z" fill="#EEAB37"/>
</g>
</svg>
