<svg width="48" height="48" viewBox="0 0 48 48" fill="none" xmlns="http://www.w3.org/2000/svg">
<g id="python" clip-path="url(#clip0_54_1914)">
<path id="Vector" d="M23.7967 0.0136719C11.6407 0.0136727 12.3998 5.28527 12.3998 5.28527L12.4133 10.7466H24.0135V12.3863H7.80576C7.80576 12.3863 0.0270996 11.5042 0.0270996 23.7697C0.0270987 36.0353 6.81648 35.6003 6.81648 35.6003H10.8684V29.9086C10.8684 29.9086 10.65 23.1193 17.5494 23.1193H29.0548C29.0548 23.1193 35.5189 23.2238 35.5189 16.8719V6.3694C35.5189 6.3694 36.5003 0.0136719 23.7967 0.0136719ZM17.4003 3.68617C18.5545 3.68617 19.4873 4.61899 19.4873 5.77313C19.4873 6.92727 18.5545 7.86009 17.4003 7.86009C16.2462 7.86009 15.3134 6.92727 15.3134 5.77313C15.3134 4.61899 16.2462 3.68617 17.4003 3.68617Z" fill="url(#paint0_linear_54_1914)"/>
<path id="Vector_2" d="M24.142 47.6486C36.298 47.6486 35.5389 42.377 35.5389 42.377L35.5254 36.9157H23.9252V35.276H40.133C40.133 35.276 47.9116 36.1581 47.9116 23.8926C47.9116 11.627 41.1222 12.062 41.1222 12.062H37.0703V17.7537C37.0703 17.7537 37.2887 24.5431 30.3893 24.5431H18.8839C18.8839 24.5431 12.4198 24.4386 12.4198 30.7904V41.2929C12.4198 41.2929 11.4384 47.6486 24.142 47.6486ZM30.5384 43.9761C29.3842 43.9761 28.4514 43.0433 28.4514 41.8892C28.4514 40.735 29.3842 39.8022 30.5384 39.8022C31.6925 39.8022 32.6253 40.735 32.6253 41.8892C32.6253 43.0433 31.6925 43.9761 30.5384 43.9761Z" fill="url(#paint1_linear_54_1914)"/>
</g>
<defs>
<linearGradient id="paint0_linear_54_1914" x1="1178.09" y1="1092.6" x2="7252.86" y2="7083.28" gradientUnits="userSpaceOnUse">
<stop stop-color="#387EB8"/>
<stop offset="1" stop-color="#366994"/>
</linearGradient>
<linearGradient id="paint1_linear_54_1914" x1="1751.17" y1="1879.64" x2="8274.84" y2="8022.57" gradientUnits="userSpaceOnUse">
<stop stop-color="#FFE052"/>
<stop offset="1" stop-color="#FFC331"/>
</linearGradient>
<clipPath id="clip0_54_1914">
<rect width="48" height="47.8125" fill="white"/>
</clipPath>
</defs>
</svg>
