<svg width="48" height="50" viewBox="0 0 48 50" fill="none" xmlns="http://www.w3.org/2000/svg">
<g id="postgresql" clip-path="url(#clip0_54_2071)">
<path id="Vector" d="M47.814 29.6411C47.5262 28.7696 46.7723 28.1624 45.7972 28.0166C45.3375 27.948 44.811 27.9773 44.188 28.1058C43.102 28.3298 42.2963 28.415 41.7084 28.4317C43.9277 24.6845 45.7324 20.4112 46.7713 16.3888C48.4512 9.88471 47.5535 6.92168 46.5045 5.58134C43.7283 2.034 39.6777 0.128186 34.7909 0.069766C32.1843 0.0379508 29.8957 0.552648 28.702 0.92268C27.5905 0.72669 26.3953 0.617166 25.1412 0.596879C22.7907 0.55941 20.7137 1.07178 18.9391 2.1249C17.9564 1.79278 16.3797 1.32442 14.5587 1.02544C10.2757 0.322293 6.8239 0.870246 4.29908 2.6539C1.24171 4.81356 -0.175673 8.56577 0.0864977 13.8064C0.169639 15.4703 1.10048 20.5327 2.56598 25.334C3.40825 28.0935 4.3064 30.3851 5.23547 32.1457C6.55297 34.6423 7.96271 36.1126 9.54538 36.6404C10.4325 36.9361 12.0443 37.1429 13.7396 35.7313C13.9544 35.9914 14.241 36.25 14.6215 36.4901C15.1046 36.7949 15.6955 37.0438 16.2854 37.1914C18.412 37.723 20.4038 37.59 22.1031 36.845C22.1135 37.1472 22.1216 37.4359 22.1285 37.6852C22.1398 38.0898 22.1509 38.4863 22.1657 38.8571C22.2664 41.3648 22.437 43.3147 22.9425 44.6788C22.9702 44.754 23.0075 44.8683 23.047 44.9895C23.2991 45.7617 23.7209 47.0542 24.7936 48.0667C25.9047 49.1152 27.2485 49.4369 28.4792 49.4368C29.0965 49.4368 29.6854 49.3559 30.2019 49.2452C32.0433 48.8506 34.1345 48.2494 35.6472 46.0954C37.0773 44.0592 37.7726 40.9923 37.8984 36.1597C37.9147 36.0231 37.9298 35.8926 37.9443 35.7682C37.9541 35.6843 37.964 35.5985 37.9741 35.5129L38.3111 35.5425L38.3979 35.5484C40.2734 35.6339 42.5665 35.2361 43.9748 34.582C45.0877 34.0655 48.6536 32.183 47.814 29.6411Z" fill="black"/>
<path id="Vector_2" d="M44.6072 30.1354C39.031 31.2856 38.6477 29.3976 38.6477 29.3976C44.5353 20.6614 46.9965 9.5721 44.8725 6.85804C39.0782 -0.545373 29.0478 2.95597 28.8804 3.04687L28.8266 3.05651C27.7249 2.82782 26.492 2.69158 25.1063 2.66896C22.5831 2.62762 20.6692 3.33043 19.2169 4.43177C19.2169 4.43177 1.32378 -2.9395 2.15596 13.7025C2.333 17.243 7.23044 40.4913 13.0719 33.4692C15.207 30.9015 17.2699 28.7304 17.2699 28.7304C18.2945 29.4111 19.5211 29.7583 20.807 29.6335L20.9069 29.5487C20.8758 29.8676 20.89 30.1794 20.9469 30.5485C19.4421 32.2299 19.8843 32.5251 16.876 33.1443C13.832 33.7716 15.6202 34.8885 16.7878 35.1804C18.2031 35.5343 21.4777 36.0357 23.6902 32.9384L23.602 33.2919C24.1916 33.7641 24.6057 36.3637 24.5363 38.7203C24.4669 41.0769 24.4205 42.6949 24.8851 43.9586C25.3497 45.2223 25.8128 48.0658 29.7674 47.2184C33.0718 46.5103 34.7842 44.6752 35.0224 41.6141C35.1915 39.438 35.574 39.7597 35.5982 37.8141L35.9051 36.893C36.2589 33.943 35.9613 32.9913 37.9971 33.434L38.4918 33.4774C39.9903 33.5456 41.9514 33.2364 43.1024 32.7014C45.5809 31.5512 47.0508 29.6308 44.607 30.1354H44.6072Z" fill="#336791"/>
<g id="Group">
<path id="Vector_3" d="M20.2642 15.286C19.7619 15.2161 19.3067 15.2808 19.0764 15.4551C18.9469 15.5532 18.9068 15.6668 18.8961 15.7451C18.8672 15.9522 19.0124 16.1813 19.1015 16.2994C19.3538 16.6339 19.7225 16.8638 20.0874 16.9145C20.1403 16.9218 20.1929 16.9253 20.2452 16.9253C20.8538 16.9253 21.4069 16.4515 21.4557 16.1018C21.5167 15.6638 20.8808 15.3718 20.2642 15.286Z" fill="white"/>
<path id="Vector_4" d="M36.9113 15.3C36.8634 14.9567 36.2523 14.8588 35.6725 14.9394C35.0936 15.0201 34.5321 15.2814 34.579 15.6255C34.6167 15.8931 35.0997 16.3499 35.6717 16.3498C35.72 16.3498 35.7687 16.3466 35.8178 16.3397C36.1996 16.2868 36.4797 16.0444 36.6128 15.9046C36.8155 15.6918 36.9327 15.4543 36.9113 15.3Z" fill="white"/>
<path id="Vector_5" d="M46.4628 30.0049C46.2502 29.3619 45.5659 29.1549 44.4289 29.3898C41.0529 30.0866 39.8439 29.6039 39.4469 29.3116C42.071 25.3139 44.2297 20.4819 45.3942 15.9733C45.9459 13.8377 46.2507 11.8544 46.2755 10.2379C46.303 8.46339 46.0009 7.15963 45.3776 6.36314C42.8646 3.15213 39.1766 1.42978 34.7122 1.38245C31.643 1.34797 29.0499 2.13349 28.5472 2.35431C27.4885 2.09103 26.3344 1.9294 25.0781 1.90879C22.774 1.87154 20.7825 2.42315 19.1336 3.54744C18.4173 3.28094 16.5663 2.64552 14.3027 2.28092C10.3891 1.65072 7.27933 2.12817 5.06002 3.70042C2.41193 5.57652 1.18942 8.93009 1.42632 13.6678C1.50602 15.2619 2.41414 20.1653 3.84749 24.8613C5.73413 31.042 7.78482 34.541 9.94272 35.2607C10.1952 35.3449 10.4866 35.4039 10.8076 35.4039C11.5948 35.4039 12.5598 35.0491 13.5639 33.842C15.2317 31.8355 16.7889 30.1542 17.3629 29.5433C18.2111 29.9987 19.1429 30.2528 20.0961 30.2783C20.0978 30.3033 20.1003 30.3282 20.1025 30.3531C19.9113 30.5799 19.7544 30.7786 19.6208 30.9483C18.9604 31.7866 18.8229 31.9611 16.6972 32.3989C16.0926 32.5236 14.4864 32.8546 14.463 33.9803C14.4374 35.2103 16.3613 35.7268 16.5806 35.7816C17.3445 35.9728 18.0803 36.0672 18.7821 36.0672C20.4891 36.0671 21.991 35.5061 23.1915 34.4207C23.1545 38.8056 23.3374 43.1264 23.8638 44.4429C24.2949 45.5205 25.3484 48.1544 28.6759 48.1542C29.164 48.1542 29.7015 48.0974 30.2927 47.9707C33.7653 47.2261 35.2733 45.6913 35.8567 42.3076C36.1689 40.4992 36.7047 36.1808 36.9565 33.8645C37.4883 34.0303 38.1729 34.1063 38.913 34.1061C40.4565 34.1061 42.2375 33.7782 43.3545 33.2598C44.6091 32.6771 46.8735 31.2471 46.4628 30.0049ZM38.193 14.3522C38.1815 15.0361 38.0873 15.6569 37.9876 16.3049C37.8803 17.0018 37.7692 17.7224 37.7413 18.5972C37.7137 19.4484 37.82 20.3335 37.9228 21.1893C38.1306 22.9179 38.3438 24.6977 37.5184 26.4539C37.3902 26.2261 37.2664 25.9775 37.1528 25.7023C37.0503 25.4536 36.8276 25.0542 36.5193 24.5014C35.3194 22.3497 32.5097 17.3109 33.948 15.2548C34.3764 14.6426 35.4636 14.0135 38.193 14.3522ZM34.8848 2.76724C38.8848 2.85559 42.049 4.35202 44.2893 7.21473C46.0076 9.41053 44.1155 19.4018 38.6381 28.0213C38.584 27.9526 38.5289 27.8832 38.4719 27.812C38.4492 27.7836 38.426 27.7546 38.4026 27.7254C39.818 25.3878 39.5412 23.075 39.2949 21.0244C39.1937 20.1829 39.0981 19.3881 39.1224 18.6416C39.1476 17.8501 39.2522 17.1716 39.3533 16.5153C39.4778 15.7065 39.6043 14.8698 39.5694 13.8833C39.5954 13.7799 39.6059 13.6576 39.5923 13.5125C39.5032 12.5665 38.4232 9.73556 36.2219 7.17293C35.0179 5.77151 33.2618 4.20303 30.8643 3.14515C31.8956 2.93142 33.3059 2.7321 34.8848 2.76724ZM12.5013 32.9585C11.3951 34.2885 10.6311 34.0336 10.3799 33.95C8.74294 33.4039 6.84367 29.9442 5.1691 24.4579C3.72012 19.7108 2.8733 14.9373 2.80635 13.5987C2.59473 9.36541 3.62091 6.41502 5.85651 4.82958C9.49475 2.24944 15.4765 3.79376 17.88 4.57705C17.8454 4.61109 17.8095 4.64301 17.7753 4.6776C13.8312 8.66093 13.9247 15.4665 13.9344 15.8824C13.934 16.043 13.9474 16.2702 13.966 16.5828C14.0338 17.7274 14.1601 19.8578 13.8227 22.2704C13.5091 24.5124 14.2002 26.7067 15.7185 28.2908C15.8756 28.4548 16.0397 28.6088 16.2092 28.7536C15.5333 29.4774 14.0646 31.0778 12.5013 32.9585ZM16.7161 27.3347C15.4924 26.058 14.9367 24.282 15.1912 22.4618C15.5475 19.9131 15.4159 17.6935 15.3453 16.501C15.3355 16.3342 15.3267 16.188 15.3215 16.0726C15.8977 15.5617 18.5679 14.1309 20.472 14.5673C21.3411 14.7664 21.8704 15.358 22.0906 16.3759C23.23 21.6451 22.2415 23.8414 21.4472 25.6062C21.2835 25.9698 21.1288 26.3134 20.9967 26.669L20.8944 26.9438C20.6352 27.6388 20.3941 28.2848 20.2446 28.8984C18.9439 28.8944 17.6784 28.3388 16.7161 27.3347ZM16.9158 34.441C16.536 34.3461 16.1944 34.1813 15.9939 34.0446C16.1613 33.9658 16.4593 33.8587 16.976 33.7523C19.4768 33.2374 19.8629 32.8741 20.7062 31.8033C20.8997 31.5578 21.1188 31.2795 21.4224 30.9405C21.4225 30.9403 21.4226 30.9401 21.4227 30.94C21.8749 30.4339 22.0816 30.5197 22.4566 30.6752C22.7606 30.801 23.0566 31.1819 23.1766 31.6012C23.2334 31.7992 23.2972 32.1751 23.0885 32.4674C21.3267 34.9341 18.7595 34.9024 16.9158 34.441ZM30.0031 46.6196C26.9438 47.2751 25.8606 45.7142 25.1469 43.9297C24.6861 42.7776 24.4598 37.5827 24.6204 31.8458C24.6225 31.7694 24.6116 31.6957 24.5906 31.6264C24.5723 31.4926 24.5441 31.3573 24.5051 31.221C24.2661 30.3863 23.684 29.688 22.9856 29.3986C22.7082 29.2836 22.1988 29.0727 21.5868 29.2292C21.7174 28.6915 21.9437 28.0843 22.189 27.4267L22.292 27.15C22.408 26.8382 22.5533 26.5152 22.7072 26.1733C23.5384 24.3267 24.6767 21.7975 23.4412 16.0838C22.9784 13.9437 21.4331 12.8987 19.0904 13.1413C17.6859 13.2867 16.4011 13.8534 15.7603 14.1783C15.6225 14.2481 15.4964 14.3155 15.3787 14.3812C15.5575 12.2249 16.2334 8.19523 18.7613 5.64569C20.3528 4.04052 22.4726 3.2478 25.0553 3.29048C30.1441 3.37384 33.4073 5.98535 35.2489 8.16153C36.8358 10.0369 37.6951 11.9258 38.0381 12.9446C35.4591 12.6824 33.705 13.1916 32.8158 14.4627C30.8814 17.2279 33.8741 22.595 35.3124 25.1744C35.5762 25.6472 35.8039 26.0557 35.8755 26.2293C36.3438 27.3644 36.9502 28.1222 37.393 28.6755C37.5286 28.845 37.6603 29.0094 37.7604 29.1529C36.9794 29.3782 35.5763 29.8984 35.7041 32.4992C35.601 33.8043 34.8676 39.9141 34.4951 42.0728C34.0034 44.9247 32.9539 45.987 30.0031 46.6196ZM42.7726 32.0064C41.9739 32.3773 40.6372 32.6554 39.3674 32.715C37.9649 32.7808 37.2509 32.558 37.083 32.4209C37.0041 30.8002 37.6075 30.6309 38.2459 30.4516C38.3462 30.4233 38.4441 30.396 38.5385 30.3629C38.5973 30.4107 38.6616 30.4581 38.732 30.5046C39.8592 31.2486 41.8699 31.3289 44.7084 30.743C44.7188 30.7408 44.7292 30.7388 44.7395 30.7367C44.3567 31.0947 43.7016 31.5751 42.7726 32.0064Z" fill="white"/>
</g>
</g>
<defs>
<clipPath id="clip0_54_2071">
<rect width="48" height="49.5" fill="white"/>
</clipPath>
</defs>
</svg>
