<svg width="48" height="48" viewBox="0 0 48 48" fill="none" xmlns="http://www.w3.org/2000/svg">
<g id="gcp-color">
<path id="Vector" d="M30.168 17.0027L35.2002 13.0003L34.3146 11.8996C30.2652 8.34632 24.5918 7.10988 19.4183 8.65238C14.2448 10.1949 10.2251 14.3619 8.81087 19.5442C8.72863 19.8454 9.64149 19.2827 10.045 19.3934L16.9988 18.2533C16.9988 18.2533 17.3388 17.9224 17.5356 17.7075C20.6288 14.3302 25.872 13.8891 29.4434 16.7626L30.168 17.0027Z" fill="#EA4335"/>
<path id="Vector_2" d="M39.0312 19.4661C38.232 16.5403 36.5912 13.91 34.31 11.8979L29.4302 16.7493C31.4908 18.4232 32.6646 20.9448 32.6142 23.5898V24.451C35.0128 24.451 36.9574 26.384 36.9574 28.7686C36.9574 31.1532 35.0128 33.0864 32.6142 33.0864L23.9282 33.08L23.062 33.1718V39.8594L23.9282 39.9996H32.6142C37.5946 40.0382 42.0126 36.8298 43.4904 32.1012C44.968 27.3728 43.1566 22.2402 39.0312 19.4661Z" fill="#4285F4"/>
<path id="Vector_3" d="M15.2302 39.9965H23.9162V33.0801H15.2302C14.6114 33.0799 13.9998 32.9055 13.4369 32.6499L12.2169 33.0257L8.71564 36.4825L8.41064 37.6751C10.3741 39.1491 12.7699 40.0071 15.2302 39.9965Z" fill="#34A853"/>
<path id="Vector_4" d="M15.23 17.5255C10.4052 17.5541 6.13122 20.626 4.59142 25.172C3.0516 29.718 4.58586 34.7506 8.41044 37.675L13.4489 32.6496C11.6885 31.859 10.665 30.0074 10.9373 28.1062C11.2097 26.205 12.7123 24.711 14.6247 24.4402C16.5371 24.1696 18.3995 25.187 19.1949 26.9372L24.2332 21.9282C22.0896 19.1419 18.7584 17.513 15.23 17.5255Z" fill="#FBBC05"/>
</g>
</svg>
