<svg width="48" height="48" viewBox="0 0 48 48" fill="none" xmlns="http://www.w3.org/2000/svg">
<g id="airplane-svgrepo-com">
<path id="Vector" d="M19.08 39.3001C19.02 39.3001 18.96 39.3001 18.9 39.3001C18.48 39.2401 18.18 39.0001 17.94 38.6401L15 33.3001L9.65999 30.3601C9.29999 30.1801 9.05999 29.8201 8.99999 29.4001C8.93999 28.9801 9.05999 28.6201 9.35999 28.3201L12.06 25.6201C12.36 25.3201 12.78 25.2001 13.2 25.2601L16.26 25.8001L20.28 21.7801L10.56 16.9801C10.2 16.8001 9.95999 16.4401 9.83999 16.0201C9.71999 15.6001 9.89999 15.1801 10.2 14.8801L13.2 11.8801C13.5 11.5801 13.98 11.4601 14.4 11.5201L27.12 14.8201L31.56 10.3801C33.12 8.82011 36.78 7.68011 38.64 9.54011C39.48 10.3801 39.78 11.7601 39.48 13.3201C39.24 14.5801 38.58 15.7801 37.8 16.5601L33.36 21.0001L36.66 33.7201C36.78 34.1401 36.66 34.6201 36.3 34.9201L33.3 37.9201C33 38.2201 32.58 38.3401 32.16 38.2801C31.74 38.2201 31.38 37.9801 31.2 37.5601L26.4 27.8401L22.38 31.8601L22.92 34.9201C22.98 35.3401 22.86 35.7601 22.56 36.0601L19.86 38.7601C19.74 39.1801 19.44 39.3001 19.08 39.3001ZM12.36 28.9201L16.56 31.2001C16.8 31.3201 16.92 31.5001 17.04 31.6801L19.32 35.8801L20.34 34.8601L19.86 31.8001C19.8 31.3801 19.92 30.9601 20.22 30.6601L25.98 24.9001C26.28 24.6001 26.7 24.4801 27.12 24.5401C27.54 24.6001 27.9 24.8401 28.08 25.2601L32.88 34.9801L34.08 33.7801L30.78 21.0601C30.66 20.6401 30.78 20.1601 31.14 19.8601L36.06 14.9401C36.96 14.0401 37.44 12.0001 36.9 11.4601C36.36 10.9201 34.32 11.4601 33.42 12.3001L28.5 17.2201C28.2 17.5201 27.72 17.6401 27.3 17.5801L14.52 14.2801L13.32 15.4801L23.04 20.2801C23.4 20.4601 23.64 20.8201 23.76 21.2401C23.88 21.6601 23.7 22.0801 23.4 22.3801L17.64 28.1401C17.34 28.4401 16.92 28.5601 16.5 28.5001L13.44 27.9601L12.36 28.9201Z" fill="black"/>
</g>
</svg>
