<svg width="80" height="32" viewBox="0 0 80 32" fill="none" xmlns="http://www.w3.org/2000/svg">
<path d="M28.6733 11.8697L20.495 16.3947C20.1883 16.563 20 16.8764 20 17.2147V26.2697C20 26.608 20.1883 26.9197 20.495 27.0897L28.675 31.618C28.98 31.7864 29.3583 31.7864 29.6633 31.618L37.8417 27.0897C38.145 26.9197 38.3333 26.608 38.3333 26.2697V17.2147C38.3333 16.8764 38.145 16.5647 37.8383 16.3947L29.6617 11.8697C29.5083 11.7847 29.3367 11.743 29.1667 11.743C28.995 11.743 28.825 11.7847 28.6717 11.8697M70.7517 20.0214L69.3883 20.7747C69.3367 20.803 69.3067 20.8547 69.3067 20.9114V22.4214C69.3067 22.478 69.3383 22.5297 69.3883 22.558L70.7517 23.313C70.8033 23.3414 70.865 23.3414 70.9167 23.313L72.28 22.558C72.33 22.5297 72.3617 22.478 72.3617 22.4214V20.9114C72.3617 20.8547 72.33 20.803 72.2783 20.7747L70.915 20.0214C70.89 20.0064 70.8617 19.9997 70.8333 19.9997C70.805 19.9997 70.7767 20.0064 70.7517 20.0214Z" fill="#388E3C"/>
<path d="M59.5848 2.27295L55.6032 0.0512789C55.4782 -0.0187211 55.3248 -0.017054 55.2015 0.0562793C55.0782 0.129613 55.0015 0.261279 55.0015 0.404612L54.9998 13.8246L51.3282 11.7929C51.1748 11.7079 51.0032 11.6663 50.8332 11.6663C50.6632 11.6663 50.4915 11.7079 50.3382 11.7929H50.3398L42.1615 16.3179C41.8548 16.4863 41.6665 16.7996 41.6665 17.1363V26.1913C41.6665 26.5296 41.8548 26.8413 42.1615 27.0113L50.3415 31.5396C50.6465 31.7079 51.0248 31.7079 51.3298 31.5396L59.5082 27.0113C59.8115 26.8429 59.9998 26.5296 59.9998 26.1913V2.97961C59.9998 2.68628 59.8398 2.41628 59.5848 2.27295ZM54.7765 24.0963L51.0598 26.1546C50.9215 26.2313 50.7498 26.2313 50.6115 26.1546L46.8932 24.0963C46.7515 24.0196 46.6665 23.8763 46.6665 23.7229V19.6063C46.6665 19.4529 46.7515 19.3113 46.8915 19.2329L50.6098 17.1763C50.6798 17.1379 50.7548 17.1196 50.8332 17.1196C50.9115 17.1196 50.9882 17.1396 51.0582 17.1763L54.7748 19.2329C54.9148 19.3113 54.9998 19.4546 54.9998 19.6079V23.7246C54.9998 23.8763 54.9148 24.0196 54.7765 24.0963Z" fill="#37474F"/>
<path d="M28.6733 11.8697L20 26.2697C20 26.608 20.1883 26.9197 20.495 27.0897L28.675 31.618C28.98 31.7864 29.3583 31.7864 29.6633 31.618L38.3333 17.2147C38.3333 16.8764 38.145 16.5647 37.8383 16.3947L29.6617 11.8697C29.5083 11.7847 29.3367 11.743 29.1667 11.743C28.995 11.743 28.825 11.7847 28.6717 11.8697" fill="#2E7D32"/>
<path d="M28.6733 11.8697L20.495 16.3947C20.1883 16.563 20 16.8764 20 17.2147L28.6733 31.618C28.9783 31.7864 29.3567 31.7864 29.6617 31.618L37.84 27.0897C38.145 26.9197 38.3333 26.608 38.3333 26.2697L29.6617 11.8697C29.5083 11.7847 29.3367 11.743 29.1667 11.743C28.995 11.743 28.825 11.7847 28.6717 11.8697" fill="#4CAF50"/>
<path d="M79.505 16.3178L71.3283 11.7928C71.175 11.7078 71.0033 11.6661 70.8333 11.6661C70.6633 11.6661 70.4917 11.7078 70.3383 11.7928L62.1617 16.3178C61.8567 16.4861 61.6667 16.8061 61.6667 17.1561V26.1745C61.6667 26.5228 61.8567 26.8445 62.1617 27.0128L70.3417 31.5411C70.6483 31.7111 71.0233 31.7111 71.33 31.5411L75.1017 29.4528C75.4467 29.2611 75.445 28.7661 75.0983 28.5761L66.8917 24.0978C66.7533 24.0195 66.6667 23.8745 66.6667 23.7178V19.6078C66.6667 19.4545 66.75 19.3128 66.8833 19.2395L70.6083 17.1795H70.6067C70.6767 17.1411 70.7533 17.1228 70.8317 17.1228C70.91 17.1228 70.9867 17.1428 71.0567 17.1795L74.7817 19.2411C74.915 19.3145 74.9983 19.4561 74.9983 19.6095V22.9628C74.9983 23.1061 75.075 23.2395 75.2 23.3111C75.325 23.3811 75.4783 23.3811 75.6033 23.3095L79.6 20.9878C79.8467 20.8445 80 20.5795 80 20.2928V17.1595C80 16.8078 79.81 16.4861 79.505 16.3178ZM17.8383 16.3178L9.66167 11.7928C9.50833 11.7078 9.33667 11.6661 9.16667 11.6661C8.99667 11.6661 8.825 11.7078 8.67167 11.7928L0.495 16.3178C0.19 16.4861 0 16.8061 0 17.1561V29.5978C0 29.7411 0.0766667 29.8745 0.201667 29.9461C0.326667 30.0161 0.48 30.0161 0.605 29.9445L4.60167 27.6228C4.84833 27.4795 5 27.2145 5 26.9278V19.6061C5 19.4528 5.08333 19.3111 5.21667 19.2378L8.94167 17.1778C9.01167 17.1395 9.08833 17.1211 9.16667 17.1211C9.245 17.1211 9.32167 17.1411 9.39167 17.1778L13.1167 19.2395C13.25 19.3128 13.3333 19.4545 13.3333 19.6078V26.9295C13.3333 27.2161 13.485 27.4811 13.7333 27.6245L17.73 29.9461C17.855 30.0178 18.0083 30.0178 18.1333 29.9478C18.2567 29.8745 18.3333 29.7411 18.3333 29.5978V17.1578C18.3333 16.8078 18.1433 16.4861 17.8383 16.3178Z" fill="#37474F"/>
</svg>
