<svg width="48" height="48" viewBox="0 0 48 48" fill="none" xmlns="http://www.w3.org/2000/svg">
<g id="mysql-original-wordmark">
<path id="Vector" d="M0.750375 33.9218H2.29088V27.8382L4.67587 33.1418C4.95712 33.7838 5.34225 34.0107 6.09787 34.0107C6.8535 34.0107 7.224 33.7838 7.50525 33.1418L9.89025 27.8382V33.9218H11.4307V27.8483C11.4307 27.2558 11.1937 26.9689 10.7048 26.8212C9.53438 26.4559 8.74913 26.772 8.39362 27.5622L6.05325 32.7964L3.78713 27.5618C3.44625 26.772 2.64638 26.4559 1.476 26.8208C0.987 26.9689 0.75 27.2554 0.75 27.8479L0.750375 33.9218ZM12.7121 28.9695H14.2523V32.3213C14.238 32.5032 14.3107 32.9307 15.1545 32.9442C15.585 32.9509 18.4778 32.9442 18.5047 32.9442V28.953H20.0486C20.0557 28.953 20.0471 34.3958 20.0471 34.4183C20.0554 35.7608 18.3818 36.0522 17.61 36.0747H12.7455V35.0382C12.7537 35.0382 17.6066 35.0393 17.6186 35.0378C18.6105 34.9332 18.4931 34.4404 18.4928 34.2747V33.8704H15.2186C13.6954 33.8565 12.7249 33.1917 12.7125 32.4267C12.7118 32.3565 12.7459 29.0033 12.7121 28.9695Z" fill="#00618A"/>
<path id="Vector_2" d="M21.2362 33.9217H25.6657C26.1843 33.9217 26.6883 33.8133 27.0881 33.6258C27.7545 33.3198 28.0803 32.905 28.0803 32.3613V31.2355C28.0803 30.7912 27.7102 30.376 26.9842 30.1C26.5991 29.9515 26.1247 29.8732 25.6653 29.8732H23.7986C23.1765 29.8732 22.8802 29.6857 22.8063 29.2709C22.7917 29.2214 22.7917 29.182 22.7917 29.1325V28.4313C22.7917 28.3919 22.7917 28.3522 22.8063 28.303C22.8802 27.9869 23.0433 27.898 23.5916 27.8485L23.7397 27.8388H28.1396V26.812H23.814C23.1918 26.812 22.866 26.8514 22.5697 26.9403C21.6513 27.2268 21.2508 27.6809 21.2508 28.471V29.3695C21.2508 30.061 22.0365 30.6535 23.3546 30.7919C23.5031 30.8013 23.6508 30.8118 23.799 30.8118H25.3991C25.4583 30.8118 25.5176 30.8118 25.5622 30.8212C26.0512 30.8605 26.2582 30.9498 26.4067 31.1272C26.4956 31.216 26.5248 31.3053 26.5248 31.4035V32.3024C26.5248 32.4108 26.451 32.5492 26.3028 32.6677C26.1697 32.7862 25.9473 32.8653 25.6511 32.8852L25.488 32.8949H21.2362V33.9217ZM37.6916 32.1344C37.6916 33.1908 38.4768 33.7833 40.0616 33.9022C40.2097 33.9119 40.3578 33.9217 40.506 33.9217H44.5207V32.8949H40.4767C39.573 32.8949 39.2325 32.6677 39.2325 32.1243V26.8113H37.692L37.6916 32.1344ZM29.0636 32.1877V28.5258C29.0636 27.5958 29.7168 27.0314 31.0083 26.8533C31.1418 26.8334 31.2907 26.8237 31.4238 26.8237H34.3485C34.497 26.8237 34.6305 26.8334 34.7786 26.8533C36.0701 27.0314 36.7237 27.5954 36.7237 28.5258V32.1877C36.7237 32.9429 36.4462 33.3464 35.8068 33.6097L37.3248 34.9795H35.5357L34.308 33.871L33.072 33.9494H31.4238C31.1418 33.9494 30.8452 33.91 30.5186 33.8208C29.5387 33.5538 29.0636 33.0389 29.0636 32.1877ZM30.7263 32.0988C30.7263 32.1483 30.741 32.1982 30.756 32.2574C30.8448 32.683 31.2461 32.9204 31.8543 32.9204H33.2538L31.9683 31.7598H33.7575L34.8783 32.7723C35.0853 32.6617 35.2211 32.4937 35.2687 32.2773C35.2833 32.2278 35.2833 32.1783 35.2833 32.1288V28.6158C35.2833 28.5764 35.2833 28.5265 35.2687 28.477C35.1795 28.081 34.7786 27.8538 34.185 27.8538H31.854C31.1715 27.8538 30.726 28.1508 30.726 28.6158L30.7263 32.0988Z" fill="#E48E00"/>
<path id="Vector_3" d="M45.876 25.1071C44.9291 25.0812 44.2057 25.1693 43.587 25.43C43.4111 25.5042 43.131 25.5061 43.1025 25.7262C43.1988 25.8278 43.2138 25.979 43.2907 26.1035C43.4385 26.3423 43.6878 26.6626 43.9102 26.8302C44.1528 27.0136 44.4033 27.2101 44.6643 27.3691C45.1275 27.6518 45.645 27.8131 46.0916 28.0958C46.3545 28.2631 46.6155 28.4731 46.8723 28.6617C46.9995 28.7543 47.0842 28.8995 47.2496 28.9576V28.931C47.163 28.8207 47.1405 28.6692 47.061 28.5537L46.7107 28.2035C46.3683 27.749 45.9341 27.3503 45.4717 27.0188C45.1035 26.7545 44.2792 26.3971 44.1255 25.9685L44.0985 25.9418C44.3595 25.9122 44.6655 25.8177 44.9062 25.7532C45.3112 25.6445 45.6731 25.6726 46.0912 25.5646L46.6567 25.4026V25.2953C46.4456 25.0786 46.2945 24.7913 46.0642 24.5952C45.4616 24.0818 44.8031 23.5688 44.1255 23.1406C43.7497 22.9036 43.2851 22.7495 42.8865 22.5485C42.753 22.4806 42.5175 22.4457 42.4286 22.3328C42.219 22.0662 42.1053 21.7283 41.9437 21.4175C41.6062 20.7668 41.274 20.0558 40.9743 19.3707C40.7703 18.9038 40.6368 18.4433 40.3822 18.0245C39.1593 16.0141 37.8431 14.8006 35.8042 13.6081C35.3703 13.3542 34.848 13.2545 34.2963 13.1236L33.4076 13.0696C33.2272 12.9942 33.039 12.773 32.8691 12.6657C32.1933 12.239 30.4608 11.3108 29.9606 12.5315C29.6448 13.3017 30.4331 14.0532 30.7147 14.4436C30.9123 14.7173 31.1658 15.0241 31.3072 15.332C31.4002 15.5345 31.416 15.7373 31.4958 15.9515C31.6912 16.4787 31.8618 17.0528 32.115 17.54C32.2428 17.7867 32.3842 18.0466 32.5458 18.2671C32.6448 18.4021 32.8151 18.4621 32.8417 18.671C32.6756 18.9035 32.6658 19.265 32.5725 19.5593C32.1517 20.8865 32.3103 22.5361 32.9227 23.5182C33.1106 23.8201 33.5531 24.4666 34.1613 24.2183C34.6935 24.0016 34.575 23.33 34.7272 22.7371C34.7617 22.6032 34.7403 22.5042 34.8078 22.4142V22.4412L35.2927 23.4106C35.6516 23.9885 36.288 24.5918 36.8276 24.9995C37.1073 25.2106 37.3278 25.5762 37.6893 25.6996V25.6722H37.6627C37.5922 25.5631 37.4831 25.5181 37.3931 25.43C37.1823 25.2233 36.948 24.9668 36.774 24.7298C36.2831 24.0638 35.8496 23.3345 35.4543 22.5755C35.2657 22.2132 35.1018 21.8135 34.9428 21.4445C34.8813 21.3023 34.8821 21.0871 34.7546 21.014C34.5798 21.284 34.3237 21.5026 34.1887 21.8217C33.9735 22.3317 33.9457 22.9538 33.8658 23.5988L33.8118 23.6255C33.4365 23.5351 33.3048 23.1488 33.1653 22.8177C32.8128 21.9803 32.7472 20.6315 33.0577 19.6673C33.138 19.4176 33.5006 18.632 33.3536 18.4013C33.2835 18.1715 33.0521 18.0387 32.9231 17.8625C32.763 17.6453 32.6028 17.3596 32.4922 17.1083C32.2035 16.4555 32.0688 15.7223 31.7655 15.062C31.62 14.7462 31.3747 14.4271 31.173 14.1466C30.9498 13.8353 30.6997 13.6066 30.5265 13.2308C30.465 13.0973 30.3813 12.8832 30.4725 12.746C30.5013 12.6533 30.543 12.6147 30.6345 12.5843C30.7905 12.464 31.2255 12.6245 31.3882 12.692C31.8202 12.8716 32.1806 13.0422 32.5466 13.2845C32.7221 13.4011 32.8995 13.6261 33.1121 13.6883H33.3543C33.7335 13.7753 34.1583 13.715 34.5123 13.8226C35.1386 14.0131 35.6996 14.309 36.2088 14.6307C37.761 15.611 39.0296 17.006 39.8981 18.6702C40.0376 18.9383 40.0983 19.1937 40.221 19.478C40.4692 20.051 40.782 20.6408 41.0287 21.2015C41.2751 21.7606 41.5155 22.325 41.8638 22.7903C42.0468 23.0348 42.7541 23.1661 43.0755 23.3018C43.3008 23.3971 43.6698 23.4965 43.8832 23.6247C44.2908 23.8707 44.6861 24.1636 45.0682 24.4328C45.2591 24.5686 45.8467 24.8637 45.876 25.1071ZM33.8388 14.8475C33.6416 14.8437 33.5017 14.8692 33.354 14.9015V14.9281H33.381C33.4751 15.122 33.6412 15.2465 33.7578 15.413L34.0275 15.9785L34.0541 15.9518C34.221 15.8345 34.2971 15.6466 34.2963 15.3593C34.2292 15.2888 34.2195 15.2007 34.1617 15.1171C34.0852 15.0046 33.936 14.9416 33.8388 14.8475Z" fill="#00618A"/>
</g>
</svg>
