<svg width="48" height="29" viewBox="0 0 48 29" fill="none" xmlns="http://www.w3.org/2000/svg">
<g id="aws" clip-path="url(#clip0_54_2023)">
<path id="Vector" d="M13.5735 10.3947C13.5735 10.9828 13.6371 11.4596 13.7484 11.8092C13.8755 12.1589 14.0345 12.5404 14.257 12.9536C14.3365 13.0808 14.3682 13.2079 14.3682 13.3192C14.3682 13.4781 14.2729 13.6371 14.0663 13.796L13.0649 14.4636C12.9219 14.5589 12.7788 14.6066 12.6517 14.6066C12.4927 14.6066 12.3338 14.5271 12.1749 14.3841C11.9524 14.1457 11.7616 13.8914 11.6027 13.6371C11.4437 13.3669 11.2848 13.0649 11.11 12.6993C9.87023 14.1616 8.31262 14.8927 6.43712 14.8927C5.10202 14.8927 4.03712 14.5112 3.25831 13.7483C2.4795 12.9854 2.08215 11.9682 2.08215 10.6967C2.08215 9.34567 2.55897 8.24898 3.52851 7.42249C4.49805 6.596 5.78546 6.18276 7.42255 6.18276C7.96295 6.18276 8.51924 6.23044 9.10732 6.30991C9.6954 6.38938 10.2994 6.51653 10.9351 6.65958V5.49931C10.9351 4.29137 10.6808 3.44898 10.1881 2.95627C9.6795 2.46355 8.82123 2.22514 7.59738 2.22514C7.04109 2.22514 6.46891 2.28872 5.88083 2.43176C5.29275 2.57481 4.72056 2.74964 4.16427 2.97216C3.90997 3.08342 3.71924 3.14699 3.60798 3.17878C3.49672 3.21057 3.41725 3.22647 3.35368 3.22647C3.13116 3.22647 3.0199 3.06752 3.0199 2.73375V1.95494C3.0199 1.70064 3.05169 1.50991 3.13116 1.39865C3.21063 1.28739 3.35368 1.17613 3.57619 1.06488C4.13248 0.778783 4.80003 0.540372 5.57884 0.349644C6.35765 0.143021 7.18414 0.0476572 8.05831 0.0476572C9.9497 0.0476572 11.3325 0.476796 12.2225 1.33507C13.0967 2.19335 13.5418 3.49666 13.5418 5.24501V10.3947H13.5735ZM7.12056 12.8106C7.64507 12.8106 8.18546 12.7152 8.75765 12.5245C9.32983 12.3337 9.83844 11.9841 10.2676 11.5073C10.5219 11.2053 10.7126 10.8715 10.808 10.49C10.9033 10.1086 10.9669 9.64766 10.9669 9.10726V8.43971C10.506 8.32845 10.0133 8.23309 9.50467 8.16951C8.99606 8.10594 8.50334 8.07415 8.01063 8.07415C6.94573 8.07415 6.16692 8.28077 5.64242 8.70991C5.11791 9.13905 4.86361 9.74302 4.86361 10.5377C4.86361 11.2847 5.05434 11.841 5.45169 12.2225C5.83315 12.6198 6.38944 12.8106 7.12056 12.8106ZM19.8835 14.5271C19.5974 14.5271 19.4067 14.4794 19.2795 14.3682C19.1523 14.2728 19.0411 14.0503 18.9457 13.7483L15.2106 1.46223C15.1153 1.14435 15.0676 0.937723 15.0676 0.826465C15.0676 0.572161 15.1947 0.429114 15.449 0.429114H17.0067C17.3086 0.429114 17.5153 0.476796 17.6265 0.588055C17.7537 0.683419 17.849 0.905935 17.9444 1.20792L20.6146 11.7298L23.0941 1.20792C23.1735 0.890041 23.2689 0.683419 23.3961 0.588055C23.5232 0.49269 23.7457 0.429114 24.0318 0.429114H25.3033C25.6053 0.429114 25.812 0.476796 25.9391 0.588055C26.0663 0.683419 26.1775 0.905935 26.2411 1.20792L28.7523 11.8569L31.502 1.20792C31.5974 0.890041 31.7086 0.683419 31.8199 0.588055C31.9471 0.49269 32.1537 0.429114 32.4398 0.429114H33.9179C34.1722 0.429114 34.3153 0.556266 34.3153 0.826465C34.3153 0.905935 34.2994 0.985406 34.2835 1.08077C34.2676 1.17613 34.2358 1.30329 34.1722 1.47812L30.3418 13.7642C30.2464 14.0821 30.1351 14.2887 30.008 14.3841C29.8808 14.4794 29.6742 14.543 29.404 14.543H28.0371C27.7351 14.543 27.5285 14.4953 27.4014 14.3841C27.2742 14.2728 27.1629 14.0662 27.0994 13.7483L24.6358 3.49666L22.1881 13.7324C22.1086 14.0503 22.0133 14.2569 21.8861 14.3682C21.759 14.4794 21.5365 14.5271 21.2504 14.5271H19.8835ZM40.3073 14.9563C39.4808 14.9563 38.6543 14.8609 37.8596 14.6702C37.0649 14.4794 36.4451 14.2728 36.0318 14.0344C35.7775 13.8914 35.6027 13.7324 35.5391 13.5894C35.4755 13.4463 35.4437 13.2874 35.4437 13.1443V12.3337C35.4437 12 35.5709 11.841 35.8093 11.841C35.9047 11.841 36 11.8569 36.0954 11.8887C36.1908 11.9205 36.3338 11.9841 36.4927 12.0477C37.0331 12.2861 37.6212 12.4768 38.2411 12.6039C38.8769 12.7311 39.4967 12.7947 40.1325 12.7947C41.1338 12.7947 41.9126 12.6198 42.453 12.2702C42.9934 11.9205 43.2795 11.4119 43.2795 10.7602C43.2795 10.3152 43.1365 9.94964 42.8504 9.64766C42.5643 9.34567 42.0239 9.07547 41.2451 8.82117L38.9404 8.10594C37.7802 7.74037 36.9219 7.19998 36.3974 6.48474C35.8729 5.78541 35.6027 5.0066 35.6027 4.18011C35.6027 3.51256 35.7457 2.92448 36.0318 2.41587C36.3179 1.90726 36.6994 1.46223 37.1762 1.11256C37.653 0.746995 38.1934 0.476796 38.8292 0.286068C39.4649 0.0953393 40.1325 0.0158691 40.8318 0.0158691C41.1815 0.0158691 41.5471 0.0317632 41.8967 0.0794453C42.2623 0.127127 42.5961 0.190704 42.9298 0.25428C43.2477 0.33375 43.5497 0.41322 43.8358 0.508584C44.1219 0.603949 44.3444 0.699313 44.5033 0.794677C44.7259 0.921829 44.8848 1.04898 44.9802 1.19203C45.0755 1.31918 45.1232 1.49401 45.1232 1.71653V2.46355C45.1232 2.79733 44.9961 2.97216 44.7576 2.97216C44.6305 2.97216 44.4239 2.90858 44.1537 2.78143C43.2477 2.36819 42.2305 2.16156 41.102 2.16156C40.1961 2.16156 39.4808 2.30461 38.9881 2.6066C38.4954 2.90858 38.2411 3.36951 38.2411 4.02117C38.2411 4.4662 38.4 4.84766 38.7179 5.14964C39.0358 5.45163 39.6239 5.75362 40.4663 6.02382L42.7232 6.73905C43.8676 7.10461 44.6941 7.61322 45.1868 8.26488C45.6795 8.91653 45.9179 9.66355 45.9179 10.49C45.9179 11.1735 45.7749 11.7934 45.5047 12.3337C45.2186 12.8741 44.8371 13.351 44.3444 13.7324C43.8517 14.1298 43.2636 14.4159 42.5802 14.6225C41.8649 14.845 41.1179 14.9563 40.3073 14.9563Z" fill="#252F3E"/>
<path id="Vector_2" d="M43.3113 22.6807C38.0821 26.543 30.4848 28.5933 23.9523 28.5933C14.7974 28.5933 6.54838 25.2079 0.317912 19.5814C-0.174803 19.1363 0.27023 18.5324 0.85831 18.882C7.59738 22.792 15.91 25.1602 24.5086 25.1602C30.31 25.1602 36.6835 23.9522 42.5484 21.4728C43.4225 21.0754 44.1696 22.0449 43.3113 22.6807ZM45.4888 20.2012C44.8212 19.343 41.0702 19.788 39.3696 19.9946C38.861 20.0582 38.7815 19.6132 39.2424 19.2794C42.2305 17.1814 47.1418 17.7853 47.7139 18.4847C48.2861 19.1999 47.555 24.1112 44.7576 26.4635C44.3285 26.829 43.9153 26.6383 44.106 26.1615C44.7417 24.588 46.1563 21.0436 45.4888 20.2012Z" fill="#FF9900"/>
</g>
<defs>
<clipPath id="clip0_54_2023">
<rect width="48" height="28.6875" fill="white"/>
</clipPath>
</defs>
</svg>
