<svg width="48" height="50" viewBox="0 0 48 50" fill="none" xmlns="http://www.w3.org/2000/svg">
<g id="laravel" clip-path="url(#clip0_54_1939)">
<path id="Vector" d="M47.9729 11.1787C47.9907 11.2445 48 11.3125 48 11.3807V21.9872C48 22.2643 47.8518 22.5203 47.6114 22.6581L38.7091 27.7835V37.9424C38.7091 38.2189 38.5622 38.4741 38.3225 38.6133L19.7398 49.3107C19.6973 49.3349 19.6509 49.3503 19.6045 49.3668C19.5871 49.3726 19.5706 49.3832 19.5523 49.388C19.4224 49.4222 19.2858 49.4222 19.1559 49.388C19.1347 49.3822 19.1153 49.3706 19.095 49.3629C19.0525 49.3474 19.008 49.3339 18.9674 49.3107L0.388609 38.6133C0.148382 38.4753 0 38.2195 0 37.9424V6.12289C0 6.05329 0.0096669 5.98562 0.0270673 5.91988C0.0328674 5.89765 0.0464011 5.87735 0.0541346 5.85511C0.0686349 5.81451 0.0821686 5.77294 0.103436 5.73524C0.117936 5.71011 0.139203 5.68981 0.156604 5.66661C0.178838 5.63568 0.199138 5.60377 0.225239 5.57671C0.247473 5.55447 0.276473 5.53804 0.301607 5.51871C0.329641 5.4955 0.354775 5.47037 0.386676 5.452H0.387643L9.67753 0.103311C9.91691 -0.0344371 10.2115 -0.0344371 10.4509 0.103311L19.7408 5.452H19.7427C19.7736 5.47134 19.7997 5.4955 19.8278 5.51774C19.8529 5.53707 19.8809 5.55447 19.9032 5.57574C19.9302 5.60377 19.9496 5.63568 19.9728 5.66661C19.9892 5.68981 20.0114 5.71011 20.025 5.73524C20.0472 5.77391 20.0598 5.81451 20.0752 5.85511C20.083 5.87735 20.0965 5.89765 20.1023 5.92085C20.1201 5.98672 20.1292 6.05465 20.1294 6.12289V25.9971L27.8706 21.5396V11.3797C27.8706 11.3121 27.8803 11.2434 27.8977 11.1787C27.9045 11.1555 27.917 11.1352 27.9248 11.1129C27.9402 11.0723 27.9538 11.0308 27.975 10.9931C27.9895 10.9679 28.0108 10.9476 28.0272 10.9244C28.0504 10.8935 28.0698 10.8616 28.0968 10.8345C28.1191 10.8123 28.1471 10.7959 28.1722 10.7765C28.2012 10.7533 28.2264 10.7282 28.2573 10.7098H28.2583L37.5491 5.36114C37.7884 5.22319 38.0831 5.22319 38.3225 5.36114L47.6124 10.7098C47.6452 10.7292 47.6704 10.7533 47.6994 10.7756C47.7235 10.7949 47.7516 10.8123 47.7738 10.8336C47.8009 10.8616 47.8202 10.8935 47.8434 10.9244C47.8608 10.9476 47.8821 10.9679 47.8956 10.9931C47.9178 11.0308 47.9304 11.0723 47.9459 11.1129C47.9546 11.1352 47.9671 11.1555 47.9729 11.1787ZM46.4514 21.5396V12.7196L43.2004 14.5911L38.7091 17.177V25.9971L46.4523 21.5396H46.4514ZM37.1615 37.4949V28.669L32.7437 31.192L20.1284 38.3919V47.301L37.1615 37.4949ZM1.54864 7.46175V37.4949L18.5798 47.3V38.3929L9.68236 33.3574L9.67946 33.3555L9.67559 33.3536C9.64563 33.3362 9.62049 33.311 9.59246 33.2898C9.56829 33.2704 9.54026 33.255 9.51899 33.2337L9.51706 33.2308C9.49192 33.2066 9.47452 33.1767 9.45326 33.1496C9.43392 33.1235 9.41072 33.1013 9.39526 33.0742L9.39429 33.0713C9.37689 33.0423 9.36625 33.0075 9.35369 32.9746C9.34112 32.9456 9.32469 32.9186 9.31695 32.8876V32.8867C9.30729 32.8499 9.30535 32.8113 9.30149 32.7736C9.29762 32.7445 9.28989 32.7155 9.28989 32.6866V32.6846V11.9192L4.79961 9.3323L1.54864 7.46272V7.46175ZM10.0652 1.66741L2.32489 6.12289L10.0632 10.5784L17.8026 6.12192L10.0632 1.66741H10.0652ZM14.0905 29.4733L18.5807 26.8883V7.46175L15.3298 9.33326L10.8385 11.9192V31.3458L14.0905 29.4733ZM37.9358 6.92524L30.1965 11.3807L37.9358 15.8362L45.6741 11.3797L37.9358 6.92524ZM37.1615 17.177L32.6702 14.5911L29.4193 12.7196V21.5396L33.9095 24.1246L37.1615 25.9971V17.177ZM19.3531 37.0531L30.705 30.5724L36.3794 27.334L28.6459 22.8814L19.7417 28.0078L11.6264 32.6798L19.3531 37.0531Z" fill="#FF2D20"/>
</g>
<defs>
<clipPath id="clip0_54_1939">
<rect width="48" height="49.5" fill="white"/>
</clipPath>
</defs>
</svg>
