<svg width="48" height="38" viewBox="0 0 48 38" fill="none" xmlns="http://www.w3.org/2000/svg">
<g id="microsoft-azure" clip-path="url(#clip0_54_1896)">
<path id="Vector" d="M22.206 35.1934C28.3729 34.104 33.4664 33.2025 33.5249 33.1901L33.6312 33.1676L27.8091 26.2423C24.6069 22.4334 21.9869 19.3023 21.9869 19.2842C21.9869 19.25 27.9988 2.69468 28.0326 2.63575C28.0439 2.61609 32.1352 9.67953 37.9501 19.758C43.3941 29.1937 47.8824 36.9734 47.9241 37.0463L48 37.1789L29.4967 37.1765L10.9935 37.1741L22.206 35.1934ZM0 33.0815C0 33.0718 2.74337 28.3095 6.09637 22.4987L12.1927 11.9336L19.2974 5.97138C23.2049 2.69217 26.4125 0.00516265 26.4254 0.000127507C26.4382 -0.00463727 26.3868 0.124737 26.3111 0.287762C26.2354 0.450788 22.7639 7.89695 18.5965 16.8348L11.0195 33.0854L5.50976 33.0923C2.47939 33.0961 0 33.0913 0 33.0815Z" fill="#0089D6"/>
</g>
<defs>
<clipPath id="clip0_54_1896">
<rect width="48" height="37.3125" fill="white"/>
</clipPath>
</defs>
</svg>
