<svg width="48" height="48" viewBox="0 0 48 48" fill="none" xmlns="http://www.w3.org/2000/svg">
<g id="file-type-node">
<g id="Group">
<path id="Vector" d="M24 44.9999C23.4334 45.0001 22.8767 44.8511 22.386 44.5679L17.25 41.5274C16.4835 41.0984 16.857 40.9469 17.1105 40.8584C17.9257 40.6066 18.7062 40.2538 19.434 39.8084C19.4949 39.7802 19.562 39.7681 19.6289 39.773C19.6958 39.778 19.7604 39.8 19.8165 39.8369L23.763 42.1814C23.8364 42.2203 23.9183 42.2406 24.0014 42.2406C24.0846 42.2406 24.1665 42.2203 24.24 42.1814L39.63 33.2984C39.702 33.2553 39.7615 33.1941 39.8028 33.121C39.8441 33.0479 39.8657 32.9654 39.8655 32.8814V15.1124C39.8655 15.0271 39.8436 14.9433 39.8018 14.8689C39.76 14.7946 39.6998 14.7322 39.6269 14.6879L24.237 5.81241C24.1644 5.77153 24.0825 5.75006 23.9992 5.75006C23.9159 5.75006 23.834 5.77153 23.7615 5.81241L8.38045 14.6909C8.30708 14.7343 8.24617 14.7959 8.20359 14.8697C8.16102 14.9436 8.13824 15.0272 8.13745 15.1124V32.8739C8.13766 32.9577 8.16014 33.0399 8.20257 33.1121C8.24501 33.1843 8.30588 33.244 8.37895 33.2849L12.6 35.7209C14.8875 36.8639 16.2885 35.5169 16.2885 34.1639V16.6274C16.2885 16.5683 16.3001 16.5098 16.3227 16.4552C16.3453 16.4006 16.3785 16.351 16.4203 16.3092C16.462 16.2674 16.5116 16.2343 16.5662 16.2117C16.6208 16.189 16.6794 16.1774 16.7385 16.1774H18.6885C18.8078 16.1774 18.9223 16.2248 19.0066 16.3092C19.091 16.3936 19.1385 16.5081 19.1385 16.6274V34.1654C19.1385 37.2179 17.4765 38.9654 14.5815 38.9654C13.3325 38.9872 12.1032 38.6532 11.037 38.0024L6.99145 35.6819C6.50033 35.3959 6.09283 34.9861 5.80961 34.4934C5.5264 34.0006 5.37739 33.4422 5.37745 32.8739V15.1124C5.37599 14.5432 5.52437 13.9836 5.80769 13.4899C6.091 12.9963 6.49926 12.5858 6.99145 12.2999L22.383 3.41391C22.8787 3.14266 23.4348 3.00049 24 3.00049C24.5651 3.00049 25.1212 3.14266 25.617 3.41391L41.007 12.2999C41.498 12.5853 41.9056 12.9946 42.1891 13.4868C42.4726 13.979 42.622 14.5369 42.6225 15.1049V32.8739C42.6216 33.4422 42.4721 34.0004 42.1886 34.493C41.9052 34.9857 41.4978 35.3955 41.007 35.6819L25.617 44.5679C25.1253 44.8516 24.5676 45.0006 24 44.9999Z" fill="#83CD29"/>
<path id="Vector_2" d="M21.0809 26.9294C21.0809 26.8101 21.1283 26.6956 21.2127 26.6112C21.2971 26.5268 21.4116 26.4794 21.5309 26.4794H23.5214C23.6278 26.4798 23.7306 26.5178 23.8116 26.5867C23.8926 26.6556 23.9466 26.751 23.9639 26.8559C24.2639 28.8824 25.1639 29.9039 29.2334 29.9039C32.4749 29.9039 33.8564 29.1704 33.8564 27.4499C33.8564 26.4584 33.4649 25.7219 28.4264 25.2284C24.2144 24.8114 21.6104 23.8784 21.6104 20.5124C21.6104 17.4074 24.2279 15.5549 28.6154 15.5549C33.5459 15.5549 35.9864 17.2664 36.2954 20.9384C36.3002 20.9997 36.2923 21.0614 36.2722 21.1195C36.2522 21.1776 36.2205 21.231 36.179 21.2764C36.1376 21.3218 36.0872 21.3583 36.0312 21.3835C35.9751 21.4087 35.9144 21.4221 35.8529 21.4229H33.8489C33.7484 21.4215 33.6512 21.3865 33.5729 21.3234C33.4946 21.2603 33.4397 21.1729 33.4169 21.0749C32.9384 18.9434 31.7669 18.2624 28.6169 18.2624C25.0769 18.2624 24.6659 19.4954 24.6659 20.4194C24.6659 21.5384 25.1519 21.8654 29.9309 22.4969C34.6604 23.1224 36.9074 24.0074 36.9074 27.3314C36.9074 30.6854 34.1114 32.6054 29.2349 32.6054C22.4924 32.6144 21.0809 29.5229 21.0809 26.9294Z" fill="#83CD29"/>
</g>
</g>
</svg>
