<svg width="48" height="48" viewBox="0 0 48 48" fill="none" xmlns="http://www.w3.org/2000/svg">
<g id="file-type-ruby">
<path id="Vector" d="M35.5395 30.7036L11.5605 44.9416L42.6105 42.8416L45 11.5276L35.5395 30.7036Z" fill="url(#paint0_linear_54_2043)"/>
<path id="Vector_2" d="M42.66 42.813L39.9915 24.3945L32.7225 33.9945L42.66 42.813Z" fill="url(#paint1_linear_54_2043)"/>
<path id="Vector_3" d="M42.6959 42.8131L23.1449 41.2786L11.6639 44.9011L42.6959 42.8131Z" fill="url(#paint2_linear_54_2043)"/>
<path id="Vector_4" d="M11.691 44.9055L16.575 28.905L5.82751 31.2L11.691 44.9055Z" fill="url(#paint3_linear_54_2043)"/>
<path id="Vector_5" d="M32.7195 34.05L28.2195 16.4475L15.3645 28.5L32.7195 34.05Z" fill="url(#paint4_linear_54_2043)"/>
<path id="Vector_6" d="M43.98 16.6905L31.83 6.76196L28.4445 17.712L43.98 16.6905Z" fill="url(#paint5_linear_54_2043)"/>
<path id="Vector_7" d="M38.295 3.22197L31.1445 7.17297L26.634 3.16797L38.295 3.22197Z" fill="url(#paint6_linear_54_2043)"/>
<path id="Vector_8" d="M3 36.5701L6 31.1071L3.573 24.6001L3 36.5701Z" fill="url(#paint7_linear_54_2043)"/>
<path id="Vector_9" d="M3.41101 24.3946L5.85001 31.3096L16.443 28.9336L28.536 17.7001L31.95 6.85359L26.5755 3.05859L17.439 6.47859C14.559 9.15009 8.97301 14.4526 8.77201 14.5501C8.57101 14.6476 5.08351 21.2461 3.41101 24.3931V24.3946Z" fill="white"/>
<path id="Vector_10" d="M11.9714 11.9716C18.2099 5.78707 26.2499 2.13157 29.3384 5.25007C32.4269 8.36857 29.1525 15.9316 22.9139 22.1161C16.6755 28.3006 8.73145 32.1511 5.64745 29.0371C2.56345 25.9231 5.73295 18.1501 11.9714 11.9716Z" fill="url(#paint8_linear_54_2043)"/>
<path id="Vector_11" d="M11.691 44.8996L16.5375 28.8496L32.631 34.0201C26.8125 39.4771 20.34 44.0881 11.691 44.8996Z" fill="url(#paint9_linear_54_2043)"/>
<path id="Vector_12" d="M28.557 17.661L32.688 34.026C37.548 28.9155 41.9115 23.421 44.0475 16.626L28.5555 17.6625L28.557 17.661Z" fill="url(#paint10_linear_54_2043)"/>
<path id="Vector_13" d="M44.0056 16.7085C45.6556 11.718 46.0411 4.55846 38.2441 3.23096L31.8466 6.76346L44.0056 16.707V16.7085Z" fill="url(#paint11_linear_54_2043)"/>
<path id="Vector_14" d="M3 36.4981C3.2295 44.7331 9.171 44.8561 11.7 44.9281L5.85 31.2781L3 36.4981Z" fill="#9E1209"/>
<path id="Vector_15" d="M28.5795 17.6866C32.3145 19.9831 39.843 24.5866 39.9945 24.6781C41.7506 22.2496 43.0791 19.5392 43.923 16.6636L28.5795 17.6866Z" fill="url(#paint12_radial_54_2043)"/>
<path id="Vector_16" d="M16.5315 28.8479L23.01 41.3459C26.5387 39.3805 29.7646 36.9149 32.5875 34.0259L16.5375 28.8479H16.5315Z" fill="url(#paint13_radial_54_2043)"/>
<path id="Vector_17" d="M5.83048 31.2916L4.91248 42.2221C6.64498 44.5876 9.02698 44.7931 11.526 44.6086C9.71848 40.1086 6.10498 31.1086 5.82598 31.2916H5.83048Z" fill="url(#paint14_linear_54_2043)"/>
<path id="Vector_18" d="M31.809 6.79206L44.679 8.59206C43.992 5.68206 41.883 3.80406 38.2875 3.21606L31.809 6.78606V6.79206Z" fill="url(#paint15_linear_54_2043)"/>
</g>
<defs>
<linearGradient id="paint0_linear_54_2043" x1="39.7909" y1="48.7345" x2="30.9735" y2="32.9119" gradientUnits="userSpaceOnUse">
<stop stop-color="#FB7655"/>
<stop offset="0.41" stop-color="#E42B1E"/>
<stop offset="0.99" stop-color="#990000"/>
<stop offset="1" stop-color="#990000"/>
</linearGradient>
<linearGradient id="paint1_linear_54_2043" x1="44.3027" y1="35.5976" x2="31.8678" y2="33.1482" gradientUnits="userSpaceOnUse">
<stop stop-color="#871101"/>
<stop offset="0.99" stop-color="#911209"/>
<stop offset="1" stop-color="#911209"/>
</linearGradient>
<linearGradient id="paint2_linear_54_2043" x1="35.0509" y1="49.0425" x2="34.8882" y2="41.1238" gradientUnits="userSpaceOnUse">
<stop stop-color="#871101"/>
<stop offset="0.99" stop-color="#911209"/>
<stop offset="1" stop-color="#911209"/>
</linearGradient>
<linearGradient id="paint3_linear_54_2043" x1="11.23" y1="30.0723" x2="14.9121" y2="40.927" gradientUnits="userSpaceOnUse">
<stop stop-color="white"/>
<stop offset="0.23" stop-color="#E57252"/>
<stop offset="0.46" stop-color="#DE3B20"/>
<stop offset="0.99" stop-color="#A60003"/>
<stop offset="1" stop-color="#A60003"/>
</linearGradient>
<linearGradient id="paint4_linear_54_2043" x1="23.4818" y1="19.2263" x2="24.1318" y2="30.9227" gradientUnits="userSpaceOnUse">
<stop stop-color="white"/>
<stop offset="0.23" stop-color="#E4714E"/>
<stop offset="0.56" stop-color="#BE1A0D"/>
<stop offset="0.99" stop-color="#A80D00"/>
<stop offset="1" stop-color="#A80D00"/>
</linearGradient>
<linearGradient id="paint5_linear_54_2043" x1="34.3093" y1="8.27354" x2="35.2322" y2="16.7421" gradientUnits="userSpaceOnUse">
<stop stop-color="white"/>
<stop offset="0.18" stop-color="#E46342"/>
<stop offset="0.4" stop-color="#C82410"/>
<stop offset="0.99" stop-color="#A80D00"/>
<stop offset="1" stop-color="#A80D00"/>
</linearGradient>
<linearGradient id="paint6_linear_54_2043" x1="28.0725" y1="5.65838" x2="29.445" y2="-0.210184" gradientUnits="userSpaceOnUse">
<stop stop-color="white"/>
<stop offset="0.54" stop-color="#C81F11"/>
<stop offset="0.99" stop-color="#BF0905"/>
<stop offset="1" stop-color="#BF0905"/>
</linearGradient>
<linearGradient id="paint7_linear_54_2043" x1="3.93402" y1="27.2158" x2="7.58486" y2="29.5544" gradientUnits="userSpaceOnUse">
<stop stop-color="white"/>
<stop offset="0.31" stop-color="#DE4024"/>
<stop offset="0.99" stop-color="#BF190B"/>
<stop offset="1" stop-color="#BF190B"/>
</linearGradient>
<linearGradient id="paint8_linear_54_2043" x1="-0.728873" y1="35.8482" x2="31.7255" y2="2.16143" gradientUnits="userSpaceOnUse">
<stop stop-color="#BD0012"/>
<stop offset="0.07" stop-color="white"/>
<stop offset="0.17" stop-color="white"/>
<stop offset="0.27" stop-color="#C82F1C"/>
<stop offset="0.33" stop-color="#820C01"/>
<stop offset="0.46" stop-color="#A31601"/>
<stop offset="0.72" stop-color="#B31301"/>
<stop offset="0.99" stop-color="#E82609"/>
<stop offset="1" stop-color="#E82609"/>
</linearGradient>
<linearGradient id="paint9_linear_54_2043" x1="23.9395" y1="39.5453" x2="14.6568" y2="35.5864" gradientUnits="userSpaceOnUse">
<stop stop-color="#8C0C01"/>
<stop offset="0.54" stop-color="#990C00"/>
<stop offset="0.99" stop-color="#A80D0E"/>
<stop offset="1" stop-color="#A80D0E"/>
</linearGradient>
<linearGradient id="paint10_linear_54_2043" x1="40.9242" y1="27.3828" x2="31.4233" y2="20.6982" gradientUnits="userSpaceOnUse">
<stop stop-color="#7E110B"/>
<stop offset="0.99" stop-color="#9E0C00"/>
<stop offset="1" stop-color="#9E0C00"/>
</linearGradient>
<linearGradient id="paint11_linear_54_2043" x1="44.0423" y1="13.0887" x2="39.5013" y2="8.54409" gradientUnits="userSpaceOnUse">
<stop stop-color="#79130D"/>
<stop offset="0.99" stop-color="#9E120B"/>
<stop offset="1" stop-color="#9E120B"/>
</linearGradient>
<radialGradient id="paint12_radial_54_2043" cx="0" cy="0" r="1" gradientUnits="userSpaceOnUse" gradientTransform="translate(33.5885 19.7546) scale(10.6149 5.54667)">
<stop stop-color="#A80D00"/>
<stop offset="0.99" stop-color="#7E0E08"/>
<stop offset="1" stop-color="#7E0E08"/>
</radialGradient>
<radialGradient id="paint13_radial_54_2043" cx="0" cy="0" r="1" gradientUnits="userSpaceOnUse" gradientTransform="translate(18.8859 33.8834) scale(14.1766 11.0359)">
<stop stop-color="#A30C00"/>
<stop offset="0.99" stop-color="#800E08"/>
<stop offset="1" stop-color="#800E08"/>
</radialGradient>
<linearGradient id="paint14_linear_54_2043" x1="8.51695" y1="44.8429" x2="0.591782" y2="38.2192" gradientUnits="userSpaceOnUse">
<stop stop-color="#8B2114"/>
<stop offset="0.43" stop-color="#9E100A"/>
<stop offset="0.99" stop-color="#B3100C"/>
<stop offset="1" stop-color="#B3100C"/>
</linearGradient>
<linearGradient id="paint15_linear_54_2043" x1="35.9446" y1="5.18674" x2="38.1856" y2="10.8718" gradientUnits="userSpaceOnUse">
<stop stop-color="#B31000"/>
<stop offset="0.44" stop-color="#910F08"/>
<stop offset="0.99" stop-color="#791C12"/>
<stop offset="1" stop-color="#791C12"/>
</linearGradient>
</defs>
</svg>
