<svg width="48" height="35" viewBox="0 0 48 35" fill="none" xmlns="http://www.w3.org/2000/svg">
<g id="docker" clip-path="url(#clip0_54_1980)">
<path id="Vector" d="M47.0092 13.2182C45.9283 12.4682 43.4513 12.187 41.5148 12.562C41.2896 10.6871 40.2538 9.04651 38.4523 7.59344L37.4165 6.84347L36.6959 7.92156C35.7952 9.32775 35.3448 11.2964 35.4799 13.1713C35.525 13.8276 35.7501 14.9994 36.4257 16.0306C35.7952 16.4056 34.4891 16.8743 32.7777 16.8743H0.216519L0.126447 17.2493C-0.188807 19.1242 -0.188807 24.9834 3.50417 29.4832C6.29642 32.9049 10.4398 34.6392 15.8891 34.6392C27.6886 34.6392 36.4257 28.9676 40.524 18.7024C42.1453 18.7492 45.6131 18.7024 47.3695 15.1869C47.4145 15.0931 47.5046 14.9057 47.8199 14.2026L48 13.8276L47.0092 13.2182ZM26.2475 0H21.2935V4.68731H26.2475V0ZM26.2475 5.62477H21.2935V10.3121H26.2475V5.62477ZM20.3928 5.62477H15.4388V10.3121H20.3928V5.62477ZM14.5381 5.62477H9.58406V10.3121H14.5381V5.62477ZM8.68334 11.2495H3.72935V15.9369H8.68334V11.2495ZM14.5381 11.2495H9.58406V15.9369H14.5381V11.2495ZM20.3928 11.2495H15.4388V15.9369H20.3928V11.2495ZM26.2475 11.2495H21.2935V15.9369H26.2475V11.2495ZM32.1022 11.2495H27.1482V15.9369H32.1022V11.2495Z" fill="#2396ED"/>
</g>
<defs>
<clipPath id="clip0_54_1980">
<rect width="48" height="34.6875" fill="white"/>
</clipPath>
</defs>
</svg>
