<svg width="80" height="32" viewBox="0 0 80 32" fill="none" xmlns="http://www.w3.org/2000/svg">
<path d="M45.7703 0.596376C44.1713 1.44382 43.5957 2.84292 43.5957 6.7124C43.5957 6.7124 44.4031 5.9369 45.5904 5.50119C46.4618 5.20138 47.1973 4.7217 47.637 4.4019C48.9882 3.41455 49.176 2.15537 49.176 0.0207534C49.176 0.0207534 46.9655 -0.0432086 45.7703 0.596376ZM36.3804 1.51178C35.1012 2.65504 34.7094 4.46586 34.7094 4.46586L30.4002 21.0191L26.8466 7.44792C26.4988 6.02885 25.8632 4.21802 24.8678 3.0228C23.6286 1.51178 21.0943 1.41984 20.8105 1.41984C20.5386 1.41984 17.9763 1.51178 16.7091 3.04679C15.7258 4.258 15.0862 6.04883 14.7384 7.47591L11.1847 21.0471L6.9235 4.46986C6.9235 4.46986 6.55574 2.63505 5.25259 1.51578C3.13796 -0.343012 0 0.048735 0 0.048735L8.18668 31.0846C8.18668 31.0846 10.8929 31.2924 12.244 30.5809C14.0069 29.6855 14.8783 28.9779 15.9576 24.7327C16.921 20.9751 19.6033 9.92631 19.8511 9.12283C19.967 8.73109 20.1309 7.7957 20.8145 7.7957C21.53 7.7957 21.6699 8.7111 21.7778 9.12283C22.0337 9.90233 24.692 20.9751 25.6793 24.7327C26.7506 28.9499 27.6021 29.6375 29.3929 30.5809C30.744 31.2924 33.4503 31.0846 33.4503 31.0846L41.6369 0.0687187C41.6289 0.0687187 38.483 -0.327024 36.3804 1.51178ZM49.176 5.10944C49.176 5.10944 48.6604 5.88894 47.4971 6.57649C46.7456 6.99222 46.0301 7.28803 45.2506 7.65978C43.9594 8.27538 43.5957 8.98692 43.5957 10.0382V31.0886C43.5957 31.0886 45.6823 31.3404 47.0094 30.6728C48.7523 29.7854 49.1401 28.934 49.172 25.0605L49.176 5.10944ZM69.6108 15.6306L80 0.140674C80 0.140674 75.6188 -0.614834 73.4403 1.37587C72.0412 2.63505 70.4902 4.91357 70.4902 4.91357L66.6847 10.454C66.4728 10.7298 66.2689 11.0536 65.8852 11.0536C65.4894 11.0536 65.2416 10.7538 65.0777 10.454L61.2322 4.92956C61.2322 4.92956 59.6932 2.65904 58.2741 1.39586C56.1155 -0.598844 51.7144 0.156663 51.7144 0.156663L62.1196 15.6066L51.7144 31.0286C51.7144 31.0286 56.2954 31.6242 58.462 29.6295C59.8611 28.3703 61.2122 26.2837 61.2122 26.2837L65.0097 20.7553C65.2216 20.4834 65.4255 20.1677 65.8092 20.1677C66.209 20.1677 66.4528 20.4675 66.6167 20.7553L70.4222 26.2837C70.4222 26.2837 71.8413 28.3224 73.2204 29.6295C75.371 31.6242 79.8841 31.0286 79.8841 31.0286L69.6108 15.6306Z" fill="black"/>
</svg>
